<?xml version="1.0" encoding="UTF-8"?>
<svg width="228px" height="17px" viewBox="0 0 228 17" version="1.1" xmlns="http://www.w3.org/2000/svg" xmlns:xlink="http://www.w3.org/1999/xlink">
    <!-- Generator: Sketch 49 (51002) - http://www.bohemiancoding.com/sketch -->
    <title>Page 1</title>
    <desc>Created with Sketch.</desc>
    <defs>
        <polygon id="path-1" points="15.1014268 16.3077184 4.33193448e-05 16.3077184 4.33193448e-05 0.0767884465 15.1014268 0.0767884465 15.1014268 16.3077184"></polygon>
        <polygon id="path-3" points="17.5718951 16.3077184 0.0118913541 16.3077184 0.0118913541 0.0768051724 17.5718951 0.0768051724 17.5718951 16.3077184"></polygon>
        <polygon id="path-5" points="17.5453478 16.3077184 0.0763669867 16.3077184 0.0763669867 0.0768051724 17.5453478 0.0768051724 17.5453478 16.3077184"></polygon>
        <polygon id="path-7" points="0.0197995261 16.3077184 16.9684695 16.3077184 16.9684695 0.0768051724 0.0197995261 0.0768051724"></polygon>
    </defs>
    <g id="Page-1" stroke="none" stroke-width="1" fill="none" fill-rule="evenodd">
        <g id="Desktop-HD" transform="translate(-120.000000, -36.000000)">
            <g id="Page-1" transform="translate(120.000000, 36.000000)">
                <path d="M9.0523841,0 C11.559845,0 13.4160279,0.696843022 15.1205805,2.0904075 C15.3462628,2.27057521 15.3462628,2.5399758 15.1460783,2.72002194 L13.1903456,4.54029943 C13.0140313,4.6974903 12.7381672,4.6974903 12.5628022,4.54029943 C11.6356602,3.79847527 10.4062068,3.39388811 9.17756727,3.39388811 C6.34406051,3.39388811 4.26300902,5.50642147 4.26300902,8.02414983 C4.26300902,10.5191445 6.36874452,12.5865751 9.20306503,12.5865751 C10.3815228,12.5865751 11.6603442,12.2049648 12.5628022,11.5081218 C12.7381672,11.3731784 13.0643487,11.3731784 13.2150296,11.5310987 L15.1707623,13.3963573 C15.3462628,13.5535482 15.3214432,13.8459256 15.1460783,14.0031165 C13.4405763,15.4867648 11.2839809,16.1834862 9.0523841,16.1834862 C4.03746232,16.1834862 0,12.6094304 0,8.11423369 C0,3.61915854 4.03746232,0 9.0523841,0" id="Fill-1" fill="#EEC823"></path>
                <path d="M19,0.438780526 C19,0.207198442 19.1914378,0 19.4541804,0 L29.3419046,0 C29.604518,0 29.7951807,0.207198442 29.7951807,0.438780526 L29.7951807,2.9586737 C29.7951807,3.19013074 29.604518,3.39820449 29.3419046,3.39820449 L22.725416,3.39820449 L22.725416,6.26497062 L28.1717054,6.26497062 C28.4100339,6.26497062 28.6249816,6.47304437 28.6249816,6.70400123 L28.6249816,9.22451963 C28.6249816,9.47885978 28.4100339,9.6634252 28.1717054,9.6634252 L22.725416,9.6634252 L22.725416,12.7844064 L29.3419046,12.7844064 C29.604518,12.7844064 29.7951807,12.9924802 29.7951807,13.2240623 L29.7951807,15.7438304 C29.7951807,15.9755375 29.604518,16.1834862 29.3419046,16.1834862 L19.4541804,16.1834862 C19.1914378,16.1834862 19,15.9755375 19,15.7438304 L19,0.438780526 Z" id="Fill-3" fill="#EEC823"></path>
                <path d="M35,0.404465585 C35,0.179316723 35.2150534,0 35.4537716,0 L36.0521191,0 L45.5917982,8.630909 L45.6153338,8.630909 L45.6153338,0.651740307 C45.6153338,0.426591445 45.8069809,0.224297867 46.0698813,0.224297867 L48.9388974,0.224297867 C49.1783916,0.224297867 49.3935743,0.426591445 49.3935743,0.651740307 L49.3935743,15.7790207 C49.3935743,16.0033185 49.1783916,16.1834862 48.9388974,16.1834862 L48.5566378,16.1834862 C48.4851258,16.1834862 48.2934787,16.1162577 48.2456316,16.0712765 L38.8017761,7.14726066 L38.7774646,7.14726066 L38.7774646,15.5317459 C38.7774646,15.7560438 38.5858175,15.9590668 38.3235637,15.9590668 L35.4782125,15.9590668 C35.2387183,15.9590668 35.0235356,15.7560438 35.0235356,15.5317459 L35,0.404465585 Z" id="Fill-5" fill="#EEC823"></path>
                <path d="M56.628111,3.39820449 L53.4252904,3.39820449 C53.179637,3.39820449 53,3.19013074 53,2.95942397 L53,0.438780526 C53,0.207948707 53.179637,0 53.4252904,0 L63.3692847,0 C63.6157859,0 63.7951807,0.207948707 63.7951807,0.438780526 L63.7951807,2.95942397 C63.7951807,3.19013074 63.6157859,3.39820449 63.3692847,3.39820449 L60.1671908,3.39820449 L60.1671908,15.7438304 C60.1671908,15.9754125 59.9649023,16.1834862 59.7412948,16.1834862 L57.0540071,16.1834862 C56.8295516,16.1834862 56.628111,15.9754125 56.628111,15.7438304 L56.628111,3.39820449 Z" id="Fill-7" fill="#EEC823"></path>
                <path d="M70,0.438780526 C70,0.207198442 70.1874523,0 70.4468354,0 L77.4724191,0 C80.2918283,0 82.5943775,2.24191965 82.5943775,4.99326987 C82.5943775,7.11989865 81.1613526,8.8311302 79.1165344,9.64054209 L82.3357569,15.5131236 C82.5000795,15.8137302 82.3357569,16.1834862 81.9361977,16.1834862 L78.811146,16.1834862 C78.6235667,16.1834862 78.4823738,16.0680703 78.4353519,15.9755375 L75.3101732,9.8484908 L73.6890606,9.8484908 L73.6890606,15.7438304 C73.6890606,15.9755375 73.477589,16.1834862 73.2423523,16.1834862 L70.4468354,16.1834862 C70.1874523,16.1834862 70,15.9755375 70,15.7438304 L70,0.438780526 Z M77.1667766,6.9118249 C78.1297094,6.9118249 78.9522118,6.03426385 78.9522118,5.06316964 C78.9522118,4.09220048 78.1297094,3.30554665 77.1667766,3.30554665 L73.6890606,3.30554665 L73.6890606,6.9118249 L77.1667766,6.9118249 Z" id="Fill-9" fill="#EEC823"></path>
                <path d="M93.0849357,0 C97.5888691,0 101.192771,3.61915854 101.192771,8.11423369 C101.192771,12.6094304 97.5888691,16.1834862 93.0849357,16.1834862 C88.5810022,16.1834862 85,12.6094304 85,8.11423369 C85,3.61915854 88.5810022,0 93.0849357,0 M93.0849357,12.5865751 C95.5626107,12.5865751 97.5888691,10.5641256 97.5888691,8.11423369 C97.5888691,5.64160804 95.5626107,3.59618169 93.0849357,3.59618169 C90.630404,3.59618169 88.6031711,5.64160804 88.6031711,8.11423369 C88.6031711,10.5641256 90.630404,12.5865751 93.0849357,12.5865751" id="Fill-11" fill="#EEC823"></path>
                <g id="Group-2" transform="translate(109.000000, 0.000000)">
                    <g id="Group-15" transform="translate(0.000000, 0.047989)">
                        <mask id="mask-2" fill="white">
                            <use xlink:href="#path-1"></use>
                        </mask>
                        <g id="Clip-14"></g>
                        <path d="M8.65862732,3.65821431 C9.77617978,3.65821431 11.2642859,4.05620626 12.1540652,5.15568101 L12.3327142,5.38699972 L15.1014268,3.41828177 L14.9071829,3.17040445 C13.2816678,1.20570071 10.8700799,0.0767884465 8.32853391,0.0767884465 C3.7318316,0.0767884465 4.33193448e-05,3.72327792 4.33193448e-05,8.18900027 C4.33193448e-05,12.6752954 3.7318316,16.3077352 8.32853391,16.3077352 C10.8628022,16.3077352 13.3162366,15.1437822 14.8709679,13.1980623 L15.0594937,12.9669109 L12.3145201,10.9736895 L12.1269473,11.2531787 C11.4338378,12.3314116 9.81664004,12.7102525 8.65862732,12.7102525 C6.36391499,12.7102525 4.5606173,10.7384402 4.5606173,8.18900027 C4.5606173,5.65151928 6.36391499,3.65821431 8.65862732,3.65821431" id="Fill-13" fill="#FEFEFE" mask="url(#mask-2)"></path>
                    </g>
                    <g id="Group-18" transform="translate(18.800596, 0.047989)">
                        <mask id="mask-4" fill="white">
                            <use xlink:href="#path-3"></use>
                        </mask>
                        <g id="Clip-17"></g>
                        <path d="M8.79224323,12.7104365 C6.48966057,12.7104365 4.61521916,10.687694 4.61521916,8.18918425 C4.61521916,5.68088989 6.48966057,3.65831466 8.79224323,3.65831466 C11.103926,3.65831466 12.99753,5.68088989 12.99753,8.18918425 C12.99753,10.687694 11.103926,12.7104365 8.79224323,12.7104365 M8.79224323,0.0768051724 C3.94688831,0.0768051724 0.0118913541,3.7234619 0.0118913541,8.18918425 C0.0118913541,12.6754794 3.94688831,16.3077519 8.79224323,16.3077519 C13.6300731,16.3077519 17.5718951,12.6754794 17.5718951,8.18918425 C17.5718951,3.7234619 13.6300731,0.0768051724 8.79224323,0.0768051724" id="Fill-16" fill="#FEFEFE" mask="url(#mask-4)"></path>
                    </g>
                    <g id="Group-21" transform="translate(57.008258, 0.047989)">
                        <mask id="mask-6" fill="white">
                            <use xlink:href="#path-5"></use>
                        </mask>
                        <g id="Clip-20"></g>
                        <path d="M8.82248094,12.7104365 C6.52642142,12.7104365 4.65708017,10.687694 4.65708017,8.18918425 C4.65708017,5.68088989 6.52642142,3.65831466 8.82248094,3.65831466 C11.1260283,3.65831466 12.9962402,5.68088989 12.9962402,8.18918425 C12.9962402,10.687694 11.1260283,12.7104365 8.82248094,12.7104365 M8.82248094,0.0768051724 C3.99527939,0.0768051724 0.0763669867,3.7234619 0.0763669867,8.18918425 C0.0763669867,12.6754794 3.99527939,16.3077519 8.82248094,16.3077519 C13.6296569,16.3077519 17.5453478,12.6754794 17.5453478,8.18918425 C17.5453478,3.7234619 13.6296569,0.0768051724 8.82248094,0.0768051724" id="Fill-19" fill="#FEFEFE" mask="url(#mask-6)"></path>
                    </g>
                    <path d="M87.719339,0.283766108 C87.6433777,0.306861699 87.9728686,0.228665392 87.9728686,0.228665392 C88.5638757,0.0988283826 89.004735,0.0751272897 89.4777182,0.0528102022 C89.7399443,0.0404406536 90.0104232,0.0528102022 90.2347575,0.0791928056 C94.2592851,0.358502401 97.0353323,3.43341646 97.0353323,7.76414244 L97.0353323,16.5081157 L92.5598291,16.5081157 L92.5598291,7.84372276 C92.5598291,5.09180096 90.7876952,3.85501911 89.0175136,3.85501911 C87.1755415,3.85501911 85.1320413,5.2800257 85.1320413,7.20197674 L85.1320413,16.5081157 L80.66062,16.5081157 L80.66062,0.375023966 L81.2525145,0.776731541 C81.9632316,1.16546407 82.8094544,1.40870302 83.6946339,1.40870302 C84.4120065,1.40870302 85.2314298,1.23449134 85.8646771,0.955960244 C85.8646771,0.955960244 87.2201776,0.421042146 87.719339,0.283766108" id="Fill-22" fill="#FEFEFE"></path>
                    <g id="Group-26" transform="translate(101.887099, 0.047989)">
                        <mask id="mask-8" fill="white">
                            <use xlink:href="#path-7"></use>
                        </mask>
                        <g id="Clip-25"></g>
                        <path d="M8.56213482,12.7104365 C6.4405538,12.7104365 4.70571701,10.687694 4.70571701,8.18918425 C4.70571701,5.68088989 6.4405538,3.65831466 8.56213482,3.65831466 C10.7183895,3.65831466 12.4608722,5.68088989 12.4608722,8.18918425 C12.4608722,10.687694 10.7183895,12.7104365 8.56213482,12.7104365 Z M11.9059165,15.3297069 C12.5047921,15.1009807 13.1626129,14.9555493 13.8612419,14.9555493 C15.0325879,14.9555493 16.1162719,15.3431713 16.9617748,16.0035084 L16.9685317,0.388157151 L16.4000622,0.77753529 C15.6653371,1.15336548 14.8231237,1.38761122 13.9389464,1.38761122 C13.201643,1.38761122 12.3738325,1.21926539 11.7648215,0.950731622 C11.7648215,0.950731622 11.6390185,0.894365457 11.4642279,0.826040298 C11.3366468,0.789410654 10.612057,0.484414504 10.389079,0.401705101 C10.3476484,0.401705101 10.0453656,0.322257242 9.93885535,0.293656013 C9.93885535,0.293656013 9.07823831,0.117365395 8.61956856,0.0982142797 C8.47100543,0.091105787 8.34520242,0.0768051724 8.20410746,0.0768051724 L8.1398279,0.0768051724 L8.17619075,0.0768051724 L8.12035733,0.0768051724 C3.64230376,0.0768051724 0.0197995261,3.7234619 0.0197995261,8.18918425 C0.0941255425,12.7326819 3.64230376,16.3077519 8.12035733,16.3077519 C9.24556076,16.3077519 10.314664,16.0766004 11.3070408,15.6284309 L11.9059165,15.3297069 Z" id="Fill-24" fill="#FEFEFE" mask="url(#mask-8)"></path>
                    </g>
                    <path d="M46.4428232,7.1997735 C46.4428232,5.87961494 47.462821,4.74445336 48.8186484,4.51013539 C48.9704018,4.48720545 50.955065,4.1715511 52.1564911,5.620723 L52.1564911,0.17343571 C52.1564911,0.17343571 51.433791,0.0484026676 50.7009558,0.0484026676 C49.6027073,0.0360291554 48.4838233,0.301583762 47.462821,0.772642503 L47.0482843,0.971570505 C46.4176223,1.25183488 45.7063356,1.40464343 44.9647349,1.40464343 C44.0357708,1.40464343 43.1804919,1.16141306 42.4422695,0.754558139 L41.8464871,0.370546623 L41.8464871,16.5081157 L46.4428232,16.5081157 L46.4428232,7.1997735 Z" id="Fill-27" fill="#FEFEFE"></path>
                </g>
            </g>
        </g>
    </g>
</svg>