<?xml version="1.0" encoding="UTF-8"?>
<svg width="757px" height="486px" viewBox="0 0 757 486" version="1.1" xmlns="http://www.w3.org/2000/svg" xmlns:xlink="http://www.w3.org/1999/xlink">
    <!-- Generator: Sketch 49 (51002) - http://www.bohemiancoding.com/sketch -->
    <title>Strip-Patterns</title>
    <desc>Created with Sketch.</desc>
    <defs></defs>
    <g id="Page-1" stroke="none" stroke-width="1" fill="none" fill-rule="evenodd">
        <g id="Desktop-HD" transform="translate(-320.000000, -74.000000)">
            <g id="Strip-Patterns" transform="translate(319.000000, 70.000000)">
                <rect id="Rectangle-7" fill="#035BB0" transform="translate(72.392569, 271.002127) scale(-1, 1) rotate(35.000000) translate(-72.392569, -271.002127) " x="68.3925688" y="150.502127" width="8" height="241" rx="4"></rect>
                <rect id="Rectangle-7-Copy-11" fill="#0366C5" transform="translate(427.366124, 227.853989) scale(-1, 1) rotate(35.000000) translate(-427.366124, -227.853989) " x="424.366124" y="137.353989" width="6" height="181" rx="3"></rect>
                <rect id="Rectangle-7-Copy-13" fill="#035BB0" transform="translate(661.761359, 303.251416) scale(-1, 1) rotate(35.000000) translate(-661.761359, -303.251416) " x="657.261359" y="268.251416" width="9" height="70" rx="4.5"></rect>
                <rect id="Rectangle-7-Copy-8" fill="#035BB0" transform="translate(144.002568, 323.434055) scale(-1, 1) rotate(35.000000) translate(-144.002568, -323.434055) " x="129.002568" y="123.434055" width="30" height="400" rx="15"></rect>
                <rect id="Rectangle-7-Copy-12" fill="#035BB0" transform="translate(164.456714, 170.468936) scale(-1, 1) rotate(35.000000) translate(-164.456714, -170.468936) " x="152.956714" y="20.4689357" width="23" height="300" rx="11.5"></rect>
                <rect id="Rectangle-7-Copy-10" fill="#035BB0" transform="translate(638.497232, 170.000000) scale(-1, 1) rotate(35.000000) translate(-638.497232, -170.000000) " x="628.997232" y="-30" width="19" height="400" rx="9.5"></rect>
            </g>
        </g>
    </g>
</svg>