<?xml version="1.0" encoding="UTF-8"?>
<svg width="26px" height="26px" viewBox="0 0 26 26" version="1.1" xmlns="http://www.w3.org/2000/svg" xmlns:xlink="http://www.w3.org/1999/xlink">
    <!-- Generator: Sketch 49 (51002) - http://www.bohemiancoding.com/sketch -->
    <title>calendar (1)</title>
    <desc>Created with Sketch.</desc>
    <defs></defs>
    <g id="Page-1" stroke="none" stroke-width="1" fill="none" fill-rule="evenodd">
        <g id="Dashboard" transform="translate(-148.000000, -103.000000)" fill="#005EB8" fill-rule="nonzero">
            <g id="Group-14" transform="translate(120.000000, 80.000000)">
                <g id="Group-11" transform="translate(28.000000, 23.000000)">
                    <g id="calendar-(1)">
                        <path d="M24.984375,17.875 C25.5453047,17.875 26,17.4203047 26,16.859375 L26,6.09375 C26,3.8536875 24.1775625,2.03125 21.9375,2.03125 L20.6171875,2.03125 L20.6171875,1.015625 C20.6171875,0.454695313 20.1624922,0 19.6015625,0 C19.0406328,0 18.5859375,0.454695313 18.5859375,1.015625 L18.5859375,2.03125 L13.9648437,2.03125 L13.9648437,1.015625 C13.9648437,0.454695313 13.5101484,0 12.9492188,0 C12.3882891,0 11.9335937,0.454695313 11.9335937,1.015625 L11.9335937,2.03125 L7.36328125,2.03125 L7.36328125,1.015625 C7.36328125,0.454695313 6.90858594,0 6.34765625,0 C5.78672656,0 5.33203125,0.454695313 5.33203125,1.015625 L5.33203125,2.03125 L4.0625,2.03125 C1.8224375,2.03125 0,3.8536875 0,6.09375 L0,21.9375 C0,24.1775625 1.8224375,26 4.0625,26 L21.9375,26 C24.1775625,26 26,24.1775625 26,21.9375 C26,21.5794198 26,18.0405026 26,16.859375 C26,16.2281504 25.1872245,17.875 24.984375,17.875 C24.6914174,17.875 23.96875,15.84375 23.96875,16.859375 C23.96875,17.875 23.96875,21.6695279 23.96875,21.9375 C23.96875,23.0575313 23.0575313,23.96875 21.9375,23.96875 L4.0625,23.96875 C2.94246875,23.96875 2.03125,23.0575313 2.03125,21.9375 L2.03125,6.09375 C2.03125,4.97371875 2.94246875,4.0625 4.0625,4.0625 L5.33203125,4.0625 L5.33203125,5.078125 C5.33203125,5.63905469 5.78672656,6.09375 6.34765625,6.09375 C6.90858594,6.09375 7.36328125,5.63905469 7.36328125,5.078125 L7.36328125,4.0625 L11.9335937,4.0625 L11.9335937,5.078125 C11.9335937,5.63905469 12.3882891,6.09375 12.9492188,6.09375 C13.5101484,6.09375 13.9648437,5.63905469 13.9648437,5.078125 L13.9648437,4.0625 L18.5859375,4.0625 L18.5859375,5.078125 C18.5859375,5.63905469 19.0406328,6.09375 19.6015625,6.09375 C20.1624922,6.09375 20.6171875,5.63905469 20.6171875,5.078125 L20.6171875,4.0625 L21.9375,4.0625 C23.0575313,4.0625 23.96875,4.97371875 23.96875,6.09375 L23.96875,16.859375 C23.96875,17.4203047 24.4234453,17.875 24.984375,17.875 Z" id="Shape"></path>
                        <circle id="Oval" cx="6.34765625" cy="10.6640625" r="1.015625"></circle>
                        <circle id="Oval" cx="15.1835938" cy="10.6640625" r="1.015625"></circle>
                        <circle id="Oval" cx="19.6015625" cy="10.6640625" r="1.015625"></circle>
                        <circle id="Oval" cx="6.34765625" cy="15.0820312" r="1.015625"></circle>
                        <circle id="Oval" cx="6.34765625" cy="19.5" r="1.015625"></circle>
                        <circle id="Oval" cx="10.765625" cy="10.6640625" r="1.015625"></circle>
                        <circle id="Oval" cx="10.765625" cy="15.0820312" r="1.015625"></circle>
                        <circle id="Oval" cx="10.765625" cy="19.5" r="1.015625"></circle>
                        <circle id="Oval" cx="15.1835938" cy="15.0820312" r="1.015625"></circle>
                        <circle id="Oval" cx="19.6015625" cy="15.0820312" r="1.015625"></circle>
                        <circle id="Oval" cx="15.1835938" cy="19.5" r="1.015625"></circle>
                    </g>
                </g>
            </g>
        </g>
    </g>
</svg>