<?xml version="1.0" encoding="UTF-8"?>
<svg width="34px" height="26px" viewBox="0 0 34 26" version="1.1" xmlns="http://www.w3.org/2000/svg" xmlns:xlink="http://www.w3.org/1999/xlink">
    <!-- Generator: Sketch 49 (51002) - http://www.bohemiancoding.com/sketch -->
    <title>megaphone</title>
    <desc>Created with Sketch.</desc>
    <defs></defs>
    <g id="Page-1" stroke="none" stroke-width="1" fill="none" fill-rule="evenodd">
        <g id="Dashboard" transform="translate(-666.000000, -104.000000)" fill="#005EB8" fill-rule="nonzero">
            <g id="megaphone" transform="translate(684.267767, 116.146447) rotate(-315.000000) translate(-684.267767, -116.146447) translate(668.767767, 98.146447)">
                <path d="M26.7529491,15.9886199 L15.8676195,5.07475439 C14.7423296,3.94645029 12.9110951,3.94638596 11.785677,5.07475439 C10.7740133,6.08900585 10.686885,7.63588889 11.4339558,8.74045614 L11.4188142,8.8164269 C10.6340177,12.7510175 8.72341814,16.3304561 5.89341593,19.1678129 L0.900603982,24.1737135 C-0.22744469,25.3047836 -0.227637168,27.1352865 0.900603982,28.2663567 L3.62185619,30.9947427 C4.74984071,32.1257485 6.57568584,32.1258129 7.70379867,30.9947427 L8.38414381,30.312614 L13.1464314,35.087386 C14.2744801,36.2184561 16.1001969,36.2185205 17.2283097,35.087386 C18.3537279,33.9590819 18.3537279,32.1231111 17.2283097,30.994807 L15.1873385,28.9484854 L15.8676836,28.2663567 C16.9957323,27.1354152 16.9958606,25.3049123 15.8676836,24.1737778 L15.4053518,23.7101696 C17.6797345,22.1136257 20.2627235,21.0021111 23.0211239,20.4489591 L23.0978584,20.4335848 C24.2240465,21.1959298 25.763292,21.073386 26.7529491,20.0811345 L26.7530133,20.0811345 C27.8782389,18.9528947 27.8782389,17.1169883 26.7529491,15.9886199 Z M6.34317257,29.6305497 C5.96719912,30.0074444 5.35845575,30.0075088 4.9824823,29.6304854 L2.26123009,26.9020994 C1.88519248,26.5250117 1.88519248,25.9149298 2.26123009,25.5379064 L7.02345354,20.7631345 L11.105396,24.8557778 C10.6394712,25.322924 6.82058186,29.1518246 6.34317257,29.6305497 Z M15.8676195,32.3589357 C16.2426947,32.7349942 16.2426947,33.3470058 15.8676195,33.7231287 C15.4925442,34.0991871 14.8820686,34.0991871 14.5069934,33.7231287 L9.74470575,28.9483567 L11.105396,27.5841637 L15.8676195,32.3589357 Z M12.4660221,26.2199708 C12.7552522,25.9299825 13.1881991,25.4858012 13.8714956,24.9006784 L14.5069934,25.5379064 C14.883031,25.9149298 14.883031,26.5250117 14.5069934,26.9020994 L13.8266482,27.5842281 L12.4660221,26.2199708 Z M12.5068916,23.5326257 L8.34308186,19.3579006 C10.5744779,16.7745731 12.1724292,13.7251287 13.0273518,10.4122632 L21.4291394,18.836076 C18.1249358,19.6931754 15.0835288,21.2953158 12.5068916,23.5326257 Z M25.3921305,18.7168772 C25.0160929,19.0938363 24.407542,19.0938363 24.0315044,18.7168772 L13.1463031,7.80314035 C12.7702655,7.42605263 12.7702655,6.81597076 13.1463031,6.43894737 C13.5223407,6.06192398 14.1309558,6.06192398 14.5069934,6.43894737 L25.3921305,17.3526199 C25.7672058,17.7287427 25.7672058,18.3406901 25.3921305,18.7168772 Z" id="Shape"></path>
                <g id="Group-19" transform="translate(24.585786, 6.328427) rotate(-44.000000) translate(-24.585786, -6.328427) translate(22.585786, -0.171573)">
                    <circle id="Oval" cx="1.06031182" cy="1.90592873" r="1.015625"></circle>
                    <circle id="Oval-Copy-2" cx="2.06031182" cy="6.93717873" r="1.015625"></circle>
                    <circle id="Oval-Copy-3" cx="1.06031182" cy="11.9371787" r="1.015625"></circle>
                </g>
            </g>
        </g>
    </g>
</svg>