<?xml version="1.0" encoding="UTF-8"?>
<svg width="271px" height="45px" viewBox="0 0 271 45" version="1.1" xmlns="http://www.w3.org/2000/svg" xmlns:xlink="http://www.w3.org/1999/xlink">
    <!-- Generator: Sketch 49 (51002) - http://www.bohemiancoding.com/sketch -->
    <title>Group</title>
    <desc>Created with Sketch.</desc>
    <defs></defs>
    <g id="Page-1" stroke="none" stroke-width="1" fill="none" fill-rule="evenodd">
        <g id="Dashboard" transform="translate(-120.000000, -16.000000)">
            <g id="Group" transform="translate(120.000000, 17.000000)">
                <path d="M0.16,31.24 C0.16,31.64 0.48,32 0.92,32 L5.12,32 C5.52,32 5.88,31.64 5.88,31.24 L5.88,23.56 C5.88,21.92 7.08,20.76 8.68,20.76 C10.48,20.76 11.2,22.16 11.2,23.76 L11.2,31.24 C11.2,31.64 11.52,32 11.96,32 L15.8,32 C16.24,32 16.56,31.64 16.56,31.24 L16.56,23.48 C16.56,21.92 17.84,20.76 19.24,20.76 C21.08,20.76 21.92,22.16 21.92,23.76 L21.92,31.24 C21.92,31.64 22.24,32 22.68,32 L26.92,32 C27.36,32 27.68,31.64 27.68,31.24 L27.68,24 C27.68,19.44 25.24,15.6 20.28,15.6 C17.56,15.6 15.68,17.12 14.76,18.04 C13.32,16.44 11.76,15.6 9.52,15.6 C6.96,15.6 5.12,17.04 4.12,18.08 L3.44,16.44 C3.32,16.2 3.04,16 2.76,16 L0.92,16 C0.48,16 0.16,16.32 0.16,16.76 L0.16,31.24 Z M30.4,24 C30.4,19.48 33.96,15.6 38.68,15.6 C42.76,15.6 46.28,18.72 46.28,23.12 C46.28,23.4 46.24,23.92 46.2,24.2 C46.16,24.6 45.8,24.88 45.44,24.88 L35.84,24.88 C35.96,25.96 36.84,27.52 38.92,27.52 C39.92,27.52 41.08,27.04 41.72,26.56 C42.08,26.28 42.48,26.28 42.72,26.56 L44.72,28.96 C44.96,29.28 45.04,29.76 44.68,30.12 C43.28,31.52 41.28,32.4 38.76,32.4 C34,32.4 30.4,28.6 30.4,24 Z M36.36,21.76 L40.64,21.76 C40.56,20.72 39.56,19.88 38.52,19.88 C37.44,19.88 36.52,20.72 36.36,21.76 Z M49.16,31.24 C49.16,31.64 49.52,32 49.92,32 L54,32 C54.64,32 54.88,31.72 54.88,31.24 L54.88,22.96 C54.88,21.6 55.8,20.68 57,20.68 C57.36,20.68 57.76,20.8 57.96,20.88 C58.4,21.04 58.68,20.8 58.84,20.52 L60.8,17.32 C61.36,16.4 59.8,15.6 57.6,15.6 C55.52,15.6 54.04,17.08 53.24,18.24 L52.52,16.48 C52.4,16.24 52.24,16 51.8,16 L49.92,16 C49.52,16 49.16,16.32 49.16,16.76 L49.16,31.24 Z M61.72,24 C61.72,28.8 65.76,32.4 70.32,32.4 C73.2,32.4 75.28,31.28 76.76,29.04 C77.04,28.64 76.84,28.24 76.48,27.92 L74.08,25.84 C73.84,25.64 73.48,25.72 73.2,26 C72.56,26.64 71.88,27.24 70.48,27.24 C68.72,27.24 67.36,25.8 67.36,24 C67.36,22.24 68.8,20.76 70.56,20.76 C71.48,20.76 72.32,21.2 72.88,21.8 C73.08,22 73.56,22.08 73.76,21.88 L76.16,19.6 C76.52,19.28 76.64,18.84 76.36,18.48 C74.84,16.64 72.88,15.6 70.36,15.6 C65.8,15.6 61.72,19.28 61.72,24 Z M78.68,27.12 C78.68,24.04 80.92,21.76 84.56,21.76 C86.36,21.76 87.64,22.4 87.64,22.4 C87.64,20.84 87.4,20.04 85.48,20.04 C84.4,20.04 82.52,20.32 81.48,20.64 C80.88,20.84 80.6,20.4 80.52,19.8 L80.16,17.28 C80.04,16.6 80.4,16.32 80.76,16.2 C81.12,16.08 83.92,15.6 86.08,15.6 C91.04,15.6 92.84,17.68 92.84,22.4 L92.84,31.24 C92.84,31.64 92.48,32 92.08,32 L90.32,32 C90.08,32 89.8,31.92 89.6,31.48 L89.04,30.4 C88.12,31.24 86.72,32.4 84.2,32.4 C81.04,32.4 78.68,30.28 78.68,27.12 Z M83.88,26.72 C83.88,27.68 84.64,28.48 85.6,28.48 C86.56,28.48 87.36,27.68 87.36,26.72 C87.32,25.8 86.56,25.04 85.6,25.04 C84.64,25.04 83.88,25.8 83.88,26.72 Z M95.76,24 C95.76,18.36 99.44,15.6 103.72,15.6 C105.08,15.6 106.56,16.08 107.04,16.36 L107.04,4.76 C107.04,4.36 107.4,4 107.8,4 L112.24,4 C112.64,4 113,4.36 113,4.76 L113,31.24 C113,31.64 112.64,32 112.24,32 L110.36,32 C109.96,32 109.68,31.64 109.52,31.2 L109.04,29.88 C109.04,29.88 107.2,32.4 103.68,32.4 C99.16,32.4 95.76,28.6 95.76,24 Z M101.24,23.96 C101.24,25.8 102.64,27.24 104.48,27.24 C106.32,27.24 107.68,25.8 107.68,23.96 C107.68,22.16 106.32,20.76 104.48,20.76 C102.64,20.76 101.24,22.16 101.24,23.96 Z M116.12,24 C116.12,19.48 119.68,15.6 124.4,15.6 C128.48,15.6 132,18.72 132,23.12 C132,23.4 131.96,23.92 131.92,24.2 C131.88,24.6 131.52,24.88 131.16,24.88 L121.56,24.88 C121.68,25.96 122.56,27.52 124.64,27.52 C125.64,27.52 126.8,27.04 127.44,26.56 C127.8,26.28 128.2,26.28 128.44,26.56 L130.44,28.96 C130.68,29.28 130.76,29.76 130.4,30.12 C129,31.52 127,32.4 124.48,32.4 C119.72,32.4 116.12,28.6 116.12,24 Z M122.08,21.76 L126.36,21.76 C126.28,20.72 125.28,19.88 124.24,19.88 C123.16,19.88 122.24,20.72 122.08,21.76 Z" id="mercadeo" fill="#FFFFFF"></path>
                <path d="M153.216834,2.94478101 C146.574044,6.58673327 142.168687,13.206583 142.007589,20.8004373 C142.004312,20.9694694 142,21.0995206 142,21.2306068 C142,26.8516147 144.209664,31.8601399 147.839197,35.6445621 L146.755667,42.8268748 C146.739109,42.9372632 146.84415,43.0267812 146.950399,42.9926298 L154.681894,40.5152744 C157.716365,41.9234154 161.132539,42.7159691 164.746549,42.7159691 C177.309085,42.7159691 187.493098,33.1537531 187.493098,21.3578983 C187.493098,9.56221602 177.309085,0 164.746549,0 C160.538339,0 156.597993,1.07438885 153.216834,2.94478101 Z" id="Fill-1" stroke="#FFFFFF" stroke-width="2" transform="translate(164.746549, 21.500000) scale(-1, 1) translate(-164.746549, -21.500000) "></path>
                <text id="informa" font-family="Pacifico-Regular, Pacifico" font-size="26" font-weight="normal" line-spacing="26" fill="#FFC72C">
                    <tspan x="190" y="43">informa</tspan>
                </text>
                <g id="Group-2" transform="translate(134.000000, 16.000000)">
                    <path d="M0,8.36 C0,3.84 3.76,0 8.32,0 C12.88,0 16.64,3.84 16.64,8.36 C16.64,12.96 12.88,16.8 8.32,16.8 C3.76,16.8 0,12.96 0,8.36 Z" id="Path" fill="#FFFFFF"></path>
                    <path d="M5,8.2 C5,10 6.4,11.48 8.16,11.48 C9.92,11.48 11.32,10 11.32,8.2 C11.32,6.44 9.92,5 8.16,5 C6.4,5 5,6.44 5,8.2 Z" id="Path" fill="#005EB8"></path>
                </g>
                <text id="te" font-family="Pacifico-Regular, Pacifico" font-size="26" font-weight="normal" line-spacing="26" fill="#FFFFFF">
                    <tspan x="156" y="42">te</tspan>
                </text>
            </g>
        </g>
    </g>
</svg>