<?xml version="1.0" encoding="UTF-8"?>
<svg width="611px" height="102px" viewBox="0 0 611 102" version="1.1" xmlns="http://www.w3.org/2000/svg" xmlns:xlink="http://www.w3.org/1999/xlink">
    <!-- Generator: Sketch 49 (51002) - http://www.bohemiancoding.com/sketch -->
    <title>Group</title>
    <desc>Created with Sketch.</desc>
    <defs></defs>
    <g id="Page-1" stroke="none" stroke-width="1" fill="none" fill-rule="evenodd">
        <g id="Login" transform="translate(-417.000000, -280.000000)">
            <g id="Group" transform="translate(417.000000, 283.000000)">
                <path d="M0.36,70.29 C0.36,71.19 1.08,72 2.07,72 L11.52,72 C12.42,72 13.23,71.19 13.23,70.29 L13.23,53.01 C13.23,49.32 15.93,46.71 19.53,46.71 C23.58,46.71 25.2,49.86 25.2,53.46 L25.2,70.29 C25.2,71.19 25.92,72 26.91,72 L35.55,72 C36.54,72 37.26,71.19 37.26,70.29 L37.26,52.83 C37.26,49.32 40.14,46.71 43.29,46.71 C47.43,46.71 49.32,49.86 49.32,53.46 L49.32,70.29 C49.32,71.19 50.04,72 51.03,72 L60.57,72 C61.56,72 62.28,71.19 62.28,70.29 L62.28,54 C62.28,43.74 56.79,35.1 45.63,35.1 C39.51,35.1 35.28,38.52 33.21,40.59 C29.97,36.99 26.46,35.1 21.42,35.1 C15.66,35.1 11.52,38.34 9.27,40.68 L7.74,36.99 C7.47,36.45 6.84,36 6.21,36 L2.07,36 C1.08,36 0.36,36.72 0.36,37.71 L0.36,70.29 Z M68.4,54 C68.4,43.83 76.41,35.1 87.03,35.1 C96.21,35.1 104.13,42.12 104.13,52.02 C104.13,52.65 104.04,53.82 103.95,54.45 C103.86,55.35 103.05,55.98 102.24,55.98 L80.64,55.98 C80.91,58.41 82.89,61.92 87.57,61.92 C89.82,61.92 92.43,60.84 93.87,59.76 C94.68,59.13 95.58,59.13 96.12,59.76 L100.62,65.16 C101.16,65.88 101.34,66.96 100.53,67.77 C97.38,70.92 92.88,72.9 87.21,72.9 C76.5,72.9 68.4,64.35 68.4,54 Z M81.81,48.96 L91.44,48.96 C91.26,46.62 89.01,44.73 86.67,44.73 C84.24,44.73 82.17,46.62 81.81,48.96 Z M110.61,70.29 C110.61,71.19 111.42,72 112.32,72 L121.5,72 C122.94,72 123.48,71.37 123.48,70.29 L123.48,51.66 C123.48,48.6 125.55,46.53 128.25,46.53 C129.06,46.53 129.96,46.8 130.41,46.98 C131.4,47.34 132.03,46.8 132.39,46.17 L136.8,38.97 C138.06,36.9 134.55,35.1 129.6,35.1 C124.92,35.1 121.59,38.43 119.79,41.04 L118.17,37.08 C117.9,36.54 117.54,36 116.55,36 L112.32,36 C111.42,36 110.61,36.72 110.61,37.71 L110.61,70.29 Z M138.87,54 C138.87,64.8 147.96,72.9 158.22,72.9 C164.7,72.9 169.38,70.38 172.71,65.34 C173.34,64.44 172.89,63.54 172.08,62.82 L166.68,58.14 C166.14,57.69 165.33,57.87 164.7,58.5 C163.26,59.94 161.73,61.29 158.58,61.29 C154.62,61.29 151.56,58.05 151.56,54 C151.56,50.04 154.8,46.71 158.76,46.71 C160.83,46.71 162.72,47.7 163.98,49.05 C164.43,49.5 165.51,49.68 165.96,49.23 L171.36,44.1 C172.17,43.38 172.44,42.39 171.81,41.58 C168.39,37.44 163.98,35.1 158.31,35.1 C148.05,35.1 138.87,43.38 138.87,54 Z M177.03,61.02 C177.03,54.09 182.07,48.96 190.26,48.96 C194.31,48.96 197.19,50.4 197.19,50.4 C197.19,46.89 196.65,45.09 192.33,45.09 C189.9,45.09 185.67,45.72 183.33,46.44 C181.98,46.89 181.35,45.9 181.17,44.55 L180.36,38.88 C180.09,37.35 180.9,36.72 181.71,36.45 C182.52,36.18 188.82,35.1 193.68,35.1 C204.84,35.1 208.89,39.78 208.89,50.4 L208.89,70.29 C208.89,71.19 208.08,72 207.18,72 L203.22,72 C202.68,72 202.05,71.82 201.6,70.83 L200.34,68.4 C198.27,70.29 195.12,72.9 189.45,72.9 C182.34,72.9 177.03,68.13 177.03,61.02 Z M188.73,60.12 C188.73,62.28 190.44,64.08 192.6,64.08 C194.76,64.08 196.56,62.28 196.56,60.12 C196.47,58.05 194.76,56.34 192.6,56.34 C190.44,56.34 188.73,58.05 188.73,60.12 Z M215.46,54 C215.46,41.31 223.74,35.1 233.37,35.1 C236.43,35.1 239.76,36.18 240.84,36.81 L240.84,10.71 C240.84,9.81 241.65,9 242.55,9 L252.54,9 C253.44,9 254.25,9.81 254.25,10.71 L254.25,70.29 C254.25,71.19 253.44,72 252.54,72 L248.31,72 C247.41,72 246.78,71.19 246.42,70.2 L245.34,67.23 C245.34,67.23 241.2,72.9 233.28,72.9 C223.11,72.9 215.46,64.35 215.46,54 Z M227.79,53.91 C227.79,58.05 230.94,61.29 235.08,61.29 C239.22,61.29 242.28,58.05 242.28,53.91 C242.28,49.86 239.22,46.71 235.08,46.71 C230.94,46.71 227.79,49.86 227.79,53.91 Z M261.27,54 C261.27,43.83 269.28,35.1 279.9,35.1 C289.08,35.1 297,42.12 297,52.02 C297,52.65 296.91,53.82 296.82,54.45 C296.73,55.35 295.92,55.98 295.11,55.98 L273.51,55.98 C273.78,58.41 275.76,61.92 280.44,61.92 C282.69,61.92 285.3,60.84 286.74,59.76 C287.55,59.13 288.45,59.13 288.99,59.76 L293.49,65.16 C294.03,65.88 294.21,66.96 293.4,67.77 C290.25,70.92 285.75,72.9 280.08,72.9 C269.37,72.9 261.27,64.35 261.27,54 Z M274.68,48.96 L284.31,48.96 C284.13,46.62 281.88,44.73 279.54,44.73 C277.11,44.73 275.04,46.62 274.68,48.96 Z" id="mercadeo" fill="#FFFFFF"></path>
                <path d="M344.737875,6.62575726 C329.791598,14.8201498 319.879546,29.7148118 319.517076,46.8009838 C319.509702,47.1813061 319.5,47.4739214 319.5,47.7688652 C319.5,60.416133 324.471743,71.6853147 332.638194,80.2002647 L330.200251,96.3604684 C330.162995,96.6088421 330.399338,96.8102577 330.638397,96.7334171 L348.03426,91.1593673 C354.861821,94.3276847 362.548212,96.1109304 370.679735,96.1109304 C398.945441,96.1109304 421.85947,74.5959444 421.85947,48.0552712 C421.85947,21.5149861 398.945441,0 370.679735,0 C361.211263,0 352.345485,2.41737492 344.737875,6.62575726 Z" id="Fill-1" stroke="#FFFFFF" stroke-width="4.5" transform="translate(370.679735, 48.375000) scale(-1, 1) translate(-370.679735, -48.375000) "></path>
                <text id="informa" font-family="Pacifico-Regular, Pacifico" font-size="58.5" font-weight="normal" line-spacing="58.5" fill="#F8D73E">
                    <tspan x="427.5" y="96.25">informa</tspan>
                </text>
                <g id="Group-2" transform="translate(301.500000, 36.000000)">
                    <path d="M0,18.81 C0,8.64 8.46,0 18.72,0 C28.98,0 37.44,8.64 37.44,18.81 C37.44,29.16 28.98,37.8 18.72,37.8 C8.46,37.8 0,29.16 0,18.81 Z" id="Path" fill="#FFFFFF"></path>
                    <path d="M11.25,18.45 C11.25,22.5 14.4,25.83 18.36,25.83 C22.32,25.83 25.47,22.5 25.47,18.45 C25.47,14.49 22.32,11.25 18.36,11.25 C14.4,11.25 11.25,14.49 11.25,18.45 Z" id="Path" fill="#005EB8"></path>
                </g>
                <text id="te" font-family="Pacifico-Regular, Pacifico" font-size="58.5" font-weight="normal" line-spacing="58.5" fill="#FFFFFF">
                    <tspan x="351" y="94">te</tspan>
                </text>
            </g>
        </g>
    </g>
</svg>