<?xml version="1.0" encoding="UTF-8"?>
<svg width="315px" height="24px" viewBox="0 0 315 24" version="1.1" xmlns="http://www.w3.org/2000/svg" xmlns:xlink="http://www.w3.org/1999/xlink">
    <!-- Generator: Sketch 49 (51002) - http://www.bohemiancoding.com/sketch -->
    <title>logo centro corona</title>
    <desc>Created with Sketch.</desc>
    <defs></defs>
    <g id="Page-1" stroke="none" stroke-width="1" fill="none" fill-rule="evenodd">
        <g id="Login" transform="translate(-563.000000, -150.000000)">
            <g id="logo-centro-corona" transform="translate(563.000000, 150.000000)">
                <path d="M11.8377514,0 C15.1180199,0 17.5437395,1.03333968 19.7730627,3.09849495 C20.069906,3.36673652 20.069906,3.76757478 19.8060453,4.03276815 L17.2483954,6.73194894 C17.0190164,6.96666032 16.6592064,6.96666032 16.4283282,6.73194894 C15.0865365,5.53400648 13.6113152,5.03410173 12.0041635,5.03410173 C8.2981198,5.03410173 5.57555692,8.16460278 5.57555692,11.8986474 C5.57405771,15.5991617 8.33110239,18.6656506 12.0341477,18.6656506 C13.8391949,18.6656506 15.2469518,18.0986855 16.426829,17.0668699 C16.6592064,16.8672128 17.0834824,16.8672128 17.2798787,17.098876 L19.8375287,19.8651172 C20.0684068,20.0998285 20.0354242,20.5311488 19.8045461,20.7673843 C17.576722,22.9651362 14.7552114,24 11.8377514,24 C5.28021282,24 0,18.6991808 0,12.0342922 C0,5.3663555 5.28171202,0 11.8377514,0" id="Fill-1" fill="#F8D83E"></path>
                <path d="M26,0.623489451 C26,0.294467307 26.2685616,0 26.6296783,0 L40.3688044,0 C40.734473,0 41,0.294467307 41,0.624991835 L41,4.20367104 C41,4.5311908 40.734473,4.82866288 40.3688044,4.82866288 L31.177018,4.82866288 L31.177018,8.90162649 L38.7407445,8.90312888 C39.0760672,8.90312888 39.3734574,9.19759619 39.3734574,9.52661833 L39.3734574,13.1113071 C39.3734574,13.4703769 39.0760672,13.7362989 38.7407445,13.7362989 L31.177018,13.7362989 L31.177018,18.1698347 L40.3688044,18.1698347 C40.734473,18.1698347 41,18.4627997 41,18.7948266 L40.9984827,22.3750082 C40.9984827,22.7040303 40.7329557,23 40.3688044,23 L26.6296783,23 C26.2670443,23 26,22.7040303 26,22.3750082 L26,0.623489451 Z" id="Fill-3" fill="#F8D83E"></path>
                <path d="M48,0.598971233 C48,0.26671747 48.3007519,0 48.6318827,0 L49.128579,0 C49.4627478,0 49.6966659,0.233187274 49.962482,0.499904744 L62.7170958,12.7978663 L62.7520316,12.7978663 L62.7520316,0.967803391 C62.7520316,0.634025529 63.0148098,0.333777862 63.3823954,0.333777862 L67.3681173,0.333777862 C67.7007671,0.333777862 68,0.634025529 68,0.967803391 L68,23.4010288 C68,23.7988188 67.7007671,24 67.3665983,24 L67.0354675,24 C66.7028177,24 66.4719374,23.8994094 66.2061214,23.6296437 L53.2829042,10.6001143 L53.2494874,10.6001143 L53.2494874,23.0337207 C53.2494874,23.3659745 52.9836713,23.6677462 52.6160857,23.6677462 L48.6637807,23.6662221 C48.3326498,23.6662221 48.0334169,23.3659745 48.0334169,23.0337207 L48,0.598971233 Z" id="Fill-5" fill="#F8D83E"></path>
                <path d="M78.3778579,4.82834749 L73.6314391,4.82834749 C73.2671473,4.82834749 73,4.53239713 73,4.20339647 L73,0.624951012 C73,0.295950359 73.2671473,0 73.6314391,0 L88.3700787,0 C88.7358884,0 89,0.295950359 89,0.624951012 L89,4.20489876 C89,4.53239713 88.7358884,4.82984977 88.3700787,4.82984977 L83.6251779,4.82834749 L83.6251779,22.375049 C83.6251779,22.7025474 83.3231192,23 82.9937387,23 L79.0108149,23 C78.6768808,23 78.3778579,22.7025474 78.3778579,22.375049 L78.3778579,4.82834749 Z" id="Fill-7" fill="#F8D83E"></path>
                <path d="M94,0.624951012 C94,0.295950359 94.2508958,0 94.6004095,0 L104.083689,0.00150228609 C108.113974,0.00150228609 111,3.18785108 111,7.09529719 C111,10.1193991 109.255332,12.5485957 106.302593,13.7008491 L110.650486,22.0475506 C110.873827,22.4711953 110.650486,23 110.108087,23 L105.892169,23 C105.638372,23 105.449838,22.8362508 105.384576,22.7040496 L101.165757,13.9937949 L98.9802082,13.9937949 L98.9802082,22.375049 C98.9802082,22.7025474 98.6945061,23 98.3739976,23 L94.5989592,23 C94.2508958,23 94,22.7025474 94,22.375049 L94,0.624951012 Z M103.671814,9.82344873 C104.972701,9.82344873 106.083603,8.73879817 106.083603,7.19595036 C106.083603,5.65009798 104.972701,4.6976486 103.671814,4.6976486 L98.9802082,4.6976486 L98.9802082,9.82344873 L103.671814,9.82344873 Z" id="Fill-9" fill="#F8D83E"></path>
                <path d="M128.482449,3.24585014e-07 C134.881089,3.24585014e-07 140,5.36669648 140,12.0335323 C140,18.698844 134.879626,23.9999997 128.482449,23.9999997 C122.085273,24.0015239 117,18.7003682 117,12.0335323 C117,5.36517229 122.085273,-0.00152387199 128.482449,3.24585014e-07 M128.482449,18.6668358 C132.002798,18.6668358 134.879626,15.667217 134.879626,12.0335323 C134.879626,8.36631535 132.002798,5.33163996 128.482449,5.33163996 C124.997202,5.33163996 122.118911,8.36631535 122.118911,12.0335323 C122.118911,15.667217 124.997202,18.6668358 128.482449,18.6668358" id="Fill-11" fill="#F8D83E"></path>
                <path d="M164.03992,5.07419931 C165.595531,5.07419931 167.662207,5.63718261 168.901018,7.1953087 L169.149079,7.52310315 L173,4.73464542 L172.72803,4.38333208 C170.471572,1.59928414 167.116772,0 163.579663,0 C157.189853,0 152,5.16533499 152,11.4933848 C151.998506,17.8523032 157.188359,22.999999 163.578169,22.999999 C167.104818,23.0014689 170.520885,21.3522072 172.677222,18.594618 L172.940226,18.2668235 L169.123675,15.4416175 L168.865153,15.8384987 C167.896819,17.3642863 165.650822,17.9022808 164.03992,17.9022808 C160.848004,17.9022808 158.340497,15.1094133 158.340497,11.4933848 C158.340497,7.8994053 160.849499,5.07419931 164.03992,5.07419931" id="Fill-13" fill="#FFFFFF"></path>
                <path d="M190.001483,0 C183.377827,0 178,5.16647495 178,11.4926508 C178,17.8526329 183.376344,23 190.001483,23 C196.611791,23 202,17.8526329 202,11.4941207 C202,5.16647495 196.611791,0.0014698364 190.001483,0 M190.001483,17.9026074 C186.854283,17.9026074 184.292918,15.0349565 184.292918,11.4926508 C184.294401,7.94152607 186.854283,5.07534509 190.001483,5.07534509 C193.156099,5.07534509 195.747126,7.94152607 195.747126,11.4926508 C195.745643,15.0349565 193.156099,17.9026074 190.001483,17.9026074" id="Fill-15" fill="#FFFFFF"></path>
                <path d="M242.01632,0 C235.384273,0 230,5.16533514 230,11.4933852 C230,17.8537736 235.384273,22.9999997 242.01632,22.9999997 C248.623145,23.0014696 254,17.8537736 254,11.4933852 C254,5.16680507 248.624629,0 242.01632,0 M242.01632,17.9022813 C238.863501,17.9022813 236.293769,15.0373872 236.293769,11.4933852 C236.293769,7.94203351 238.863501,5.07419946 242.01632,5.07419946 C245.182493,5.07419946 247.750742,7.94203351 247.750742,11.4933852 C247.749258,15.0373872 245.182493,17.9022813 242.01632,17.9022813" id="Fill-17" fill="#FFFFFF"></path>
                <path d="M271.484977,0.327826625 C271.384419,0.359309508 271.82362,0.251368195 271.82362,0.251368195 C272.62069,0.0699668207 273.213686,0.0369847527 273.848088,0.00700105457 C274.20004,-0.0109891643 274.562345,0.00700105457 274.864018,0.0459798622 C280.269006,0.431270384 284,4.7309327 284,10.7831422 L284,23 L277.98575,22.9985008 L277.98575,10.8940819 C277.98575,7.04717339 275.607851,5.317114 273.229952,5.317114 C270.752974,5.317114 268.008335,7.30953075 268.008335,9.9960701 L268.008335,22.9985008 L262,22.9985008 L262.001479,0.455257342 L262.795591,1.01895087 C263.750891,1.56015662 264.888082,1.90197078 266.075553,1.90197078 C267.041205,1.90197078 268.141426,1.65610445 268.993211,1.26931475 C268.993211,1.26931475 270.813605,0.521221478 271.484977,0.327826625" id="Fill-19" fill="#FFFFFF"></path>
                <path d="M308.127383,21.6153256 C308.942879,21.2890011 309.836185,21.0846808 310.778869,21.0846808 C312.370958,21.0846808 313.841845,21.6359046 314.988029,22.5678405 L315,0.440979101 L314.2264,0.992202978 C313.228352,1.52431776 312.086657,1.85946188 310.888101,1.85946188 C309.888556,1.85946188 308.764817,1.6183933 307.93735,1.23915128 C307.93735,1.23915128 307.768265,1.15683518 307.531846,1.05981977 C307.355279,1.01131207 306.373691,0.576212693 306.071433,0.455678405 C306.013077,0.455678405 305.603084,0.345433629 305.459437,0.30427558 C305.459437,0.30427558 304.292304,0.0558573528 303.669833,0.0293986068 C303.466333,0.0191090944 303.295752,0 303.104222,0 L303.020428,0 L303.069807,0 L302.991998,0 C296.915425,0 292,5.16533521 292,11.4933853 C292.100254,17.9346201 296.915425,23 302.991998,23 C304.519745,23 305.972676,22.6736755 307.314879,22.0371956 L308.127383,21.6153256 Z M303.59352,17.9022816 C300.7116,17.9022816 298.360874,15.0359174 298.360874,11.4933853 C298.360874,7.94203362 300.713096,5.07419953 303.59352,5.07419953 C306.517338,5.07419953 308.883026,7.94203362 308.883026,11.4933853 C308.883026,15.0373874 306.517338,17.9022816 303.59352,17.9022816 Z" id="Fill-21" fill="#FFFFFF"></path>
                <path d="M216.244095,9.9924106 C216.244095,8.14939384 217.628254,6.55981063 219.470724,6.23439595 C219.672196,6.20440382 222.36823,5.76351942 224,7.78648899 L224,0.175984471 C224,0.175984471 223.018785,0.000530474887 222.026804,0.000530474887 C220.534988,-0.0159651999 219.012413,0.352938073 217.628254,1.01126546 L217.065363,1.28869272 C216.211798,1.68308931 215.242887,1.89603347 214.233989,1.89603347 C212.972866,1.89603347 211.81171,1.55562273 210.810502,0.984272537 L210,0.450412516 L210,23 L216.244095,23 L216.244095,9.9924106 Z" id="Fill-23" fill="#FFFFFF"></path>
            </g>
        </g>
    </g>
</svg>