<?xml version="1.0" encoding="UTF-8"?>
<svg width="35px" height="33px" viewBox="0 0 35 33" version="1.1" xmlns="http://www.w3.org/2000/svg" xmlns:xlink="http://www.w3.org/1999/xlink">
    <!-- Generator: Sketch 48.1 (47250) - http://www.bohemiancoding.com/sketch -->
    <title>icon-twitter-dark</title>
    <desc>Created with Sketch.</desc>
    <defs></defs>
    <g id="Repositorio" stroke="none" stroke-width="1" fill="none" fill-rule="evenodd" transform="translate(-1382.000000, -1754.000000)">
        <g id="Group-4" transform="translate(1289.000000, 1754.000000)">
            <g id="icon-twitter-dark" transform="translate(93.000000, 0.000000)">
                <rect id="Background-Copy-5" stroke="#190927" x="0.5" y="0.5" width="34" height="32" rx="2"></rect>
                <path d="M9.18603915,24.2126313 C10.9619446,25.3816626 13.0157018,26 15.1256764,26 C19.0600896,26 21.5927063,24.1678122 23.0244314,22.6310984 C25.0575621,20.4490728 26.2150755,17.38602 26.145107,14.3968357 C26.8411519,13.8519518 27.441344,13.1950201 27.9319324,12.4409804 C28.0318296,12.2874335 28.0209096,12.0845027 27.9048347,11.9434055 C27.7891643,11.8023084 27.5966498,11.7566593 27.4316374,11.8313578 C27.242763,11.9172611 27.0506529,11.9948645 26.8553074,12.0633381 C27.1266881,11.6902607 27.3378069,11.2715342 27.4785527,10.8216833 C27.5299169,10.6573466 27.476935,10.4780703 27.3454913,10.3705875 C27.214452,10.2631047 27.032453,10.2498249 26.8872583,10.3378031 C26.2518797,10.7241603 25.5687769,11.0038646 24.8545321,11.1715212 C24.0885187,10.4241214 23.0604268,10 21.9991706,10 C20.7304356,10 19.549869,10.5851381 18.7608024,11.6051874 C18.0829574,12.4808196 17.774368,13.5714175 17.8807363,14.6645053 C15.1944316,14.3881209 12.7034724,13.0178187 10.9841889,10.8540527 C10.9000649,10.7486448 10.7710479,10.6930359 10.6387953,10.7025807 C10.5065427,10.7133705 10.3876368,10.789729 10.3209038,10.9075866 C9.48734855,12.3749968 9.6107034,14.1631954 10.5130138,15.4836986 C10.4515386,15.4534042 10.3908723,15.4214499 10.3314193,15.3878356 C10.20766,15.317287 10.0568031,15.318117 9.93425711,15.3903255 C9.8113067,15.462534 9.7344627,15.5953313 9.73082272,15.7405784 C9.69887179,17.1183504 10.3617525,18.4052393 11.4072354,19.205758 C11.3057204,19.2148878 11.2098676,19.2634418 11.1403036,19.3439502 C11.0460686,19.453508 11.0145221,19.6062249 11.0582018,19.745662 C11.486506,21.1155492 12.5489756,22.1434833 13.8516837,22.5285955 C12.5376512,23.3108546 10.9955133,23.639113 9.45216208,23.4519518 C9.26975868,23.4312022 9.08775971,23.5420049 9.02385786,23.7241862 C8.959956,23.9063675 9.02790228,24.1080534 9.18603915,24.2126313 Z M15.1794672,22.604539 C15.3145509,22.4962262 15.3683417,22.3127999 15.313742,22.1463883 C15.2591423,21.9799767 15.1086899,21.866269 14.9376108,21.862949 C13.7323733,21.8405395 12.6525127,21.1549734 12.084676,20.1017248 C12.4753671,20.1091947 12.8608004,20.0577357 13.2353139,19.9527428 C13.4160995,19.9016989 13.5394544,19.7303074 13.5325788,19.5377513 C13.5261078,19.3456102 13.391833,19.1833485 13.2078118,19.1451692 C11.8630417,18.8683699 10.8244343,17.7466476 10.5886445,16.4099598 C10.9825711,16.5502269 11.3963155,16.6294903 11.8124864,16.6427701 C12.0106631,16.6498249 12.1554533,16.5307223 12.210053,16.3547659 C12.2654616,16.1783945 12.199942,15.9858384 12.0498939,15.8829205 C10.7548702,14.9948385 10.2525531,13.3203476 10.770239,11.8682921 C12.7228857,14.0565426 15.4484213,15.3824407 18.3426092,15.5310077 C18.4671774,15.5380625 18.5917456,15.4824536 18.6730384,15.3828557 C18.7543313,15.2832577 18.7850689,15.1496304 18.7563535,15.022643 C18.5250126,14.0009337 18.7571624,12.9431202 19.3937543,12.1201919 C20.0283241,11.2993386 20.9779542,10.8291532 21.9983617,10.8291532 C22.9148276,10.8291532 23.8001515,11.2221502 24.4270368,11.9077162 C24.5224851,12.0118791 24.6628265,12.0575282 24.8003369,12.0309687 C25.267872,11.9363507 25.7236783,11.7994034 26.1649246,11.6209571 C25.9133616,11.9525353 25.6019412,12.2368046 25.2436055,12.4575801 C25.0802108,12.558423 25.0074112,12.7625989 25.0688864,12.9476851 C25.1307661,13.1331864 25.3127651,13.248554 25.4996173,13.2253145 C25.8041623,13.1879652 26.1050672,13.1327714 26.4011189,13.0601478 C26.1224582,13.3506419 25.8199355,13.6162365 25.4959773,13.8561017 C25.3855646,13.937855 25.3224717,14.0714823 25.3285383,14.2113345 C25.4531065,17.0482168 24.3728415,19.9813773 22.4387992,22.0567501 C21.115869,23.4764363 18.7733401,25.1691869 15.1244631,25.1691869 C13.7113423,25.1691869 12.3257235,24.869978 11.0448552,24.2952146 C12.5449311,24.1483076 13.9900029,23.5610945 15.1794672,22.604539 Z" id="Shape" fill="#190927" fill-rule="nonzero"></path>
            </g>
        </g>
    </g>
</svg>