<?xml version="1.0" encoding="UTF-8"?>
<svg width="35px" height="33px" viewBox="0 0 35 33" version="1.1" xmlns="http://www.w3.org/2000/svg" xmlns:xlink="http://www.w3.org/1999/xlink">
    <!-- Generator: Sketch 48.1 (47250) - http://www.bohemiancoding.com/sketch -->
    <title>icon-facebook</title>
    <desc>Created with Sketch.</desc>
    <defs></defs>
    <g id="Industrial" stroke="none" stroke-width="1" fill="none" fill-rule="evenodd" transform="translate(-1268.000000, -931.000000)">
        <g id="icon-facebook" transform="translate(1268.000000, 931.000000)">
            <g id="Neon_Line_Social_Circles-Facebook_13" transform="translate(12.000000, 6.000000)" fill="#FFFFFF" fill-rule="nonzero">
                <path d="M11.6136627,0 L8.2103435,0 C5.43380934,0 3.08799691,2.6996554 3.08799691,5.89564936 L3.08799691,7.17894321 L0.38595137,7.17894321 C0.172906214,7.17894321 0,7.35584033 0,7.57380286 L0,11.8817216 C0,12.0996841 0.172906214,12.2765812 0.38595137,12.2765812 L3.08799691,12.2765812 L3.08799691,21.6051404 C3.08799691,21.8231029 3.26090313,22 3.47394828,22 L7.40370513,22 C7.61675029,22 7.7896565,21.8231029 7.7896565,21.6051404 L7.7896565,12.2769761 L11.6140486,12.2769761 C11.8270938,12.2769761 12,12.100079 12,11.8821164 L12,7.57419772 C12,7.35623519 11.8270938,7.17933807 11.6140486,7.17933807 L7.7896565,7.17933807 L7.7896565,5.85853256 C7.7896565,5.35627109 8.08452335,5.09724316 8.2103435,5.09724316 L11.6136627,5.09724316 C11.8267078,5.09724316 11.999614,4.92034604 11.999614,4.70238352 L11.999614,0.394859645 C11.999614,0.176897121 11.8270938,0 11.6136627,0 Z M11.2277113,4.30752387 L8.2103435,4.30752387 C7.63450405,4.30752387 7.01775376,4.93061239 7.01775376,5.85853256 L7.01775376,7.57419772 C7.01775376,7.79216024 7.19065998,7.96905736 7.40370513,7.96905736 L11.2280973,7.96905736 L11.2280973,11.4872568 L7.40370513,11.4872568 C7.19065998,11.4872568 7.01775376,11.6641539 7.01775376,11.8821164 L7.01775376,21.2106756 L3.85989965,21.2106756 L3.85989965,11.8821164 C3.85989965,11.6641539 3.68699344,11.4872568 3.47394828,11.4872568 L0.77190274,11.4872568 L0.77190274,7.96905736 L3.47394828,7.96905736 C3.68699344,7.96905736 3.85989965,7.79216024 3.85989965,7.57419772 L3.85989965,5.89604422 C3.85989965,3.12847297 5.85218063,0.79011415 8.2103435,0.79011415 L11.2277113,0.79011415 L11.2277113,4.30752387 Z" id="Shape"></path>
            </g>
            <rect id="Background-Copy-3" stroke="#FFFFFF" x="0.5" y="0.5" width="34" height="32" rx="2"></rect>
        </g>
    </g>
</svg>