<?xml version="1.0" encoding="UTF-8"?>
<svg width="35px" height="33px" viewBox="0 0 35 33" version="1.1" xmlns="http://www.w3.org/2000/svg" xmlns:xlink="http://www.w3.org/1999/xlink">
    <!-- Generator: Sketch 48.1 (47250) - http://www.bohemiancoding.com/sketch -->
    <title>icon-instagram</title>
    <desc>Created with Sketch.</desc>
    <defs></defs>
    <g id="Industrial" stroke="none" stroke-width="1" fill="none" fill-rule="evenodd" transform="translate(-1314.000000, -931.000000)">
        <g id="icon-instagram" transform="translate(1314.000000, 931.000000)">
            <rect id="Background-Copy-4" stroke="#FFFFFF" x="0.5" y="0.5" width="34" height="32" rx="2"></rect>
            <g id="Neon_Line_Social_Circles-Instagram_21" transform="translate(8.000000, 7.000000)" fill="#EFF0F5" fill-rule="nonzero">
                <path d="M12.8,11.6 C12.8,10.0559401 11.5440599,8.8 10,8.8 C8.45594013,8.8 7.2,10.0559401 7.2,11.6 C7.2,13.1440599 8.45594013,14.4 10,14.4 C11.5440599,14.4 12.8,13.1440599 12.8,11.6 Z M8.07352666,11.6 C8.07352666,10.5374493 8.93788587,9.67309012 10.0004365,9.67309012 C11.0629872,9.67309012 11.9273464,10.5374493 11.9273464,11.6 C11.9273464,12.6625507 11.0629872,13.5269099 10.0004365,13.5269099 C8.93788587,13.5269099 8.07352666,12.6625507 8.07352666,11.6 Z" id="Shape"></path>
                <path d="M15.8836241,0 L4.11637586,0 C1.84688651,0 0,1.84648631 0,4.11597567 L0,15.8836241 C0,18.1535137 1.84648631,20 4.11637586,20 L15.8836241,20 C18.1531135,20 20,18.1535137 20,15.8836241 L20,4.11637586 C20,1.84648631 18.1535137,0 15.8836241,0 Z M19.1996158,15.8836241 C19.1996158,17.7121018 17.7121018,19.1996158 15.8836241,19.1996158 L4.11637586,19.1996158 C2.28789819,19.1996158 0.800384184,17.7121018 0.800384184,15.8836241 L0.800384184,4.11637586 C0.800384184,2.28829838 2.28789819,0.800784377 4.11637586,0.800784377 L15.8836241,0.800784377 C17.7121018,0.800784377 19.1996158,2.28829838 19.1996158,4.11637586 L19.1996158,15.8836241 Z" id="Shape"></path>
                <path d="M15.5743111,3.2 L14.8256889,3.2 C14.1497521,3.2 13.6,3.74987891 13.6,4.42560258 L13.6,5.17439742 C13.6,5.85049014 14.1497521,6.4 14.8256889,6.4 L15.5743111,6.4 C16.2502479,6.4 16.8,5.85012109 16.8,5.17439742 L16.8,4.42560258 C16.8,3.74987891 16.2502479,3.2 15.5743111,3.2 Z M16.0620777,5.17476646 C16.0620777,5.44380118 15.8432838,5.66227655 15.5743111,5.66227655 L14.8256889,5.66227655 C14.5567162,5.66227655 14.3379223,5.44343213 14.3379223,5.17476646 L14.3379223,4.42597163 C14.3379223,4.15693692 14.5567162,3.93846154 14.8256889,3.93846154 L15.5743111,3.93846154 C15.8432838,3.93846154 16.0620777,4.15730596 16.0620777,4.42597163 L16.0620777,5.17476646 Z" id="Shape"></path>
            </g>
        </g>
    </g>
</svg>