<?xml version="1.0" encoding="UTF-8"?>
<svg width="193px" height="172px" viewBox="0 0 193 172" version="1.1" xmlns="http://www.w3.org/2000/svg" xmlns:xlink="http://www.w3.org/1999/xlink">
    <!-- Generator: Sketch 48.1 (47250) - http://www.bohemiancoding.com/sketch -->
    <title>logo</title>
    <desc>Created with Sketch.</desc>
    <defs></defs>
    <g id="Industrial" stroke="none" stroke-width="1" fill="none" fill-rule="evenodd" transform="translate(-76.000000, 0.000000)">
        <g id="logo" transform="translate(76.000000, -2.000000)">
            <g id="Group-10" fill="#190927">
                <rect id="Rectangle-6" x="0" y="0" width="193" height="174"></rect>
            </g>
            <g id="Group-11" transform="translate(17.000000, 101.000000)" fill="#FFFFFF">
                <g id="isotipo">
                    <path d="M15.8593458,44.6215829 C12.4091114,35.9889902 11.1925619,27.0514593 11.1925619,17.8309561 C11.1925619,13.856423 11.4408885,9.87413731 12.0830259,5.95387292 L15.3752344,5.95387292 C14.5800877,9.6829049 14.3330153,13.506261 14.3330153,17.3141117 C14.3330153,25.3161544 15.2962214,33.8247045 17.5449566,41.533438 C19.7911834,33.8247045 20.7556437,25.3161544 20.7556437,17.3141117 C20.7556437,13.506261 20.5085713,9.6829049 19.7134246,5.95387292 L23.0043789,5.95387292 C23.6490247,9.87413731 23.8935887,13.856423 23.8935887,17.8309561 C23.8935887,27.0514593 22.6795477,35.9889902 19.2293132,44.6215829 L15.8593458,44.6215829 Z" id="Fill-1"></path>
                    <g id="left" transform="translate(0.377895, 0.043758)">
                        <path d="M5.42359672,15.4258657 C5.12635733,15.1480618 4.66482105,15.1700277 4.39266515,15.4775501 C4.12050925,15.7850725 4.14308439,16.2605693 4.43906961,16.5409574 C4.73881736,16.8213454 5.20035363,16.7980874 5.47250953,16.4918571 C5.74341126,16.1830426 5.72209029,15.7075458 5.42359672,15.4258657" id="circle-15"></path>
                        <path d="M5.42359672,17.7639403 C5.12635733,17.4848443 4.66482105,17.5081023 4.39266515,17.8156247 C4.12050925,18.1231471 4.14308439,18.5986439 4.43906961,18.879032 C4.73881736,19.15942 5.20035363,19.136162 5.47250953,18.8299318 C5.74341126,18.5211173 5.72209029,18.0456205 5.42359672,17.7639403" id="circle-14"></path>
                        <path d="M3.87782645,19.5882716 C3.57933288,19.3078836 3.11905078,19.3311416 2.84689488,19.638664 C2.5734848,19.9474785 2.59605995,20.4216832 2.89329934,20.7020712 C3.19179291,20.9824593 3.65207501,20.9604934 3.92673926,20.652971 C4.19638682,20.3454486 4.17632002,19.8686597 3.87782645,19.5882716" id="circle-13"></path>
                        <path d="M5.88412966,25.687035 C5.58689026,25.407939 5.12535399,25.4299049 4.85319809,25.7374273 C4.58104218,26.0449497 4.60361733,26.5217386 4.89960255,26.8021267 C5.19935029,27.0812226 5.66088657,27.0592567 5.93304247,26.7517343 C6.2039442,26.4442119 6.18262323,25.967423 5.88412966,25.687035" id="circle-12"></path>
                        <path d="M5.96251557,28.0541821 C5.65148026,27.7905915 5.19119816,27.8371075 4.93534653,28.1588431 C4.67824072,28.4805787 4.72339101,28.9547834 5.03442632,29.218374 C5.34796999,29.4832567 5.80574374,29.4354486 6.06284955,29.1150051 C6.317447,28.7932695 6.27355089,28.3190648 5.96251557,28.0541821" id="circle-11"></path>
                        <path d="M4.48296573,29.9510009 C4.16942206,29.6925787 3.70913996,29.7468473 3.45830503,30.0711672 C3.20621592,30.3980712 3.25763708,30.8696917 3.57118075,31.129406 C3.88848694,31.3891203 4.34876904,31.3348516 4.59960397,31.0092397 C4.8504389,30.6836277 4.79901774,30.2107151 4.48296573,29.9510009" id="circle-10"></path>
                        <path d="M4.33597646,24.2296631 C4.03873706,23.9505672 3.57720078,23.9738252 3.30504488,24.2813475 C3.03288898,24.590162 3.05546413,25.0643667 3.35270352,25.3447548 C3.65119709,25.6251429 4.11273337,25.6018849 4.38488927,25.2943625 C4.65704517,24.9868401 4.63447002,24.5113433 4.33597646,24.2296631" id="circle-9"></path>
                        <path d="M7.37835335,35.8510375 C7.04850541,35.6094128 6.59449419,35.6895237 6.35996352,36.0293488 C6.12417869,36.3665898 6.20193752,36.8369181 6.5292771,37.079835 C6.85912504,37.3201676 7.31439044,37.2400567 7.55017528,36.9015237 C7.78219759,36.5642827 7.70694711,36.0926623 7.37835335,35.8510375" id="circle-8"></path>
                        <path d="M7.54979903,38.4687249 C7.21368022,38.2374371 6.76092316,38.3317612 6.53517172,38.6767548 C6.31067446,39.0217484 6.40097504,39.4894925 6.73709385,39.7207804 C7.07195848,39.9520682 7.52471553,39.8590362 7.75046697,39.5127505 C7.97371006,39.1677569 7.88591784,38.7000128 7.54979903,38.4687249" id="circle-7"></path>
                        <path d="M5.65386319,34.5801173 C5.32526943,34.3384925 4.87000403,34.4198955 4.63547336,34.7584286 C4.40219688,35.0982537 4.47870153,35.56729 4.80854947,35.8076226 C5.13714323,36.0492473 5.59240863,35.9691365 5.82819347,35.6306034 C6.06021578,35.2907783 5.9849653,34.8204499 5.65386319,34.5801173" id="circle-6"></path>
                        <path d="M2.12160567,11.8946559 C1.94476704,11.5212358 1.50956844,11.3648904 1.14585779,11.547078 C0.782147133,11.7279736 0.630391999,12.1789203 0.805976452,12.5523403 C0.982815079,12.9270525 1.41801369,13.0833979 1.78297851,12.9012102 C2.14668917,12.7190226 2.2984443,12.2680759 2.12160567,11.8946559" id="circle-5"></path>
                        <path d="M1.52135768,9.55141279 C1.50003671,9.1366452 1.1589012,8.81749382 0.75505696,8.83687548 C0.351212719,8.85754925 0.0401774031,9.21029552 0.0614983724,9.62506311 C0.081565167,10.0424149 0.42395485,10.3602742 0.825290742,10.3408925 C1.23038916,10.3189267 1.54142447,9.96747249 1.52135768,9.55141279" id="circle-4"></path>
                        <path d="M1.60965158,6.87196247 C1.68615623,6.46365544 1.4252879,6.07085373 1.02646036,5.99203497 C0.630141164,5.91580043 0.247617892,6.18326738 0.173621587,6.59157441 C0.0983711075,7.00117356 0.357985262,7.39268316 0.75555863,7.47150192 C1.153132,7.54773646 1.53314692,7.28026951 1.60965158,6.87196247" id="circle-3"></path>
                        <path d="M2.41671297,4.47070362 C2.61988927,4.11278891 2.50325102,3.65150533 2.15333629,3.44089126 C1.80592991,3.2315693 1.35693538,3.35173561 1.15375909,3.70965032 C0.95058279,4.07014925 1.06847521,4.52884861 1.41588159,4.73946269 C1.76328797,4.95007676 2.21102833,4.82991045 2.41671297,4.47070362" id="circle-2"></path>
                        <path d="M3.59864717,13.6831957 C3.3001536,13.4040998 2.8398715,13.4260657 2.56520725,13.7335881 C2.29305135,14.0411104 2.31562649,14.5166072 2.61412006,14.7969953 C2.91261363,15.0773834 3.37289573,15.0541254 3.64505163,14.7478951 C3.91720754,14.4390806 3.89588657,13.9635838 3.59864717,13.6831957" id="circle-1"></path>
                        <path d="M6.52338248,2.24504264 C6.7554048,1.98403625 7.14796146,1.9659467 7.40255892,2.2036951 C7.6559022,2.4414435 7.67471482,2.84716631 7.44143834,3.10946482 C7.2106702,3.37047122 6.81685935,3.38985288 6.5622619,3.15081237 C6.30891862,2.91177186 6.290106,2.50734115 6.52338248,2.24504264 M12.4004449,35.7533539 L8.22655167,32.7233539 C7.89294121,32.4481343 7.8390117,31.9467953 8.10615091,31.6043859 L10.8966895,28.2397292 C11.4736099,27.5872132 11.4284596,26.5780746 10.7951014,25.9824115 L7.2997166,22.7030341 C6.98617293,22.4071407 6.96359779,21.9032175 7.25080379,21.5788977 L10.4364074,17.9803689 C11.0133278,17.329145 10.9694317,16.3187143 10.3360735,15.7243433 L5.70942313,11.3686375 C5.0773191,10.7755586 5.09111502,9.81035181 5.60783498,9.11390405 L10.4251199,2.48795949 C10.8979437,1.84965672 10.8690977,1.10281663 10.3410902,0.607938166 C10.0777135,0.359852878 9.55848516,0.0717121535 8.60782077,0.176373134 C4.06394597,0.680296375 1.01630154,4.78404051 1.51922558,9.52996375 C1.77006051,11.9126162 2.59405327,12.7692857 3.04806449,13.1943902 L6.53216171,16.4711834 C6.84821372,16.7683689 6.87078886,17.271 6.58232869,17.5953198 L3.39797923,21.1938486 C2.82231306,21.8463646 2.86620917,22.8555032 3.4983132,23.4498742 L6.99244381,26.7318358 C7.30849582,27.0277292 7.33107097,27.5316525 7.04261079,27.8559723 L4.23827625,31.476467 C3.70399784,32.165162 3.81185686,33.1691322 4.48033196,33.7208635 L8.66049611,36.7935032 C8.99786909,37.0648465 9.0568153,37.5648934 8.79218445,37.9111791 L6.99118963,40.684049 C6.49328229,41.4011706 6.65381665,42.3986802 7.34862941,42.9129403 C8.04469635,43.4259083 9.01291919,43.2618102 9.5120807,42.5433966 L12.6638216,37.9951663 C13.190575,37.3000107 13.0739367,36.2986247 12.4004449,35.7533539" id="Fill-63"></path>
                    </g>
                    <g id="right" transform="translate(21.567559, 0.043758)">
                        <path d="M7.74230829,15.4258657 C8.04080185,15.1480618 8.50108396,15.1700277 8.77449403,15.4775501 C9.04664993,15.7850725 9.02407479,16.2605693 8.72683539,16.5409574 C8.42834183,16.8213454 7.96680555,16.7980874 7.69339547,16.4918571 C7.42374792,16.1830426 7.44381472,15.7075458 7.74230829,15.4258657" id="circle-30"></path>
                        <path d="M7.74230829,17.7639403 C8.04080185,17.4848443 8.50108396,17.5081023 8.77449403,17.8156247 C9.04664993,18.1231471 9.02407479,18.5986439 8.72683539,18.879032 C8.42834183,19.15942 7.96680555,19.136162 7.69339547,18.8299318 C7.42374792,18.5211173 7.44381472,18.0456205 7.74230829,17.7639403" id="circle-29"></path>
                        <path d="M9.28795314,19.5882716 C9.58644671,19.3078836 10.0467288,19.3311416 10.3201389,19.638664 C10.5922948,19.9474785 10.5709738,20.4216832 10.2724802,20.7020712 C9.97398668,20.9824593 9.51370458,20.9604934 9.2402945,20.652971 C8.96939277,20.3454486 8.99071374,19.8686597 9.28795314,19.5882716" id="circle-28"></path>
                        <path d="M7.28177535,25.687035 C7.58026892,25.407939 8.04055102,25.4299049 8.31270692,25.7374273 C8.586117,26.0449497 8.56354185,26.5217386 8.26630246,26.8021267 C7.96780889,27.0812226 7.50627261,27.0592567 7.23286254,26.7517343 C6.96321499,26.4442119 6.98328178,25.967423 7.28177535,25.687035" id="circle-27"></path>
                        <path d="M7.20338943,28.0541821 C7.51567892,27.7905915 7.97470685,27.8371075 8.23181266,28.1588431 C8.48766429,28.4805787 8.44376817,28.9547834 8.13147868,29.218374 C7.81918919,29.4832567 7.36016127,29.4354486 7.10305546,29.1150051 C6.848458,28.7932695 6.89235412,28.3190648 7.20338943,28.0541821" id="circle-26"></path>
                        <path d="M8.68293928,29.9510009 C8.99773712,29.6925787 9.45676505,29.7468473 9.70885416,30.0711672 C9.96094326,30.3980712 9.9095221,30.8696917 9.59472426,31.129406 C9.27867225,31.3891203 8.81839015,31.3348516 8.56755521,31.0092397 C8.31546611,30.6836277 8.36688727,30.2107151 8.68293928,29.9510009" id="circle-25"></path>
                        <path d="M8.82992855,24.2296631 C9.12842212,23.9505672 9.58870422,23.9738252 9.86086012,24.2813475 C10.133016,24.590162 10.1116951,25.0643667 9.81320149,25.3447548 C9.51470792,25.6251429 9.05317164,25.6018849 8.78101574,25.2943625 C8.51136819,24.9868401 8.53143498,24.5113433 8.82992855,24.2296631" id="circle-24"></path>
                        <path d="M5.78880583,35.8510375 C6.11739959,35.6094128 6.57141082,35.6895237 6.80719566,36.0293488 C7.04172632,36.3665898 6.96522166,36.8369181 6.6366279,37.079835 C6.30677997,37.3201676 5.85151456,37.2400567 5.61572973,36.9015237 C5.38496159,36.5642827 5.4589579,36.0926623 5.78880583,35.8510375" id="circle-23"></path>
                        <path d="M5.61610598,38.4687249 C5.95347896,38.2374371 6.40498184,38.3317612 6.63073328,38.6767548 C6.85523055,39.0217484 6.76492997,39.4894925 6.42881116,39.7207804 C6.09394653,39.9520682 5.64118947,39.8590362 5.41669221,39.5127505 C5.19219495,39.1677569 5.27998717,38.7000128 5.61610598,38.4687249" id="circle-22"></path>
                        <path d="M7.51204182,34.5801173 C7.84063558,34.3384925 8.29590098,34.4198955 8.53043164,34.7584286 C8.76370813,35.0982537 8.68720348,35.56729 8.35735554,35.8076226 C8.02876178,36.0492473 7.57349638,35.9691365 7.33771154,35.6306034 C7.1069434,35.2907783 7.18219388,34.8204499 7.51204182,34.5801173" id="circle-21"></path>
                        <path d="M11.0442993,11.8946559 C11.221138,11.5212358 11.6575907,11.3648904 12.0213014,11.547078 C12.3837579,11.7279736 12.5367672,12.1789203 12.3599286,12.5523403 C12.1830899,12.9270525 11.7478913,13.0833979 11.3841807,12.9012102 C11.0192158,12.7190226 10.8674607,12.2680759 11.0442993,11.8946559" id="circle-20"></path>
                        <path d="M11.6444219,9.55141279 C11.6657429,9.1366452 12.0068784,8.81749382 12.4107226,8.83687548 C12.815821,8.85754925 13.1268564,9.21029552 13.1055354,9.62506311 C13.0854686,10.0424149 12.7430789,10.3602742 12.3404888,10.3408925 C11.9366446,10.3189267 11.6256093,9.96747249 11.6444219,9.55141279" id="circle-19"></path>
                        <path d="M11.5562534,6.87196247 C11.4797488,6.46365544 11.7418713,6.07085373 12.1394446,5.99203497 C12.5357638,5.91580043 12.9182871,6.18326738 12.9935376,6.59157441 C13.0687881,7.00117356 12.8079197,7.39268316 12.4116006,7.47150192 C12.0140272,7.54773646 11.6327581,7.28026951 11.5562534,6.87196247" id="circle-18"></path>
                        <path d="M10.7503208,4.47070362 C10.5471445,4.11278891 10.6650369,3.65150533 11.0124433,3.44089126 C11.3598497,3.2315693 11.8088442,3.35173561 12.0120205,3.70965032 C12.216451,4.07014925 12.0985586,4.52884861 11.749898,4.73946269 C11.4024916,4.95007676 10.9547513,4.82991045 10.7503208,4.47070362" id="circle-17"></path>
                        <path d="M9.56851201,13.6831957 C9.86700558,13.4040998 10.3285419,13.4260657 10.6006978,13.7335881 C10.8728537,14.0411104 10.8502785,14.5166072 10.5517849,14.7969953 C10.2545456,15.0773834 9.79300927,15.0541254 9.52085337,14.7478951 C9.24869747,14.4390806 9.27127262,13.9635838 9.56851201,13.6831957" id="circle-16"></path>
                        <path d="M6.60326686,3.15081237 C6.3486694,3.38985288 5.95485856,3.37047122 5.72409042,3.10946482 C5.49081393,2.84716631 5.51088073,2.4414435 5.76422401,2.2036951 C6.01756729,1.9659467 6.41263231,1.98403625 6.64340045,2.24504264 C6.87542276,2.50734115 6.85661014,2.91177186 6.60326686,3.15081237 M4.55896216,0.176373134 C3.60704359,0.0717121535 3.08781528,0.359852878 2.82569278,0.607938166 C2.29643107,1.10281663 2.26758505,1.84965672 2.74166307,2.48795949 L7.55894795,9.11390405 C8.07441374,9.81035181 8.09071801,10.7755586 7.45861398,11.3686375 L2.8294553,15.7243433 C2.1960971,16.3187143 2.15094681,17.329145 2.72786715,17.981661 L5.91597914,21.5788977 C6.20443931,21.9032175 6.18061,22.4084328 5.86581216,22.7030341 L2.37042737,25.9824115 C1.73706917,26.5780746 1.69191888,27.5872132 2.2700934,28.2397292 L5.06063202,31.6043859 C5.32651705,31.9467953 5.27258754,32.4481343 4.93897708,32.7233539 L0.766337981,35.7533539 C0.0928461873,36.2986247 -0.0250462309,37.3000107 0.502961302,37.9951663 L3.65344805,42.5446887 C4.15386374,43.2618102 5.12083241,43.4259083 5.81689934,42.9129403 C6.51296628,42.3986802 6.67475481,41.4011706 6.17433912,40.684049 L4.37459848,37.9111791 C4.10996763,37.5648934 4.16891384,37.0648465 4.50628682,36.7935032 L8.6851968,33.7208635 C9.35367189,33.1691322 9.46153091,32.165162 8.92850668,31.476467 L6.12291796,27.8559723 C5.83696614,27.5316525 5.85828711,27.0277292 6.17433912,26.7318358 L9.66721556,23.4498742 C10.2993196,22.8555032 10.3432157,21.8463646 9.76754953,21.1938486 L6.58320006,17.5953198 C6.29599407,17.271 6.31856921,16.7683689 6.63336705,16.4724755 L10.1187184,13.1943902 C10.5714755,12.7692857 11.3967224,11.9126162 11.6488115,9.52996375 C12.1504814,4.78404051 9.10158278,0.680296375 4.55896216,0.176373134" id="Fill-66"></path>
                    </g>
                </g>
                <path d="M128.825471,16.6770494 L128.825471,8.37115271 L131.077473,8.37115271 C131.685236,8.37115271 132.218605,8.43977508 132.657405,8.53558745 C133.101248,8.64693696 133.494655,8.80748742 133.804841,9.03018645 C134.326862,9.38883545 134.734139,9.89120302 135.029194,10.5010358 C135.330554,11.1134581 135.469255,11.7906185 135.469255,12.5312223 C135.469255,13.2575836 135.330554,13.9321545 135.029194,14.565293 C134.734139,15.1777153 134.326862,15.6619562 133.804841,16.0335528 C133.494655,16.2575466 133.101248,16.4193918 132.657405,16.5320361 C132.218605,16.6278485 131.685236,16.6770494 131.077473,16.6770494 L128.825471,16.6770494 Z M133.068465,17.1392794 C133.591746,16.9968556 134.041894,16.7728618 134.431518,16.4634137 C135.019107,16.0141314 135.469255,15.4522048 135.795833,14.7582125 C136.129977,14.0655149 136.287592,13.304195 136.287592,12.5156851 C136.287592,11.7245857 136.129977,10.9826872 135.795833,10.2731577 C135.469255,9.58175496 135.019107,9.01723883 134.431518,8.5679565 C134.041894,8.2598032 133.591746,8.03321989 133.082335,7.89079609 C132.579228,7.76390944 131.985335,7.67974993 131.262828,7.67974993 L128.044961,7.67974993 L128.044961,17.3658627 L131.262828,17.3658627 C131.967682,17.3658627 132.56914,17.2855875 133.068465,17.1392794 L133.068465,17.1392794 Z M119.577887,13.5126517 L121.29526,9.32539213 L122.989935,13.5126517 L119.577887,13.5126517 Z M121.135123,8.04875703 L117.257796,17.3658627 L118.011825,17.3658627 L119.332008,14.1432007 L123.234554,14.1432007 L124.55978,17.3658627 L125.31381,17.3658627 L121.435222,8.04875703 L121.135123,8.04875703 Z M108.388488,16.6770494 L108.388488,8.37115271 L110.632925,8.37115271 C111.244471,8.37115271 111.776579,8.43977508 112.212857,8.53558745 C112.660483,8.64693696 113.048846,8.80748742 113.362815,9.03018645 C113.883575,9.38883545 114.290852,9.89120302 114.593473,10.5010358 C114.886006,11.1134581 115.027229,11.7906185 115.027229,12.5312223 C115.027229,13.2575836 114.886006,13.9321545 114.593473,14.565293 C114.290852,15.1777153 113.883575,15.6619562 113.362815,16.0335528 C113.048846,16.2575466 112.660483,16.4193918 112.212857,16.5320361 C111.776579,16.6278485 111.244471,16.6770494 110.632925,16.6770494 L108.388488,16.6770494 Z M112.625177,17.1392794 C113.142154,16.9968556 113.583476,16.7728618 113.993275,16.4634137 C114.57582,16.0141314 115.027229,15.4522048 115.358851,14.7582125 C115.689212,14.0655149 115.841783,13.304195 115.841783,12.5156851 C115.841783,11.7245857 115.689212,10.9826872 115.358851,10.2731577 C115.027229,9.58175496 114.57582,9.01723883 113.993275,8.5679565 C113.583476,8.2598032 113.142154,8.03321989 112.637787,7.89079609 C112.140984,7.76390944 111.54457,7.67974993 110.823324,7.67974993 L107.587804,7.67974993 L107.587804,17.3658627 L110.823324,17.3658627 C111.526917,17.3658627 112.122071,17.2855875 112.625177,17.1392794 L112.625177,17.1392794 Z M103.3032,17.3671574 L104.09884,17.3671574 L104.09884,7.67974993 L103.3032,7.67974993 L103.3032,17.3671574 Z M100.297168,14.8514353 C100.297168,14.5316292 100.241688,14.2260654 100.14964,13.9321545 C100.036158,13.6434226 99.8835865,13.3844703 99.6894049,13.1617712 C99.3930888,12.8225437 98.8067613,12.4703685 97.9606843,12.1130142 C97.8686372,12.0664028 97.8068521,12.0456866 97.7601981,12.0133175 C96.9872545,11.6766795 96.4891913,11.3879476 96.2685304,11.1134581 C96.0314775,10.8583901 95.9205166,10.5010358 95.9205166,10.0828278 C95.9205166,9.56362829 96.0907408,9.1298831 96.4526246,8.77511838 C96.8145085,8.43977508 97.2709614,8.2598032 97.8320705,8.2598032 C98.1788234,8.2598032 98.5280981,8.32324652 98.8710681,8.45013318 C99.2379957,8.57960935 99.5948359,8.79324504 99.9882428,9.06514501 L99.9882428,8.19635987 C99.6276198,7.9853137 99.2821279,7.82476324 98.935375,7.71211897 C98.5898831,7.61889612 98.2305211,7.54897899 97.8686372,7.54897899 C97.0666924,7.54897899 96.4236235,7.7923942 95.9205166,8.2766351 C95.4161489,8.75958124 95.1677477,9.37459307 95.1677477,10.1100178 C95.1677477,10.7237348 95.3253627,11.2273972 95.6569845,11.6145309 C95.9848235,12.0003699 96.5951085,12.3887985 97.4916223,12.7681637 C98.356613,13.1449393 98.905113,13.467335 99.1434267,13.739235 C99.3930888,14.0305564 99.4977451,14.3879106 99.4977451,14.8229506 C99.4977451,15.418541 99.3313037,15.8833605 98.9656371,16.2368304 C98.6251889,16.5786475 98.1334303,16.7560299 97.5244062,16.7560299 C97.1625223,16.7560299 96.7665936,16.657628 96.3908396,16.4931933 C95.9848235,16.3222847 95.5762856,16.0620376 95.1374857,15.7072729 L95.1374857,16.6407961 C95.5447626,16.934707 95.9356477,17.1392794 96.3315764,17.2855875 C96.7363315,17.4267165 97.1322602,17.4953389 97.5395372,17.4953389 C98.3440038,17.4953389 98.998421,17.2596922 99.5179198,16.7560299 C100.036158,16.2575466 100.297168,15.6269976 100.297168,14.8514353 L100.297168,14.8514353 Z M86.9276391,8.34266795 L88.494962,8.34266795 C89.199816,8.34266795 89.7344458,8.48509174 90.1278527,8.80748742 C90.5036067,9.11564072 90.6902228,9.54938591 90.6902228,10.1100178 C90.6902228,10.5178677 90.6158285,10.8687482 90.4443435,11.1484167 C90.2690757,11.4397381 90.0181527,11.6469 89.6701389,11.8009766 C89.4860447,11.8864309 89.2628619,11.951169 88.9816769,12.0003699 C88.6929264,12.0288547 88.2074724,12.0456866 87.5076621,12.0456866 L86.9276391,12.0456866 L86.9276391,8.34266795 Z M86.9276391,12.7086046 L87.6867126,12.7086046 C88.2276471,12.7086046 88.6260976,12.7565108 88.887108,12.8225437 C89.1556838,12.8833975 89.3750838,13.0180527 89.5516125,13.1915508 C89.6701389,13.3223217 89.8302757,13.5307783 90.0471538,13.8376369 C90.2526837,14.1289583 90.5187377,14.5147973 90.8011837,14.9860906 L92.2928514,17.3658627 L93.1389283,17.3658627 L90.5641308,13.2912474 C90.4556917,13.113865 90.3283389,12.9507251 90.2072906,12.8225437 C90.0648067,12.6930675 89.9059309,12.5791284 89.7344458,12.4703685 C90.3283389,12.2735647 90.7759653,11.9809485 91.0697595,11.5795724 C91.3698583,11.1898491 91.5098204,10.6926606 91.5098204,10.1100178 C91.5098204,9.32539213 91.2563756,8.72591743 90.7255285,8.30770938 C90.1871159,7.89079609 89.4368688,7.67974993 88.4508298,7.67974993 L86.1862185,7.67974993 L86.1862185,17.3658627 L86.9276391,17.3658627 L86.9276391,12.7086046 Z M82.8586521,16.7042394 L78.4479558,16.7042394 L78.4479558,12.7681637 L82.6064682,12.7681637 L82.6064682,12.1479728 L78.4479558,12.1479728 L78.4479558,8.30770938 L82.750213,8.30770938 L82.750213,7.67974993 L77.6926651,7.67974993 L77.6926651,17.3658627 L82.8586521,17.3658627 L82.8586521,16.7042394 Z M71.4927242,17.5264131 L75.4507503,7.67974993 L74.6488055,7.67974993 L71.4284173,15.8082643 L68.2458566,7.67974993 L67.409867,7.67974993 L71.3805023,17.5264131 L71.4927242,17.5264131 Z M63.9108155,17.3658627 L64.7127603,17.3658627 L64.7127603,7.67974993 L63.9108155,7.67974993 L63.9108155,17.3658627 Z M52.8865968,8.66376887 L59.7951744,17.2221441 L60.4874192,17.2221441 L60.4874192,7.54897899 L59.7434767,7.54897899 L59.7434767,15.9778781 L52.9181198,7.54897899 L52.1338279,7.54897899 L52.1338279,17.2221441 L52.8865968,17.2221441 L52.8865968,8.66376887 Z M44.3615204,18.222995 C45.7107042,18.222995 46.7812248,17.7840707 47.5718213,16.9191699 C48.3485477,16.0477952 48.7596074,14.869562 48.7596074,13.4013022 L48.7596074,7 L47.8605718,7 L47.8605718,13.4517979 C47.8605718,14.6274416 47.545342,15.5609648 46.9262305,16.2575466 C46.2781179,16.9489494 45.4295191,17.3063036 44.3615204,17.3063036 C43.2947825,17.3063036 42.4449228,16.9489494 41.8169849,16.2575466 C41.173916,15.5609648 40.8561643,14.6274416 40.8561643,13.4517979 L40.8561643,7 L40,7 L40,13.4013022 C40,14.8838044 40.3871023,16.0620376 41.173916,16.9191699 C41.9594688,17.7840707 43.0287285,18.222995 44.3615204,18.222995 L44.3615204,18.222995 Z M93.5020731,32.8900562 C93.2360191,33.5219 92.8766571,34.0864161 92.3874203,34.5732465 C91.8855744,35.070435 91.3181606,35.4614531 90.7078756,35.6983945 C90.0648067,35.9534626 89.4040849,36.0855283 88.6803172,36.0855283 C87.9767241,36.0855283 87.3160023,35.9534626 86.6691506,35.6983945 C86.0298645,35.4251998 85.4813645,35.0510136 84.9959105,34.5732465 C84.5091956,34.0864161 84.1296589,33.5219 83.8787359,32.8900562 C83.6126819,32.2672758 83.48659,31.6186002 83.48659,30.9103655 C83.48659,30.2189627 83.6126819,29.5547499 83.8787359,28.9099586 C84.1460508,28.2819991 84.5091956,27.7356096 84.9959105,27.2513687 C85.5091047,26.7645383 86.0803013,26.3812888 86.7158047,26.1067993 C87.3462644,25.8452575 88.0057253,25.7170761 88.6803172,25.7170761 C89.3902148,25.7170761 90.0471538,25.8452575 90.6738308,26.1067993 C91.3055515,26.3618674 91.8666606,26.7502959 92.3596801,27.2513687 C92.8766571,27.7653892 93.253672,28.3286105 93.5172042,28.9591595 C93.7656053,29.5702871 93.8929582,30.2189627 93.8929582,30.9103655 C93.8929582,31.6186002 93.7656053,32.2672758 93.5020731,32.8900562 L93.5020731,32.8900562 Z M94.4767639,25.2807413 C93.7063421,24.5284848 92.8262203,23.9626739 91.8414422,23.560003 C90.8339676,23.1715744 89.7861435,22.9644125 88.6803172,22.9644125 C87.5997092,22.9644125 86.5670162,23.1715744 85.5746726,23.560003 C84.5848508,23.945842 83.6883371,24.5284848 82.9254808,25.2807413 C82.1537981,26.0083975 81.5586441,26.864235 81.1311924,27.8340115 C80.7239154,28.7986091 80.5057764,29.8137023 80.5057764,30.8443326 C80.5057764,31.9254587 80.7087844,32.9742157 81.1160614,33.9414028 C81.5233384,34.9085898 82.123536,35.7799645 82.9254808,36.5516425 C83.673206,37.2767091 84.5558496,37.8619414 85.5595415,38.260728 C86.5481024,38.6478618 87.5997092,38.8537289 88.6803172,38.8537289 C89.7861435,38.8537289 90.8339676,38.6621042 91.8225284,38.2749704 C92.8123502,37.8774785 93.6899501,37.3116677 94.4931558,36.5516425 C95.2648385,35.809744 95.8448615,34.9526117 96.2685304,34.0061409 C96.6783292,33.0402486 96.8788154,32.0212711 96.8788154,30.9712193 C96.8788154,29.8616085 96.6783292,28.8296833 96.2824005,27.8819177 C95.8688189,26.9108464 95.2648385,26.0394717 94.4767639,25.2807413 L94.4767639,25.2807413 Z M143.380264,35.9910107 L143.380264,32.1649896 L150.539764,32.1649896 L150.539764,29.4926014 L143.380264,29.4926014 L143.380264,25.8167727 L150.762947,25.8167727 L150.762947,23.1586268 L140.354057,23.1586268 L140.354057,38.6478618 L151,38.6478618 L151,35.9910107 L143.380264,35.9910107 Z M135.765571,32.6673572 C135.75044,33.6643238 135.441515,34.407517 134.745487,34.9992231 C134.073417,35.5831607 133.160512,35.9120302 131.967682,35.9120302 C131.262828,35.9120302 130.652543,35.7799645 130.131783,35.5559707 C129.595892,35.3267979 129.143222,34.9720331 128.748554,34.5072137 C128.551851,34.2637985 128.404323,33.9763613 128.329929,33.6332495 C128.236621,33.2979062 128.183663,32.6505253 128.183663,31.7144125 L128.183663,23.0887097 L125.375595,23.0887097 L125.375595,31.7998668 C125.375595,32.9897529 125.452511,33.8766647 125.62904,34.5072137 C125.800525,35.1222255 126.079188,35.6841521 126.487726,36.1800459 C127.135839,37.0048091 127.918869,37.6172314 128.859515,38.0496819 C129.790074,38.4691847 130.836637,38.6802308 131.967682,38.6802308 C133.877975,38.6802308 135.485647,38.1338414 136.711261,37.0384729 C137.952006,35.9534626 138.579943,34.4748446 138.558508,32.7320953 L138.558508,23.0887097 L135.765571,23.0887097 L135.765571,32.6673572 Z M120.777022,32.8796981 C120.508446,33.5219 120.147823,34.103248 119.658586,34.5874889 L119.643455,34.6017313 C119.140348,35.1364679 118.575456,35.5184226 117.965171,35.7942069 C117.333451,36.0531592 116.677773,36.1929935 115.986789,36.1929935 C115.295805,36.1929935 114.647692,36.0531592 114.007145,35.7799645 C113.362815,35.4912326 112.815576,35.1028041 112.322557,34.6017313 L112.322557,34.5874889 C111.839625,34.103248 111.466393,33.5219 111.21547,32.8796981 C110.944372,32.2323173 110.823324,31.5577464 110.823324,30.8443326 C110.823324,30.1231503 110.944372,29.4434004 111.21547,28.7856614 C111.466393,28.1395753 111.839625,27.5750592 112.31373,27.0856392 C112.830707,26.5716188 113.391817,26.1857798 114.02732,25.9138798 C114.670389,25.6355061 115.312197,25.5112089 115.986789,25.5112089 C116.677773,25.5112089 117.333451,25.6355061 117.965171,25.9138798 C118.590587,26.1702427 119.140348,26.5586712 119.634629,27.0713969 C120.147823,27.6048387 120.521055,28.1823025 120.777022,28.8296833 C121.043076,29.4576428 121.167907,30.1231503 121.167907,30.8443326 C121.167907,31.5577464 121.043076,32.2323173 120.777022,32.8796981 L120.777022,32.8796981 Z M122.440174,36.1010654 C123.57248,34.7130808 124.137372,33.0739124 124.137372,31.2211083 C124.137372,30.0881918 123.928059,29.0213081 123.538435,28.0372891 C123.13368,27.0713969 122.533483,26.1857798 121.74793,25.3972699 C120.996422,24.6385395 120.112517,24.0416543 119.126478,23.6402782 C118.120264,23.2350178 117.087571,23.0291506 115.986789,23.0291506 C114.90492,23.0291506 113.867183,23.2350178 112.881144,23.6402782 C111.90141,24.0416543 111.02381,24.6217076 110.236996,25.3972699 C109.485488,26.1534108 108.887812,27.0247854 108.485579,28.0075096 C108.055605,29.0083605 107.850076,30.0195694 107.850076,31.0735055 C107.850076,32.9897529 108.41875,34.6962489 109.535925,36.1386135 C110.632925,37.5680305 112.101896,38.5183856 113.896184,38.9844999 C115.23402,39.9555712 116.488635,40.6974697 117.678943,41.2076058 C118.910861,41.7410476 120.026775,42 121.043076,42 L121.339392,42 C121.435222,42 121.513399,41.9909367 121.586532,41.9741048 L121.706319,41.9559781 L123.944451,39.9387393 L123.774227,39.4532036 L123.650657,39.1476398 L123.355602,39.2149674 C123.065591,39.2784108 122.81845,39.3107798 122.580137,39.3379698 C122.358215,39.3781074 122.158989,39.3781074 121.964808,39.3781074 C121.386046,39.3781074 120.777022,39.2913584 120.132692,39.1321027 C119.738024,39.0168689 119.284093,38.8537289 118.802422,38.6621042 C120.275176,38.1014723 121.513399,37.2611719 122.440174,36.1010654 L122.440174,36.1010654 Z M103.439379,29.5405075 L103.439379,29.5405075 L103.115323,29.3592409 C102.250332,28.8452205 101.618612,28.375222 101.211335,27.9751406 C101.007066,27.7653892 100.868365,27.5893016 100.790188,27.4313406 C100.691836,27.2707902 100.664096,27.1542616 100.664096,27.0584492 C100.677966,26.6700207 100.800275,26.4084788 101.147028,26.1534108 C101.496302,25.8957532 101.948973,25.7520346 102.561779,25.7520346 C103.081278,25.7520346 103.585646,25.8452575 104.09884,26.0563036 C104.620861,26.2828869 105.199623,26.6234093 105.827561,27.1231873 L106.437846,27.5893016 L106.437846,24.2514057 L106.255012,24.1374667 C105.658598,23.8021234 105.059661,23.5431711 104.460724,23.3657887 C103.864309,23.2039435 103.269155,23.1055416 102.651305,23.1055416 C101.293294,23.1055416 100.126944,23.4952649 99.2203428,24.2682376 C98.3238291,25.0425052 97.8522452,26.0886727 97.8522452,27.2953906 C97.8522452,28.1719444 98.090559,28.9436224 98.5734912,29.587119 C98.8445888,29.9276413 99.2379957,30.2798165 99.7701037,30.6824874 C100.318604,31.1071693 101.020936,31.5719888 101.872056,32.1093149 C102.407947,32.423942 102.839182,32.7165582 103.173325,32.9599734 C103.50873,33.2033886 103.742,33.4105505 103.852961,33.5374371 C104.08497,33.8274637 104.173234,34.1174904 104.198453,34.5072137 C104.173234,34.9720331 104.035794,35.2633545 103.692824,35.5352545 C103.363724,35.7942069 102.860617,35.9534626 102.170894,35.9534626 C101.529086,35.9534626 100.93015,35.809744 100.362736,35.505475 C99.8041485,35.2115641 99.1875589,34.6962489 98.5280981,33.9931933 L97.8686372,33.2603581 L97.8686372,37.1342853 L98.0312958,37.24434 C98.6516682,37.7441181 99.3098681,38.1157147 100.007157,38.3397085 C100.708228,38.5908923 101.47991,38.700947 102.305813,38.700947 C103.67391,38.700947 104.839,38.309929 105.735514,37.538251 C106.640854,36.7639834 107.112438,35.7294688 107.112438,34.5369932 C107.112438,33.5219 106.880428,32.6323986 106.377322,31.9086268 C105.875476,31.1680231 104.904568,30.4079979 103.439379,29.5405075 L103.439379,29.5405075 Z M75.9349434,35.315145 C75.5440583,35.6207088 74.8228124,35.8304602 73.7712056,35.809744 L71.1560587,35.809744 L71.1560587,31.6186002 L73.4030171,31.6186002 C74.5832377,31.6186002 75.4015744,31.8244673 75.8504618,32.1649896 C76.2980882,32.5119858 76.5313583,32.9742157 76.5313583,33.7640204 C76.5313583,34.5369932 76.3296112,34.9992231 75.9349434,35.315145 L75.9349434,35.315145 Z M71.1560587,24.7395309 L72.920085,24.7395309 C73.8468608,24.7395309 74.4546239,24.9104395 74.7862458,25.1888133 C74.9476434,25.3351213 75.0686917,25.4904927 75.1645216,25.733908 C75.2439595,25.961786 75.2931354,26.2531074 75.2931354,26.6065774 C75.2931354,27.3821397 75.0686917,27.8637911 74.6134998,28.2185558 C74.1772217,28.5538991 73.4030171,28.7688295 72.293408,28.7688295 L71.1560587,28.7688295 L71.1560587,24.7395309 Z M76.7331054,29.7153004 C77.1429042,29.4434004 77.5035272,29.1339524 77.7683203,28.7481133 C78.2134248,28.1253329 78.4113892,27.3471811 78.4113892,26.4628588 C78.4113892,25.0425052 77.9423271,23.8772196 76.9991594,23.0770568 C76.0585135,22.2704202 74.7736366,21.9027079 73.1533551,21.9027079 L68.1727232,21.9027079 L68.1727232,38.6802308 L74.0069975,38.6802308 C75.6840204,38.6802308 77.0609444,38.260728 78.1024639,37.4061853 C79.1376788,36.5516425 79.6924833,35.3630512 79.6735695,33.9245709 C79.6735695,32.8110758 79.3205121,31.8244673 78.6534857,31.0411364 C78.147857,30.4610832 77.5035272,30.0195694 76.7331054,29.7153004 L76.7331054,29.7153004 Z M55.2735173,23.0770568 L52.2460497,23.0770568 L52.2460497,38.6802308 L62.885688,38.6802308 L62.885688,36.0207902 L55.2735173,36.0207902 L55.2735173,23.0770568 Z M43.0728607,31.6393164 L50.1882291,31.6393164 L50.1882291,28.7986091 L43.0728607,28.7986091 L43.0728607,24.7188147 L50.3899763,24.7188147 L50.3899763,21.918245 L40.0592632,21.918245 L40.0592632,38.6802308 L50.6270291,38.6802308 L50.6270291,35.8421131 L43.0728607,35.8421131 L43.0728607,31.6393164 Z" id="Fill-69"></path>
            </g>
        </g>
    </g>
</svg>