<?xml version="1.0" encoding="UTF-8"?>
<svg width="74px" height="76px" viewBox="0 0 74 76" version="1.1" xmlns="http://www.w3.org/2000/svg" xmlns:xlink="http://www.w3.org/1999/xlink">
    <!-- Generator: Sketch 48.1 (47250) - http://www.bohemiancoding.com/sketch -->
    <title>logo UEB</title>
    <desc>Created with Sketch.</desc>
    <defs></defs>
    <g id="Repositorio" stroke="none" stroke-width="1" fill="none" fill-rule="evenodd" transform="translate(-70.000000, -29.000000)">
        <g id="logo-UEB" transform="translate(70.000000, 29.000000)">
            <rect id="Rectangle-6" fill="#190927" x="0" y="0" width="74" height="76"></rect>
            <g id="isotipo" transform="translate(21.000000, 17.000000)" fill="#FFFFFF">
                <path d="M14.4999733,41.6468107 C11.3454732,33.5897242 10.2331995,25.2480287 10.2331995,16.6422257 C10.2331995,12.9326615 10.4602409,9.21586149 11.047338,5.55694806 L14.0573572,5.55694806 C13.3303659,9.03737791 13.1044711,12.6058436 13.1044711,16.1598376 C13.1044711,23.6284107 13.9851167,31.5697242 16.0411032,38.7645421 C18.0947963,31.5697242 18.9765885,23.6284107 18.9765885,16.1598376 C18.9765885,12.6058436 18.7506938,9.03737791 18.0237025,5.55694806 L21.032575,5.55694806 C21.6219654,9.21586149 21.8455668,12.9326615 21.8455668,16.6422257 C21.8455668,25.2480287 20.7355864,33.5897242 17.5810863,41.6468107 L14.4999733,41.6468107 Z" id="Fill-1"></path>
                <g id="left" transform="translate(0.345504, 0.040841)">
                    <path d="M4.958717,14.3974746 C4.68695527,14.138191 4.26497925,14.1586925 4.01615099,14.4457134 C3.76732274,14.7327343 3.78796287,15.1765313 4.05857793,15.4382269 C4.33263301,15.6999224 4.75460904,15.6782149 5.00343729,15.3924 C5.25111887,15.1041731 5.23162541,14.6603761 4.958717,14.3974746" id="circle-15"></path>
                    <path d="M4.958717,16.5796776 C4.68695527,16.3191881 4.26497925,16.3408955 4.01615099,16.6279164 C3.76732274,16.9149373 3.78796287,17.3587343 4.05857793,17.6204299 C4.33263301,17.8821254 4.75460904,17.8604179 5.00343729,17.574603 C5.25111887,17.2863761 5.23162541,16.8425791 4.958717,16.5796776" id="circle-14"></path>
                    <path d="M3.54544133,18.2823869 C3.27253292,18.0206913 2.85170357,18.0423988 2.60287532,18.3294197 C2.35290039,18.6176466 2.37354052,19.0602376 2.64530226,19.3219331 C2.91821066,19.5836287 3.33904001,19.5631272 3.59016161,19.2761063 C3.83669652,18.9890854 3.81834973,18.5440824 3.54544133,18.2823869" id="circle-13"></path>
                    <path d="M5.37977569,23.974566 C5.10801395,23.7140764 4.68603793,23.7345779 4.43720968,24.0215988 C4.18838143,24.3086197 4.20902156,24.7536227 4.47963662,25.0153182 C4.7536917,25.2758078 5.17566772,25.2553063 5.42449597,24.9682854 C5.67217755,24.6812645 5.65268409,24.2362615 5.37977569,23.974566" id="circle-12"></path>
                    <path d="M5.45144281,26.1839033 C5.16706766,25.9378854 4.74623832,25.9813003 4.51231682,26.2815869 C4.27724866,26.5818734 4.31852892,27.0244645 4.60290407,27.2704824 C4.88957256,27.5177063 5.30810856,27.4730854 5.54317673,27.1740048 C5.77595155,26.8737182 5.73581796,26.4311272 5.45144281,26.1839033" id="circle-11"></path>
                    <path d="M4.09871152,27.9542675 C3.81204303,27.7130734 3.39121368,27.7637242 3.16187888,28.0664227 C2.93139741,28.3715331 2.97841105,28.8117122 3.26507954,29.0541122 C3.55518806,29.2965122 3.9760174,29.2458615 4.2053522,28.941957 C4.434687,28.6380525 4.38767336,28.1966675 4.09871152,27.9542675" id="circle-10"></path>
                    <path d="M3.96432133,22.6143522 C3.6925596,22.3538627 3.27058357,22.3755701 3.02175532,22.662591 C2.77292707,22.9508179 2.7935672,23.393409 3.06532893,23.6551045 C3.33823734,23.9168 3.76021336,23.8950925 4.00904162,23.6080716 C4.25786987,23.3210507 4.23722974,22.8772537 3.96432133,22.6143522" id="circle-9"></path>
                    <path d="M6.74592306,33.4609684 C6.44434781,33.2354519 6.02925183,33.3102221 5.81482379,33.6273922 C5.59924909,33.9421504 5.67034287,34.3811236 5.96962478,34.607846 C6.27120004,34.8321564 6.68744269,34.7573863 6.9030174,34.4414221 C7.11515208,34.1266639 7.04635164,33.6864848 6.74592306,33.4609684" id="circle-8"></path>
                    <path d="M6.9026734,35.9041433 C6.59536477,35.6882746 6.18141546,35.7763104 5.97501415,36.0983045 C5.76975951,36.4202985 5.85232003,36.8568597 6.15962866,37.0727284 C6.46579061,37.288597 6.87973992,37.2017672 7.08614123,36.8785672 C7.2902492,36.5565731 7.20998202,36.1200119 6.9026734,35.9041433" id="circle-7"></path>
                    <path d="M5.16924635,32.2747761 C4.86881776,32.0492597 4.45257511,32.1252358 4.23814708,32.4412 C4.02486572,32.7583701 4.09481283,33.1961373 4.39638808,33.4204478 C4.69681667,33.6459642 5.11305932,33.571194 5.32863403,33.2552299 C5.54076871,32.9380597 5.47196827,32.4990866 5.16924635,32.2747761" id="circle-6"></path>
                    <path d="M1.93975376,11.1016788 C1.77807273,10.7531534 1.38017686,10.607231 1.0476414,10.7772728 C0.71510595,10.9461087 0.576358399,11.3669922 0.736892756,11.7155176 C0.898573787,12.065249 1.29646966,12.2111713 1.63015178,12.0411296 C1.96268724,11.8710878 2.10143479,11.4502042 1.93975376,11.1016788" id="circle-5"></path>
                    <path d="M1.39095559,8.91465194 C1.37146213,8.52753552 1.05956681,8.2296609 0.690337792,8.24775045 C0.321108772,8.26704597 0.0367336257,8.59627582 0.0562270833,8.98339224 C0.074573867,9.3729206 0.387615863,9.66958925 0.754551535,9.6514997 C1.12492723,9.63099821 1.40930238,9.30297433 1.39095559,8.91465194" id="circle-4"></path>
                    <path d="M1.47168144,6.41383164 C1.54162855,6.03274507 1.30312037,5.66613015 0.938478041,5.59256597 C0.576129064,5.52141373 0.226393501,5.77104955 0.158739737,6.15213612 C0.0899392982,6.53442866 0.327300811,6.89983761 0.690796462,6.97340179 C1.05429211,7.04455403 1.40173433,6.79491821 1.47168144,6.41383164" id="circle-3"></path>
                    <path d="M2.20956614,4.17265672 C2.39532733,3.83860299 2.28868665,3.40807164 1.96876461,3.21149851 C1.65113592,3.01613134 1.24062663,3.12828657 1.05486545,3.4623403 C0.869104265,3.79880597 0.976891619,4.22692537 1.29452031,4.42349851 C1.612149,4.62007164 2.02151161,4.50791642 2.20956614,4.17265672" id="circle-2"></path>
                    <path d="M3.2901917,12.7709827 C3.01728329,12.5104931 2.59645394,12.5309946 2.34533234,12.8180155 C2.09650409,13.1050364 2.11714422,13.5488334 2.39005263,13.810529 C2.66296103,14.0722245 3.08379038,14.050517 3.33261864,13.7647021 C3.58144689,13.4764752 3.56195343,13.0326782 3.2901917,12.7709827" id="circle-1"></path>
                    <path d="M5.96423541,2.09537313 C6.1763701,1.85176716 6.53527905,1.83488358 6.76805387,2.05678209 C6.99968201,2.2786806 7.01688212,2.65735522 6.80360076,2.90216716 C6.59261275,3.14577313 6.23255712,3.16386269 5.99978231,2.94075821 C5.76815416,2.71765373 5.75095405,2.34018507 5.96423541,2.09537313 M11.3375497,33.369797 L7.52141867,30.541797 C7.2164034,30.2849254 7.16709641,29.817009 7.41133797,29.4974269 L9.96268757,26.3570806 C10.4901576,25.7480657 10.4488773,24.806203 9.86980698,24.2502507 L6.6740266,21.1894985 C6.38735811,20.9133313 6.36671798,20.443003 6.62930632,20.1403045 L9.54185822,16.7816776 C10.0693282,16.1738687 10.0291947,15.2308 9.4501243,14.6760537 L5.220044,10.6107284 C4.64212032,10.0571881 4.65473373,9.15632836 5.12716341,8.50631045 L9.53153815,2.32209552 C9.96383424,1.72634627 9.93746074,1.02929552 9.454711,0.567408955 C9.21390946,0.335862687 8.73918644,0.0669313433 7.87000756,0.164614925 C3.71560774,0.634943284 0.929189982,4.46510448 1.38900625,8.89463284 C1.61834104,11.1184418 2.37170584,11.918 2.78680182,12.3147642 L5.97226213,15.3731045 C6.26122397,15.6504776 6.2818641,16.1196 6.01812909,16.4222985 L3.10672386,19.7809254 C2.58040051,20.3899403 2.6205341,21.331803 3.19845778,21.8865493 L6.39309148,24.9497134 C6.68205332,25.2258806 6.70269345,25.696209 6.43895844,25.9989075 L3.87499543,29.3780358 C3.38651231,30.0208179 3.48512628,30.9578567 4.09630351,31.472806 L7.91816787,34.340603 C8.22662317,34.5938567 8.28051685,35.0605672 8.03856864,35.3837672 L6.39194481,37.9717791 C5.93671524,38.6410925 6.08348951,39.5721015 6.71874689,40.0520776 C7.35515095,40.5308478 8.24038326,40.3776896 8.6967595,39.7071701 L11.5783512,35.4621552 C12.0599543,34.8133433 11.9533136,33.8787164 11.3375497,33.369797" id="Fill-63"></path>
                </g>
                <g id="right" transform="translate(19.718911, 0.040841)">
                    <path d="M7.07868186,14.3974746 C7.35159027,14.138191 7.77241962,14.1586925 8.02239454,14.4457134 C8.2712228,14.7327343 8.25058266,15.1765313 7.97882093,15.4382269 C7.70591253,15.6999224 7.2839365,15.6782149 7.03396158,15.3924 C6.78742667,15.1041731 6.80577345,14.6603761 7.07868186,14.3974746" id="circle-30"></path>
                    <path d="M7.07868186,16.5796776 C7.35159027,16.3191881 7.77241962,16.3408955 8.02239454,16.6279164 C8.2712228,16.9149373 8.25058266,17.3587343 7.97882093,17.6204299 C7.70591253,17.8821254 7.2839365,17.8604179 7.03396158,17.574603 C6.78742667,17.2863761 6.80577345,16.8425791 7.07868186,16.5796776" id="circle-29"></path>
                    <path d="M8.49184287,18.2823869 C8.76475128,18.0206913 9.18558063,18.0423988 9.43555555,18.3294197 C9.68438381,18.6176466 9.66489035,19.0602376 9.39198194,19.3219331 C9.11907353,19.5836287 8.69824419,19.5631272 8.44826926,19.2761063 C8.20058768,18.9890854 8.22008114,18.5440824 8.49184287,18.2823869" id="circle-28"></path>
                    <path d="M6.65762318,23.974566 C6.93053158,23.7140764 7.35136093,23.7345779 7.60018919,24.0215988 C7.85016411,24.3086197 7.82952398,24.7536227 7.55776225,25.0153182 C7.28485384,25.2758078 6.86287782,25.2553063 6.61290289,24.9682854 C6.36636799,24.6812645 6.38471477,24.2362615 6.65762318,23.974566" id="circle-27"></path>
                    <path d="M6.58595605,26.1839033 C6.87147787,25.9378854 7.29116055,25.9813003 7.52622871,26.2815869 C7.76015021,26.5818734 7.72001662,27.0244645 7.4344948,27.2704824 C7.14897298,27.5177063 6.7292903,27.4730854 6.49422213,27.1740048 C6.26144732,26.8737182 6.30158091,26.4311272 6.58595605,26.1839033" id="circle-26"></path>
                    <path d="M7.93868734,27.9542675 C8.22650251,27.7130734 8.64618519,27.7637242 8.87666666,28.0664227 C9.10714813,28.3715331 9.06013449,28.8117122 8.77231932,29.0541122 C8.48335748,29.2965122 8.06252813,29.2458615 7.83319334,28.941957 C7.60271187,28.6380525 7.6497255,28.1966675 7.93868734,27.9542675" id="circle-25"></path>
                    <path d="M8.07307753,22.6143522 C8.34598594,22.3538627 8.76681529,22.3755701 9.01564354,22.662591 C9.2644718,22.9508179 9.24497834,23.393409 8.97206993,23.6551045 C8.69916152,23.9168 8.2771855,23.8950925 8.02835725,23.6080716 C7.78182234,23.3210507 7.80016913,22.8772537 8.07307753,22.6143522" id="circle-24"></path>
                    <path d="M5.29262247,33.4609684 C5.59305106,33.2354519 6.00814704,33.3102221 6.22372174,33.6273922 C6.43814978,33.9421504 6.36820266,34.3811236 6.06777408,34.607846 C5.76619883,34.8321564 5.34995617,34.7573863 5.13438147,34.4414221 C4.92339345,34.1266639 4.99104722,33.6864848 5.29262247,33.4609684" id="circle-23"></path>
                    <path d="M5.13472547,35.9041433 C5.44318077,35.6882746 5.8559834,35.7763104 6.06238472,36.0983045 C6.26763936,36.4202985 6.18507883,36.8568597 5.87777021,37.0727284 C5.57160825,37.288597 5.15765895,37.2017672 4.95240431,36.8785672 C4.74714966,36.5565731 4.82741684,36.1200119 5.13472547,35.9041433" id="circle-22"></path>
                    <path d="M6.86815252,32.2747761 C7.1685811,32.0492597 7.58482375,32.1252358 7.79925179,32.4412 C8.01253315,32.7583701 7.94258603,33.1961373 7.64101078,33.4204478 C7.3405822,33.6459642 6.92433954,33.571194 6.70876484,33.2552299 C6.49777682,32.9380597 6.56657726,32.4990866 6.86815252,32.2747761" id="circle-21"></path>
                    <path d="M10.0976451,11.1016788 C10.2593261,10.7531534 10.6583687,10.607231 10.9909041,10.7772728 C11.3222929,10.9461087 11.4621871,11.3669922 11.3005061,11.7155176 C11.1388251,12.065249 10.7409292,12.2111713 10.4083938,12.0411296 C10.0747116,11.8710878 9.93596408,11.4502042 10.0976451,11.1016788" id="circle-20"></path>
                    <path d="M10.6463286,8.91465194 C10.6658221,8.52753552 10.9777174,8.2296609 11.3469464,8.24775045 C11.7173221,8.26704597 12.0016972,8.59627582 11.9822038,8.98339224 C11.963857,9.3729206 11.650815,9.66958925 11.2827327,9.6514997 C10.9135036,9.63099821 10.6291285,9.30297433 10.6463286,8.91465194" id="circle-19"></path>
                    <path d="M10.5657174,6.41383164 C10.4957703,6.03274507 10.7354252,5.66613015 11.0989208,5.59256597 C11.4612698,5.52141373 11.8110054,5.77104955 11.8798058,6.15213612 C11.9486062,6.53442866 11.7100981,6.89983761 11.3477491,6.97340179 C10.9842534,7.04455403 10.6356645,6.79491821 10.5657174,6.41383164" id="circle-18"></path>
                    <path d="M9.82886473,4.17265672 C9.64310354,3.83860299 9.7508909,3.40807164 10.0685196,3.21149851 C10.3861483,3.01613134 10.7966576,3.12828657 10.9824187,3.4623403 C11.1693266,3.79880597 11.0615393,4.22692537 10.7427639,4.42349851 C10.4251352,4.62007164 10.0157726,4.50791642 9.82886473,4.17265672" id="circle-17"></path>
                    <path d="M8.74835384,12.7709827 C9.02126224,12.5104931 9.44323827,12.5309946 9.69206652,12.8180155 C9.94089477,13.1050364 9.92025464,13.5488334 9.64734624,13.810529 C9.3755845,14.0722245 8.95360848,14.050517 8.70478023,13.7647021 C8.45595197,13.4764752 8.47659211,13.0326782 8.74835384,12.7709827" id="circle-16"></path>
                    <path d="M6.03727256,2.94075821 C5.80449774,3.16386269 5.44444211,3.14577313 5.2334541,2.90216716 C5.02017274,2.65735522 5.03851952,2.2786806 5.27014766,2.05678209 C5.50177581,1.83488358 5.86297811,1.85176716 6.07396612,2.09537313 C6.28610081,2.34018507 6.2689007,2.71765373 6.03727256,2.94075821 M4.16819397,0.164614925 C3.29786843,0.0669313433 2.8231454,0.335862687 2.58349054,0.567408955 C2.09959412,1.02929552 2.07322062,1.72634627 2.50666338,2.32209552 L6.91103813,8.50631045 C7.38232113,9.15632836 7.39722789,10.0571881 6.81930421,10.6107284 L2.58693056,14.6760537 C2.0078602,15.2308 1.96657994,16.1738687 2.49404997,16.7828836 L5.40889522,20.1403045 C5.67263023,20.443003 5.65084343,20.9145373 5.36302826,21.1894985 L2.16724788,24.2502507 C1.58817753,24.806203 1.54689726,25.7480657 2.07551397,26.3570806 L4.62686356,29.4974269 C4.86995845,29.817009 4.82065147,30.2849254 4.51563619,30.541797 L0.700651868,33.369797 C0.0848879427,33.8787164 -0.0228994111,34.8133433 0.459850333,35.4621552 L3.34029536,39.7083761 C3.79781828,40.3776896 4.68190391,40.5308478 5.31830797,40.0520776 C5.95471203,39.5721015 6.10263297,38.6410925 5.64511006,37.9717791 L3.9996329,35.3837672 C3.75768469,35.0605672 3.81157837,34.5938567 4.12003367,34.340603 L7.94075136,31.472806 C8.55192859,30.9578567 8.65054255,30.0208179 8.16320611,29.3780358 L5.59809642,25.9989075 C5.33665476,25.696209 5.35614821,25.2258806 5.64511006,24.9497134 L8.83859708,21.8865493 C9.41652076,21.331803 9.45665435,20.3899403 8.930331,19.7809254 L6.01892577,16.4222985 C5.75633743,16.1196 5.77697756,15.6504776 6.06479273,15.3743104 L9.25139971,12.3147642 C9.66534902,11.918 10.4198605,11.1184418 10.650342,8.89463284 C11.1090116,4.46510448 8.32144712,0.634943284 4.16819397,0.164614925" id="Fill-66"></path>
                </g>
            </g>
        </g>
    </g>
</svg>