<?xml version="1.0" encoding="UTF-8"?>
<svg width="30px" height="36px" viewBox="0 0 30 36" version="1.1" xmlns="http://www.w3.org/2000/svg" xmlns:xlink="http://www.w3.org/1999/xlink">
    <!-- Generator: Sketch 49 (51002) - http://www.bohemiancoding.com/sketch -->
    <title>Page 1</title>
    <desc>Created with Sketch.</desc>
    <defs></defs>
    <g id="Page-4" stroke="none" stroke-width="1" fill="none" fill-rule="evenodd" stroke-linecap="round" stroke-linejoin="round">
        <g id="Home-100" transform="translate(-862.000000, -753.000000)" stroke="#FFFFFF" stroke-width="0.99">
            <g id="Group-10" transform="translate(387.000000, 738.000000)">
                <g id="Page-1" transform="translate(475.000000, 15.000000)">
                    <path d="M14.5267,0.4952 C14.5267,0.4952 7.7717,6.2402 0.4947,6.2402 L0.4947,18.9872 C0.4947,18.9872 1.2707,30.6552 14.5267,34.7592 C27.7827,30.6552 28.5587,18.9872 28.5587,18.9872 L28.5587,6.2402 C21.2817,6.2402 14.5267,0.4952 14.5267,0.4952 Z" id="Stroke-1"></path>
                    <path d="M14.5267,3.7354 C14.5267,3.7354 9.0497,8.3934 3.1487,8.3934 L3.1487,18.7294 C3.1487,18.7294 3.7787,28.1904 14.5267,31.5174 C25.2747,28.1904 25.9047,18.7294 25.9047,18.7294 L25.9047,8.3934 C20.0047,8.3934 14.5267,3.7354 14.5267,3.7354 Z" id="Stroke-3"></path>
                    <polygon id="Stroke-5" points="12.3031 15.1065 14.5181 10.5985 16.7491 15.0985 21.7211 15.8115 18.1311 19.3245 18.9881 24.2735 14.5381 21.9435 10.0961 24.2895 10.9371 19.3375 7.3341 15.8375"></polygon>
                </g>
            </g>
        </g>
    </g>
</svg>