<?xml version="1.0" encoding="UTF-8"?>
<svg width="80px" height="76px" viewBox="0 0 80 76" version="1.1" xmlns="http://www.w3.org/2000/svg" xmlns:xlink="http://www.w3.org/1999/xlink">
    <!-- Generator: Sketch 49 (51002) - http://www.bohemiancoding.com/sketch -->
    <title>logo-white</title>
    <desc>Created with Sketch.</desc>
    <defs>
        <polygon id="path-1" points="0.000270867159 0.12245145 7.83007772 0.12245145 7.83007772 9.04665826 0.000270867159 9.04665826"></polygon>
        <polygon id="path-3" points="0.234114946 0.12252005 9.2599068 0.12252005 9.2599068 9.04665826 0.234114946 9.04665826"></polygon>
        <polygon id="path-5" points="0.00914776202 0.108228331 9.03087395 0.108228331 9.03087395 9.03236654 0.00914776202 9.03236654"></polygon>
        <polygon id="path-7" points="0.281615548 0.12252005 8.85842169 0.12252005 8.85842169 9.04665826 0.281615548 9.04665826"></polygon>
        <polygon id="path-9" points="0.0592232889 0.12245145 5.12572822 0.12245145 5.12572822 8.86870921 0.0592232889 8.86870921"></polygon>
    </defs>
    <g id="Page-4" stroke="none" stroke-width="1" fill="none" fill-rule="evenodd">
        <g id="Home-100" transform="translate(-93.000000, -3767.000000)">
            <g id="Footer" transform="translate(0.000000, 3736.000000)">
                <g id="logo-white" transform="translate(93.000000, 31.000000)">
                    <rect id="Rectangle-12" fill="#FFFFFF" x="0" y="0" width="80" height="76"></rect>
                    <g id="logo-corona" transform="translate(8.750000, 51.081967)">
                        <g id="Page-1" transform="translate(0.511394, 0.514502)">
                            <g id="Group-3" transform="translate(0.000000, 0.006105)">
                                <mask id="mask-2" fill="white">
                                    <use xlink:href="#path-1"></use>
                                </mask>
                                <g id="Clip-2"></g>
                                <path d="M4.49148339,2.0951889 C5.07490732,2.0951889 5.84467455,2.30373367 6.30951639,2.92044994 L6.40099401,3.05216242 L7.83007772,1.96553443 L7.73046875,1.8228459 C6.8915851,0.748565952 5.64884469,0.122245649 4.32546845,0.122245649 C1.93756376,0.122245649 0.0002710448,2.12605902 0.0002710448,4.59498209 C-0.000406567201,7.03715107 1.93756376,9.04713846 4.32479084,9.04713846 C5.63868051,9.04713846 6.91191346,8.4050401 7.7162389,7.33076015 L7.82194637,7.2072797 L6.39082983,6.11516368 L6.30138504,6.26471223 C5.9375074,6.86633644 5.09659091,7.08448525 4.49148339,7.08448525 C3.30362955,7.08448525 2.36649215,5.97727718 2.36649215,4.59498209 C2.36649215,3.19965296 3.30362955,2.0951889 4.49148339,2.0951889" id="Fill-1" fill="#0069B4" mask="url(#mask-2)"></path>
                            </g>
                            <g id="Group-6" transform="translate(9.486568, 0.006105)">
                                <mask id="mask-4" fill="white">
                                    <use xlink:href="#path-3"></use>
                                </mask>
                                <g id="Clip-5"></g>
                                <path d="M4.7429452,7.08475965 C3.56390032,7.08475965 2.60440173,5.94805347 2.60440173,4.59457049 C2.60440173,3.21364741 3.56390032,2.0954633 4.7429452,2.0954633 C5.93283188,2.0954633 6.90317226,3.21364741 6.90317226,4.59457049 C6.90317226,5.94805347 5.93283188,7.08475965 4.7429452,7.08475965 M4.7429452,0.12252005 C2.26288528,0.12252005 0.234114946,2.12564741 0.234114946,4.59457049 C0.234114946,7.03742547 2.26288528,9.04672686 4.7429452,9.04672686 C7.23655737,9.04672686 9.2599068,7.03742547 9.2599068,4.59457049 C9.2599068,2.12564741 7.23723498,0.12252005 4.7429452,0.12252005" id="Fill-4" fill="#0069B4" mask="url(#mask-4)"></path>
                            </g>
                            <g id="Group-9" transform="translate(29.137316, 0.020397)">
                                <mask id="mask-6" fill="white">
                                    <use xlink:href="#path-5"></use>
                                </mask>
                                <g id="Clip-8"></g>
                                <path d="M4.51730041,7.07046793 C3.32267045,7.07046793 2.36723753,5.93376175 2.36723753,4.58027877 C2.36723753,3.1993557 3.32267045,2.08117158 4.51730041,2.08117158 C5.70379902,2.08117158 6.68565881,3.1993557 6.68565881,4.58027877 C6.68565881,5.93376175 5.70379902,7.07046793 4.51730041,7.07046793 M4.51730041,0.108228331 C2.01758973,0.108228331 0.00914776202,2.1113557 0.00914776202,4.58027877 C0.00914776202,7.02313375 2.01758973,9.03243514 4.51730041,9.03243514 C7.00074839,9.03243514 9.03087395,7.02313375 9.03087395,4.58027877 C9.03087395,2.1113557 7.00074839,0.108228331 4.51730041,0.108228331" id="Fill-7" fill="#0069B4" mask="url(#mask-6)"></path>
                            </g>
                            <path d="M44.8517482,0.258965952 C44.8090587,0.268569987 44.9784617,0.217805801 44.9784617,0.217805801 C45.2684796,0.160181589 45.5022557,0.128625473 45.742808,0.128625473 L46.1222707,0.128625473 C48.1666261,0.292580076 49.5747039,1.91977806 49.5747039,4.22200252 L49.5747039,8.87515763 L47.2965723,8.87515763 L47.2965723,4.27551072 C47.2965723,2.8019773 46.3987364,2.15782093 45.5090318,2.15782093 C44.5834139,2.15782093 43.5331153,2.91585372 43.5331153,3.93319546 L43.5331153,8.87515763 L41.2726016,8.87515763 L41.2732792,0.302870113 L41.5687181,0.509356873 C41.9386942,0.733679697 42.345939,0.854416141 42.8046824,0.854416141 C43.16856,0.854416141 43.5995212,0.760433796 43.9030914,0.603339218 C43.9030914,0.603339218 44.5874795,0.329624212 44.8517482,0.258965952" id="Fill-10" fill="#0069B4"></path>
                            <g id="Group-14" transform="translate(52.176124, 0.006105)">
                                <mask id="mask-8" fill="white">
                                    <use xlink:href="#path-7"></use>
                                </mask>
                                <g id="Clip-13"></g>
                                <path d="M4.59800399,7.08475965 C3.5368636,7.08475965 2.64648143,5.94805347 2.64648143,4.59457049 C2.64648143,3.21364741 3.5368636,2.0954633 4.59800399,2.0954633 C5.70183394,2.0954633 6.57866387,3.21364741 6.57866387,4.59457049 C6.57866387,5.94805347 5.70183394,7.08475965 4.59800399,7.08475965 Z M6.29406683,8.50958689 C6.59492656,8.37170038 6.94050868,8.2955541 7.27524901,8.2955541 C7.87561324,8.2955541 8.43735359,8.50958689 8.85882826,8.86905221 L8.85882826,0.296764691 L8.56338943,0.50325145 C8.18799238,0.727574275 7.76787294,0.848310719 7.32335946,0.848310719 C6.95812659,0.848310719 6.53190865,0.754328373 6.22088474,0.597233796 C6.22088474,0.597233796 6.16396533,0.567735687 6.07384293,0.541667591 C6.00269367,0.513541488 5.63678319,0.351644893 5.53039811,0.309112736 C5.51684587,0.309112736 5.35896227,0.259720555 5.30339809,0.237082472 C5.30339809,0.237082472 4.86159506,0.138984111 4.63120698,0.12252005 L4.41708159,0.12252005 L4.38726666,0.12252005 L4.40759502,0.12252005 L4.37032636,0.12252005 C2.12200974,0.12252005 0.281615548,2.12564741 0.281615548,4.59457049 C0.313463312,7.08818966 2.12200974,9.04672686 4.37032636,9.04672686 C4.95103985,9.04672686 5.49109661,8.8930623 5.99117427,8.66668146 L6.29406683,8.50958689 Z" id="Fill-12" fill="#0069B4" mask="url(#mask-8)"></path>
                            </g>
                            <g id="Group-17" transform="translate(21.683584, 0.006105)">
                                <mask id="mask-10" fill="white">
                                    <use xlink:href="#path-9"></use>
                                </mask>
                                <g id="Clip-16"></g>
                                <path d="M2.31634886,3.92743304 C2.31634886,3.21604842 2.82862354,2.61305221 3.49132807,2.50740782 C3.57331913,2.48888575 4.54908041,2.3132691 5.12572822,3.08090593 L5.12572822,0.173627238 C5.12572822,0.173627238 4.78624461,0.122177049 4.41355801,0.122177049 C3.87824453,0.122177049 3.32870119,0.259377554 2.82862354,0.503594451 L2.62398471,0.609924842 C2.31025036,0.770449433 1.96534585,0.84865372 1.60214582,0.84865372 C1.12510697,0.84865372 0.721250214,0.727917276 0.349241225,0.489874401 L0.0592232889,0.297107692 L0.0592232889,8.86870921 L2.31634886,8.86870921 L2.31634886,3.92743304 Z" id="Fill-15" fill="#0069B4" mask="url(#mask-10)"></path>
                            </g>
                        </g>
                    </g>
                </g>
            </g>
        </g>
    </g>
</svg>