<?xml version="1.0" encoding="UTF-8"?>
<svg width="64px" height="61px" viewBox="0 0 64 61" version="1.1" xmlns="http://www.w3.org/2000/svg" xmlns:xlink="http://www.w3.org/1999/xlink">
    <!-- Generator: Sketch 49 (51002) - http://www.bohemiancoding.com/sketch -->
    <title>logo-white</title>
    <desc>Created with Sketch.</desc>
    <defs>
        <polygon id="path-1" points="0.000216693727 0.0982834008 6.26406217 0.0982834008 6.26406217 7.2611336 0.000216693727 7.2611336"></polygon>
        <polygon id="path-3" points="0.187291957 0.0983384615 7.40792544 0.0983384615 7.40792544 7.2611336 0.187291957 7.2611336"></polygon>
        <polygon id="path-5" points="0.00731820961 0.0868674764 7.22469916 0.0868674764 7.22469916 7.24966262 0.00731820961 7.24966262"></polygon>
        <polygon id="path-7" points="0.225292438 0.0983384615 7.08673735 0.0983384615 7.08673735 7.2611336 0.225292438 7.2611336"></polygon>
        <polygon id="path-9" points="0.0473786311 0.0982834008 4.10058258 0.0982834008 4.10058258 7.11830607 0.0473786311 7.11830607"></polygon>
    </defs>
    <g id="Page-4" stroke="none" stroke-width="1" fill="none" fill-rule="evenodd">
        <g id="Home-100" transform="translate(-125.000000, -76.000000)">
            <g id="logo-white" transform="translate(125.000000, 76.000000)">
                <rect id="Rectangle-12" fill="#0069B4" x="0" y="0" width="64" height="61"></rect>
                <g id="logo-corona" transform="translate(7.000000, 41.000000)">
                    <g id="Page-1" transform="translate(0.409115, 0.412955)">
                        <g id="Group-3" transform="translate(0.000000, 0.004900)">
                            <mask id="mask-2" fill="white">
                                <use xlink:href="#path-1"></use>
                            </mask>
                            <g id="Clip-2"></g>
                            <path d="M3.59318671,1.68166478 C4.05992586,1.68166478 4.67573964,1.84904939 5.04761311,2.34404534 L5.12079521,2.44976194 L6.26406217,1.5776 L6.184375,1.46307368 C5.51326808,0.600822672 4.51907575,0.0981182186 3.46037476,0.0981182186 C1.550051,0.0981182186 0.00021683584,1.70644211 0.00021683584,3.68807773 C-0.000325253761,5.64823968 1.550051,7.26151903 3.45983267,7.26151903 C4.51094441,7.26151903 5.52953077,6.74615061 6.17299112,5.8838996 L6.2575571,5.78479028 L5.11266386,4.90822348 L5.04110803,5.02825587 C4.75000592,5.51113846 4.07727272,5.68623158 3.59318671,5.68623158 C2.64290364,5.68623158 1.89319372,4.79755142 1.89319372,3.68807773 C1.89319372,2.56814251 2.64290364,1.68166478 3.59318671,1.68166478" id="Fill-1" fill="#FFFFFF" mask="url(#mask-2)"></path>
                        </g>
                        <g id="Group-6" transform="translate(7.589254, 0.004900)">
                            <mask id="mask-4" fill="white">
                                <use xlink:href="#path-3"></use>
                            </mask>
                            <g id="Clip-5"></g>
                            <path d="M3.79435616,5.68645182 C2.85112026,5.68645182 2.08352138,4.77409555 2.08352138,3.68774737 C2.08352138,2.5793749 2.85112026,1.68188502 3.79435616,1.68188502 C4.7462655,1.68188502 5.52253781,2.5793749 5.52253781,3.68774737 C5.52253781,4.77409555 4.7462655,5.68645182 3.79435616,5.68645182 M3.79435616,0.0983384615 C1.81030822,0.0983384615 0.187291957,1.70611174 0.187291957,3.68774737 C0.187291957,5.64845992 1.81030822,7.26118866 3.79435616,7.26118866 C5.78924589,7.26118866 7.40792544,5.64845992 7.40792544,3.68774737 C7.40792544,1.70611174 5.78978798,0.0983384615 3.79435616,0.0983384615" id="Fill-4" fill="#FFFFFF" mask="url(#mask-4)"></path>
                        </g>
                        <g id="Group-9" transform="translate(23.309853, 0.016371)">
                            <mask id="mask-6" fill="white">
                                <use xlink:href="#path-5"></use>
                            </mask>
                            <g id="Clip-8"></g>
                            <path d="M3.61384032,5.67498084 C2.65813636,5.67498084 1.89379002,4.76262456 1.89379002,3.67627638 C1.89379002,2.56790391 2.65813636,1.67041404 3.61384032,1.67041404 C4.56303922,1.67041404 5.34852705,2.56790391 5.34852705,3.67627638 C5.34852705,4.76262456 4.56303922,5.67498084 3.61384032,5.67498084 M3.61384032,0.0868674764 C1.61407179,0.0868674764 0.00731820961,1.69464076 0.00731820961,3.67627638 C0.00731820961,5.63698893 1.61407179,7.24971768 3.61384032,7.24971768 C5.60059871,7.24971768 7.22469916,5.63698893 7.22469916,3.67627638 C7.22469916,1.69464076 5.60059871,0.0868674764 3.61384032,0.0868674764" id="Fill-7" fill="#FFFFFF" mask="url(#mask-6)"></path>
                        </g>
                        <path d="M35.8813986,0.207854251 C35.8472469,0.215562753 35.9827693,0.174817814 35.9827693,0.174817814 C36.2147837,0.128566802 36.4018046,0.103238866 36.5942464,0.103238866 L36.8978166,0.103238866 C38.5333009,0.234834008 39.6597631,1.54087449 39.6597631,3.38871255 L39.6597631,7.12348178 L37.8372578,7.12348178 L37.8372578,3.43165992 C37.8372578,2.24895547 37.1189891,1.73193522 36.4072255,1.73193522 C35.6667311,1.73193522 34.8264922,2.34035628 34.8264922,3.15690688 L34.8264922,7.12348178 L33.0180813,7.12348178 L33.0186234,0.243093117 L33.2549744,0.408825911 C33.5509554,0.588874494 33.8767512,0.685781377 34.2437459,0.685781377 C34.534848,0.685781377 34.879617,0.610348178 35.1224731,0.484259109 C35.1224731,0.484259109 35.6699836,0.264566802 35.8813986,0.207854251" id="Fill-10" fill="#FFFFFF"></path>
                        <g id="Group-14" transform="translate(41.740899, 0.004900)">
                            <mask id="mask-8" fill="white">
                                <use xlink:href="#path-7"></use>
                            </mask>
                            <g id="Clip-13"></g>
                            <path d="M3.6784032,5.68645182 C2.82949088,5.68645182 2.11718515,4.77409555 2.11718515,3.68774737 C2.11718515,2.5793749 2.82949088,1.68188502 3.6784032,1.68188502 C4.56146716,1.68188502 5.2629311,2.5793749 5.2629311,3.68774737 C5.2629311,4.77409555 4.56146716,5.68645182 3.6784032,5.68645182 Z M5.03525347,6.83006316 C5.27594125,6.71939109 5.55240695,6.65827368 5.82019921,6.65827368 C6.3004906,6.65827368 6.74988287,6.83006316 7.08706261,7.11858138 L7.08706261,0.238192713 L6.85071154,0.403925506 C6.5503939,0.583974089 6.21429835,0.680880972 5.85868757,0.680880972 C5.56650128,0.680880972 5.22552692,0.605447773 4.97670779,0.479358704 C4.97670779,0.479358704 4.93117226,0.455682591 4.85907435,0.434759514 C4.80215494,0.412184615 4.50942655,0.282241296 4.42431849,0.248103644 C4.41347669,0.248103644 4.28716982,0.208459919 4.24271847,0.190289879 C4.24271847,0.190289879 3.88927605,0.111553036 3.70496559,0.0983384615 L3.53366527,0.0983384615 L3.50981333,0.0983384615 L3.52607602,0.0983384615 L3.49626109,0.0983384615 C1.69760779,0.0983384615 0.225292438,1.70611174 0.225292438,3.68774737 C0.250770649,5.68920486 1.69760779,7.26118866 3.49626109,7.26118866 C3.96083188,7.26118866 4.39287729,7.13785263 4.79293942,6.95615223 L5.03525347,6.83006316 Z" id="Fill-12" fill="#FFFFFF" mask="url(#mask-8)"></path>
                        </g>
                        <g id="Group-17" transform="translate(17.346867, 0.004900)">
                            <mask id="mask-10" fill="white">
                                <use xlink:href="#path-9"></use>
                            </mask>
                            <g id="Clip-16"></g>
                            <path d="M1.85307909,3.15228178 C1.85307909,2.58130202 2.26289883,2.09731822 2.79306246,2.0125247 C2.8586553,1.9976583 3.63926433,1.85670283 4.10058258,2.47283239 L4.10058258,0.139358704 C4.10058258,0.139358704 3.82899569,0.0980631579 3.53084641,0.0980631579 C3.10259562,0.0980631579 2.66296096,0.208184615 2.26289883,0.40420081 L2.09918777,0.489544939 C1.84820029,0.618387045 1.57227668,0.681156275 1.28171665,0.681156275 C0.900085573,0.681156275 0.577000171,0.584249393 0.27939298,0.393188664 L0.0473786311,0.238468016 L0.0473786311,7.11830607 L1.85307909,7.11830607 L1.85307909,3.15228178 Z" id="Fill-15" fill="#FFFFFF" mask="url(#mask-10)"></path>
                        </g>
                    </g>
                </g>
            </g>
        </g>
    </g>
</svg>