<?xml version="1.0" encoding="UTF-8"?>
<svg width="317px" height="119px" viewBox="0 0 317 119" version="1.1" xmlns="http://www.w3.org/2000/svg" xmlns:xlink="http://www.w3.org/1999/xlink">
    <!-- Generator: Sketch 49 (51002) - http://www.bohemiancoding.com/sketch -->
    <title>Group 22</title>
    <desc>Created with Sketch.</desc>
    <defs>
        <polygon id="path-1" points="0.114406996 0.165169253 13.4665589 0.165169253 13.4665589 18.9563021 0.114406996 18.9563021"></polygon>
        <polygon id="path-3" points="0.151298859 0.0630380186 17.7570345 0.0630380186 17.7570345 19.1225854 0.151298859 19.1225854"></polygon>
        <polygon id="path-5" points="0.0468233268 0.165185882 16.0101094 0.165185882 16.0101094 18.9563021 0.0468233268 18.9563021"></polygon>
        <polygon id="path-7" points="0.0723075557 0.0630380186 17.6780451 0.0630380186 17.6780451 19.1225854 0.0723075557 19.1225854"></polygon>
        <polygon id="path-9" points="0.0795563007 0.165185882 16.0428257 0.165185882 16.0428257 18.9563021 0.0795563007 18.9563021"></polygon>
        <polygon id="path-11" points="0.158032225 0.0843056593 13.3856684 0.0843056593 13.3856684 18.4659657 0.158032225 18.4659657"></polygon>
    </defs>
    <g id="Page-3" stroke="none" stroke-width="1" fill="none" fill-rule="evenodd">
        <g id="Home-new3" transform="translate(-498.000000, -532.000000)">
            <g id="Group-22" transform="translate(496.000000, 532.000000)">
                <g id="Group-11" transform="translate(0.000000, 15.000000)" fill="#FFFFFF">
                    <g id="Group-8">
                        <path d="M2.20874304,77.9030975 C2.20874304,71.2000015 7.60473532,65.8040092 14.3078313,65.8040092 C17.6928948,65.8040092 20.1395248,66.9435355 22.4185775,68.9209488 C22.7202168,69.1890727 22.7202168,69.5912584 22.452093,69.8593823 L20.9774118,71.3675789 C20.7428035,71.6692182 20.4411642,71.6692182 20.1395248,71.3675789 C18.5642973,69.9934442 16.4193066,69.1220417 14.3413468,69.1220417 C9.54863316,69.1220417 5.92896132,73.1438993 5.92896132,77.8360665 C5.92896132,82.5282337 9.58214864,86.5165758 14.3748623,86.5165758 C16.8214923,86.5165758 18.5307818,85.5446269 20.1395248,84.3045542 C20.4411642,84.0699458 20.7428035,84.1034613 20.9438964,84.2710387 L22.4856084,85.7792353 C22.7537323,86.0138436 22.6867013,86.4495449 22.452093,86.6841532 C20.1730403,88.8961749 17.290709,89.9351548 14.3078313,89.9351548 C7.60473532,89.9351548 2.20874304,84.6061935 2.20874304,77.9030975 Z M24.5970837,77.9030975 C24.5970837,71.2000015 29.926045,65.8040092 36.629141,65.8040092 C43.332237,65.8040092 48.6947138,71.2000015 48.6947138,77.9030975 C48.6947138,84.6061935 43.332237,89.9351548 36.629141,89.9351548 C29.926045,89.9351548 24.5970837,84.6061935 24.5970837,77.9030975 Z M27.9486317,77.9030975 C27.9486317,82.6958111 31.8699429,86.6841532 36.629141,86.6841532 C41.4218547,86.6841532 45.3431658,82.6958111 45.3431658,77.9030975 C45.3431658,73.1438993 41.4218547,69.0550108 36.629141,69.0550108 C31.8699429,69.0550108 27.9486317,73.1438993 27.9486317,77.9030975 Z M53.3533655,88.9632059 L53.3533655,66.7759581 C53.3533655,66.4408033 53.6214894,66.139164 53.9901597,66.139164 L63.1063702,66.139164 C67.1282278,66.139164 70.4127449,69.3231346 70.4127449,73.3114767 C70.4127449,76.3949009 68.3683006,78.9420774 65.4524538,80.1151192 L70.0440746,88.6280511 C70.2786829,89.0637523 70.0440746,89.6 69.4743114,89.6 L66.9606504,89.6 C66.5919801,89.6 66.3908873,89.4324226 66.2568253,89.1642988 L61.8662975,80.4167585 L56.80546,80.4167585 L56.80546,88.9632059 C56.80546,89.2983607 56.5038207,89.6 56.1686659,89.6 L53.9901597,89.6 C53.6214894,89.6 53.3533655,89.2983607 53.3533655,88.9632059 Z M56.8724909,77.5344272 L62.8382464,77.5344272 C65.0167526,77.5344272 66.9271349,75.6910758 66.9271349,73.3785077 C66.9271349,71.2000015 65.0167526,69.3901656 62.8382464,69.3901656 L56.8724909,69.3901656 L56.8724909,77.5344272 Z M73.8648393,77.9030975 C73.8648393,71.2000015 79.1938006,65.8040092 85.8968966,65.8040092 C92.5999926,65.8040092 97.9624694,71.2000015 97.9624694,77.9030975 C97.9624694,84.6061935 92.5999926,89.9351548 85.8968966,89.9351548 C79.1938006,89.9351548 73.8648393,84.6061935 73.8648393,77.9030975 Z M77.2163873,77.9030975 C77.2163873,82.6958111 81.1376985,86.6841532 85.8968966,86.6841532 C90.6896103,86.6841532 94.6109214,82.6958111 94.6109214,77.9030975 C94.6109214,73.1438993 90.6896103,69.0550108 85.8968966,69.0550108 C81.1376985,69.0550108 77.2163873,73.1438993 77.2163873,77.9030975 Z M102.621121,88.9632059 L102.621121,66.4072878 C102.621121,66.072133 102.92276,65.8040092 103.257915,65.8040092 L103.526039,65.8040092 C103.861194,65.8040092 104.095802,65.8040092 104.531503,66.3067414 L118.608005,82.6287802 L118.675036,82.6287802 L118.675036,66.7759581 C118.675036,66.4408033 118.94316,66.139164 119.31183,66.139164 L121.456821,66.139164 C121.791976,66.139164 122.093615,66.4408033 122.093615,66.7759581 L122.093615,89.3318762 C122.093615,89.667031 121.791976,89.9351548 121.456821,89.9351548 L121.155182,89.9351548 C120.820027,89.9351548 120.585418,89.9351548 120.183233,89.4659381 L106.073216,72.6411671 L106.006185,72.6411671 L106.006185,88.9632059 C106.006185,89.2983607 105.738061,89.6 105.36939,89.6 L103.257915,89.6 C102.92276,89.6 102.621121,89.2983607 102.621121,88.9632059 Z M125.880864,89.6 C125.378132,89.6 125.110008,89.1642988 125.311101,88.7285975 L135.600353,66.1726795 C135.7009,65.9715866 136.002539,65.8040092 136.170117,65.8040092 L136.505271,65.8040092 C136.672849,65.8040092 136.974488,65.9715866 137.075035,66.1726795 L147.297256,88.7285975 C147.498349,89.1642988 147.230225,89.6 146.727493,89.6 L144.616018,89.6 C144.213832,89.6 143.979223,89.3989071 143.845162,89.0972678 L141.767202,84.505647 L130.80764,84.505647 L128.763196,89.0972678 C128.662649,89.3318762 128.394525,89.6 127.992339,89.6 L125.880864,89.6 Z M132.114744,81.6233158 L140.493614,81.6233158 L136.371209,72.4400742 L136.203632,72.4400742 L132.114744,81.6233158 Z" id="CORONA"></path>
                        <path d="M3.08839158,31.1463798 L3.08839158,0.91025304 C3.08839158,0.46097924 3.492738,0.1015602 3.9420118,0.1015602 L4.30143084,0.1015602 C4.75070464,0.1015602 5.0651963,0.1015602 5.64925224,0.7754709 L24.5187518,22.655105 L24.6086066,22.655105 L24.6086066,1.40445422 C24.6086066,0.95518042 24.9680256,0.550834 25.4622268,0.550834 L28.3375791,0.550834 C28.7868529,0.550834 29.1911994,0.95518042 29.1911994,1.40445422 L29.1911994,31.640581 C29.1911994,32.0898548 28.7868529,32.4492738 28.3375791,32.4492738 L27.9332327,32.4492738 C27.4839589,32.4492738 27.1694673,32.4492738 26.6303387,31.8202905 L7.71591172,9.26674572 L7.62605696,9.26674572 L7.62605696,31.1463798 C7.62605696,31.5956536 7.26663792,32 6.77243674,32 L3.9420118,32 C3.492738,32 3.08839158,31.5956536 3.08839158,31.1463798 Z M37.0534909,20.6333729 L37.0534909,1.40445422 C37.0534909,0.95518042 37.4578373,0.550834 37.9071111,0.550834 L40.9172455,0.550834 C41.4114467,0.550834 41.7708658,0.95518042 41.7708658,1.40445422 L41.7708658,20.3188812 C41.7708658,24.8116192 44.6462181,27.9565358 49.2288108,27.9565358 C53.856331,27.9565358 56.7766107,24.8565466 56.7766107,20.408736 L56.7766107,1.40445422 C56.7766107,0.95518042 57.1360297,0.550834 57.6302309,0.550834 L60.6403654,0.550834 C61.0896392,0.550834 61.4939856,0.95518042 61.4939856,1.40445422 L61.4939856,20.6333729 C61.4939856,27.4623346 56.3273369,32.4492738 49.2288108,32.4492738 C42.1752122,32.4492738 37.0534909,27.4623346 37.0534909,20.6333729 Z M69.3562771,31.1463798 L69.3562771,1.40445422 C69.3562771,0.95518042 69.7156961,0.550834 70.2098973,0.550834 L88.1808493,0.550834 C88.6750505,0.550834 89.0344695,0.95518042 89.0344695,1.40445422 L89.0344695,3.9203875 C89.0344695,4.3696613 88.6750505,4.77400772 88.1808493,4.77400772 L73.9837972,4.77400772 L73.9837972,13.9391932 L85.9794077,13.9391932 C86.4286815,13.9391932 86.8330279,14.3435397 86.8330279,14.7928135 L86.8330279,17.3087467 C86.8330279,17.8029479 86.4286815,18.162367 85.9794077,18.162367 L73.9837972,18.162367 L73.9837972,27.8217537 L88.1808493,27.8217537 C88.6750505,27.8217537 89.0344695,28.2261001 89.0344695,28.6753739 L89.0344695,31.1463798 C89.0344695,31.5956536 88.6750505,32 88.1808493,32 L70.2098973,32 C69.7156961,32 69.3562771,31.5956536 69.3562771,31.1463798 Z M105.073544,31.9550726 L91.3706933,1.71894588 C91.101129,1.13488994 91.460548,0.550834 92.1344587,0.550834 L95.3243027,0.550834 C95.6837218,0.550834 95.9982134,0.82039828 96.0880682,1.04503518 L105.972092,23.2840883 L106.196729,23.2840883 L116.12568,1.04503518 C116.215534,0.82039828 116.485099,0.550834 116.889445,0.550834 L120.079289,0.550834 C120.7532,0.550834 121.112619,1.13488994 120.843055,1.71894588 L107.050349,31.9550726 C106.915567,32.2246369 106.646002,32.4492738 106.286583,32.4492738 L105.83731,32.4492738 C105.522818,32.4492738 105.208326,32.2246369 105.073544,31.9550726 Z M117.159009,32 C116.485099,32 116.12568,31.4159441 116.395244,30.8318881 L130.18795,0.59576138 C130.322732,0.3261971 130.727078,0.1015602 130.951715,0.1015602 L131.400989,0.1015602 C131.625626,0.1015602 132.029972,0.3261971 132.164754,0.59576138 L145.867605,30.8318881 C146.137169,31.4159441 145.77775,32 145.10384,32 L142.273415,32 C141.734286,32 141.419795,31.7304357 141.240085,31.3260893 L138.454587,25.1710382 L123.763334,25.1710382 L121.022764,31.3260893 C120.887982,31.640581 120.528563,32 119.989434,32 L117.159009,32 Z M125.515502,21.3072836 L136.747347,21.3072836 L131.221279,8.99718144 L130.996642,8.99718144 L125.515502,21.3072836 Z" id="NUEVA"></path>
                        <path d="M2.03198832,51.6756442 C2.03198832,46.5614002 6.17452596,42.4444338 11.28877,42.4444338 C13.8970344,42.4444338 15.8404471,43.3138553 17.5025764,44.8225573 C17.6304325,44.9504134 17.6560037,45.1549831 17.5281476,45.2828392 L17.1190081,45.71755 C16.9655808,45.8709773 16.8377247,45.8454061 16.6842974,45.6919787 C15.2267378,44.3878465 13.38561,43.5951387 11.28877,43.5951387 C6.81380646,43.5951387 3.31054932,47.2518232 3.31054932,51.6756442 C3.31054932,56.0738941 6.81380646,59.7050073 11.28877,59.7050073 C13.4878949,59.7050073 15.1500242,58.8355858 16.6842974,57.5570248 C16.8377247,57.4291687 16.991152,57.4035975 17.0934369,57.5058824 L17.5281476,57.9405931 C17.6560037,58.042878 17.6560037,58.2474478 17.5281476,58.3753039 C15.7893047,60.0630044 13.5646085,60.8557122 11.28877,60.8557122 C6.17452596,60.8557122 2.03198832,56.8154594 2.03198832,51.6756442 Z M19.5994165,51.6756442 C19.5994165,46.5614002 23.6908117,42.4444338 28.8050557,42.4444338 C33.9448709,42.4444338 38.0362661,46.5614002 38.0362661,51.6756442 C38.0362661,56.8154594 33.9448709,60.8557122 28.8050557,60.8557122 C23.6908117,60.8557122 19.5994165,56.8154594 19.5994165,51.6756442 Z M20.7245501,51.6756442 C20.7245501,56.1506077 24.3300922,59.7305785 28.8050557,59.7305785 C33.2800192,59.7305785 36.9111324,56.1506077 36.9111324,51.6756442 C36.9111324,47.2006807 33.2800192,43.5695675 28.8050557,43.5695675 C24.3300922,43.5695675 20.7245501,47.2006807 20.7245501,51.6756442 Z M42.0509476,60.2675741 L42.0509476,43.0325719 C42.0509476,42.8535733 42.2043749,42.700146 42.3833735,42.700146 L42.9459403,42.700146 C43.0993676,42.700146 43.252795,42.8535733 43.252795,43.0325719 L43.252795,59.5260088 L51.4100141,59.5260088 C51.7168688,59.5260088 51.74244,59.6794361 51.74244,59.8584346 L51.74244,60.3187166 C51.74244,60.4977151 51.5890127,60.6 51.4100141,60.6 L42.3833735,60.6 C42.2043749,60.6 42.0509476,60.4465727 42.0509476,60.2675741 Z M54.6831303,60.2675741 L54.6831303,43.0325719 C54.6831303,42.8535733 54.8365576,42.700146 55.0155562,42.700146 L65.2696154,42.700146 C65.4486139,42.700146 65.6020412,42.8535733 65.6020412,43.0325719 L65.6020412,43.4672826 C65.6020412,43.6462811 65.4486139,43.7997085 65.2696154,43.7997085 L55.9105489,43.7997085 L55.9105489,50.8573652 L64.0166256,50.8573652 C64.1956241,50.8573652 64.3490515,51.0107925 64.3490515,51.189791 L64.3490515,51.6245018 C64.3490515,51.8035003 64.1956241,51.9569276 64.0166256,51.9569276 L55.9105489,51.9569276 L55.9105489,59.5260088 L65.2696154,59.5260088 C65.4486139,59.5260088 65.6020412,59.6794361 65.6020412,59.8584346 L65.6020412,60.2675741 C65.6020412,60.4465727 65.4486139,60.6 65.2696154,60.6 L55.0155562,60.6 C54.8365576,60.6 54.6831303,60.4465727 54.6831303,60.2675741 Z M67.8267374,51.6756442 C67.8267374,46.5614002 71.969275,42.4444338 77.083519,42.4444338 C79.6917835,42.4444338 81.6351962,43.3138553 83.2973255,44.8225573 C83.4251816,44.9504134 83.4507528,45.1549831 83.3228967,45.2828392 L82.9137572,45.71755 C82.7603299,45.8709773 82.6324738,45.8454061 82.4790464,45.6919787 C81.0214869,44.3878465 79.1803591,43.5951387 77.083519,43.5951387 C72.6085555,43.5951387 69.1052984,47.2518232 69.1052984,51.6756442 C69.1052984,56.0738941 72.6085555,59.7050073 77.083519,59.7050073 C79.2826439,59.7050073 80.9447732,58.8355858 82.4790464,57.5570248 C82.6324738,57.4291687 82.7859011,57.4035975 82.888186,57.5058824 L83.3228967,57.9405931 C83.4507528,58.042878 83.4507528,58.2474478 83.3228967,58.3753039 C81.5840537,60.0630044 79.3593576,60.8557122 77.083519,60.8557122 C71.969275,60.8557122 67.8267374,56.8154594 67.8267374,51.6756442 Z M85.3941655,51.6756442 C85.3941655,46.5614002 89.5367032,42.4444338 94.6509472,42.4444338 C97.2592116,42.4444338 99.2026243,43.3138553 100.864754,44.8225573 C100.99261,44.9504134 101.018181,45.1549831 100.890325,45.2828392 L100.481185,45.71755 C100.327758,45.8709773 100.199902,45.8454061 100.046475,45.6919787 C98.588915,44.3878465 96.7477872,43.5951387 94.6509472,43.5951387 C90.1759837,43.5951387 86.6727265,47.2518232 86.6727265,51.6756442 C86.6727265,56.0738941 90.1759837,59.7050073 94.6509472,59.7050073 C96.8500721,59.7050073 98.5122014,58.8355858 100.046475,57.5570248 C100.199902,57.4291687 100.353329,57.4035975 100.455614,57.5058824 L100.890325,57.9405931 C101.018181,58.042878 101.018181,58.2474478 100.890325,58.3753039 C99.1514819,60.0630044 96.9267857,60.8557122 94.6509472,60.8557122 C89.5367032,60.8557122 85.3941655,56.8154594 85.3941655,51.6756442 Z M104.828293,60.2675741 L104.828293,43.0325719 C104.828293,42.8535733 104.98172,42.700146 105.160719,42.700146 L105.723285,42.700146 C105.902284,42.700146 106.055711,42.8535733 106.055711,43.0325719 L106.055711,60.2675741 C106.055711,60.4721439 105.876713,60.6 105.697714,60.6 L105.160719,60.6 C104.98172,60.6 104.828293,60.4465727 104.828293,60.2675741 Z M110.070393,51.6756442 C110.070393,46.5614002 114.161788,42.4444338 119.276032,42.4444338 C124.415847,42.4444338 128.507242,46.5614002 128.507242,51.6756442 C128.507242,56.8154594 124.415847,60.8557122 119.276032,60.8557122 C114.161788,60.8557122 110.070393,56.8154594 110.070393,51.6756442 Z M111.195526,51.6756442 C111.195526,56.1506077 114.801069,59.7305785 119.276032,59.7305785 C123.750996,59.7305785 127.382109,56.1506077 127.382109,51.6756442 C127.382109,47.2006807 123.750996,43.5695675 119.276032,43.5695675 C114.801069,43.5695675 111.195526,47.2006807 111.195526,51.6756442 Z M117.537189,40.603306 C117.307048,40.7055908 117.204763,40.6800196 117.12805,40.5265923 L117.000193,40.2708801 C116.949051,40.143024 116.974622,40.0151679 117.153621,39.912883 L121.347301,37.6114732 C121.449586,37.5603308 121.679727,37.5091883 121.782012,37.6881869 L122.037724,38.1996113 C122.114437,38.3530386 122.088866,38.5064659 121.935439,38.5831796 L117.537189,40.603306 Z M132.547495,60.2675741 L132.547495,42.7768597 C132.547495,42.5722899 132.726494,42.4444338 132.931063,42.4444338 L133.110062,42.4444338 C133.289061,42.4444338 133.416917,42.4955762 133.519202,42.6490036 L145.63996,58.4264463 L145.665531,58.4264463 L145.665531,43.0325719 C145.665531,42.8535733 145.818958,42.700146 145.997957,42.700146 L146.509381,42.700146 C146.68838,42.700146 146.841807,42.8535733 146.841807,43.0325719 L146.841807,60.5232863 C146.841807,60.7534273 146.637237,60.8557122 146.432668,60.8557122 L146.355954,60.8557122 C146.176955,60.8557122 146.049099,60.8045698 145.946814,60.6511424 L133.723771,44.7202724 L133.6982,44.7202724 L133.6982,60.2675741 C133.6982,60.4465727 133.544773,60.6 133.365774,60.6 L132.879921,60.6 C132.700923,60.6 132.547495,60.4465727 132.547495,60.2675741 Z" id="COLECCIÓN"></path>
                    </g>
                </g>
                <path d="M169,4.5 L169,118.5" id="Path-4" stroke="#FFFFFF"></path>
                <g id="Page-1" transform="translate(192.000000, 0.000000)">
                    <path d="M11.4023805,35.297998 L3.9685104,38.8237039 C3.15260392,39.1852039 2.15544048,39.0042877 1.88347166,38.1906632 L0.795596357,34.9361655 C0.523627532,34.2129992 0.704884499,33.4896666 1.06739843,33.0378747 L12.9434816,22.2798407 C13.9408118,21.4662163 14.8472634,21.10455 16.1165624,21.10455 L18.9269625,21.10455 C19.8335809,21.10455 20.5587755,21.9180081 20.5587755,22.822257 L20.5587755,82.5790063 C20.5587755,83.5733807 19.8335809,84.3870051 18.9269625,84.3870051 L13.2154505,84.3870051 C12.218287,84.3870051 11.4023805,83.5733807 11.4023805,82.5790063 L11.4023805,35.297998 Z" id="Fill-1" fill="#FFFFFF"></path>
                    <path d="M63.4390546,52.7457277 C63.4390546,37.467447 58.4530706,28.7889526 49.7499015,28.7889526 C41.0468991,28.7889526 36.0607484,37.467447 36.0607484,52.7457277 C36.0607484,68.204592 41.0468991,76.883419 49.7499015,76.883419 C58.4530706,76.883419 63.4390546,68.204592 63.4390546,52.7457277 M26.6323846,52.7457277 C26.6323846,32.3146585 35.0634182,20.2005838 49.7499015,20.2005838 C64.436218,20.2005838 72.8674184,32.3146585 72.8674184,52.7457277 C72.8674184,73.086505 64.436218,85.2908716 49.7499015,85.2908716 C35.0634182,85.2908716 26.6323846,73.086505 26.6323846,52.7457277" id="Fill-3" fill="#FFFFFF"></path>
                    <path d="M112.575184,52.7457277 C112.575184,37.467447 107.5892,28.7889526 98.8860305,28.7889526 C90.1830281,28.7889526 85.1968774,37.467447 85.1968774,52.7457277 C85.1968774,68.204592 90.1830281,76.883419 98.8860305,76.883419 C107.5892,76.883419 112.575184,68.204592 112.575184,52.7457277 M75.7685137,52.7457277 C75.7685137,32.3146585 84.1995472,20.2005838 98.8860305,20.2005838 C113.572347,20.2005838 122.003547,32.3146585 122.003547,52.7457277 C122.003547,73.086505 113.572347,85.2908716 98.8860305,85.2908716 C84.1995472,85.2908716 75.7685137,73.086505 75.7685137,52.7457277" id="Fill-5" fill="#FFFFFF"></path>
                    <path d="M3.23782972,91.9869857 C3.73974643,91.9869857 4.13244207,91.5809218 4.13244207,91.0584595 C4.13244207,90.5652631 3.73974643,90.1881324 3.23782972,90.1881324 L2.20481508,90.1881324 L2.20481508,91.9869857 L3.23782972,91.9869857 Z M1.4556085,89.6003208 C1.4556085,89.5279875 1.51380416,89.4626382 1.59384403,89.4626382 L3.25233694,89.4626382 C4.14711605,89.4626382 4.8818154,90.1881324 4.8818154,91.065776 C4.8818154,91.9652026 4.14711605,92.6978471 3.25967393,92.6978471 L2.20481508,92.6978471 L2.20481508,94.402584 C2.20481508,94.4752498 2.13928243,94.5404329 2.0667463,94.5404329 L1.59384403,94.5404329 C1.51380416,94.5404329 1.4556085,94.4752498 1.4556085,94.402584 L1.4556085,89.6003208 Z" id="Fill-7" fill="#FFFFFF"></path>
                    <path d="M7.81285894,91.9290027 C8.2857612,91.9290027 8.70030106,91.530089 8.70030106,91.0295761 C8.70030106,90.5579965 8.2857612,90.1662329 7.81285894,90.1662329 L6.51804722,90.1662329 L6.51804722,91.9290027 L7.81285894,91.9290027 Z M5.75416666,89.6003707 C5.75416666,89.5280374 5.81252907,89.4626881 5.89240219,89.4626881 L7.87122135,89.4626881 C8.74398949,89.4626881 9.45684462,90.1517663 9.45684462,91.0149431 C9.45684462,91.6824045 9.01312357,92.2336338 8.38030831,92.4875485 L9.3769715,94.3301343 C9.42783017,94.424417 9.3769715,94.5404828 9.25324319,94.5404828 L8.70763804,94.5404828 C8.62776492,94.5404828 8.58390974,94.504233 8.55489528,94.4462001 L7.60192052,92.5528979 L6.50337324,92.5528979 L6.50337324,94.4026339 C6.50337324,94.4752997 6.43800734,94.5404828 6.36530445,94.5404828 L5.89240219,94.5404828 C5.81252907,94.5404828 5.75416666,94.4752997 5.75416666,94.4026339 L5.75416666,89.6003707 Z" id="Fill-9" fill="#FFFFFF"></path>
                    <path d="M12.817152,93.9094707 C13.8575036,93.9094707 14.7085943,93.0462938 14.7085943,92.008852 C14.7085943,90.9787266 13.8575036,90.0937666 12.817152,90.0937666 C11.7843041,90.0937666 10.9330467,90.9787266 10.9330467,92.008852 C10.9330467,93.0462938 11.7843041,93.9094707 12.817152,93.9094707 M12.817152,89.3900555 C14.2722102,89.3900555 15.4359567,90.5580297 15.4359567,92.008852 C15.4359567,93.4596742 14.2722102,94.6130156 12.817152,94.6130156 C11.3622605,94.6130156 10.2056844,93.4596742 10.2056844,92.008852 C10.2056844,90.5580297 11.3622605,89.3900555 12.817152,89.3900555" id="Fill-11" fill="#FFFFFF"></path>
                    <path d="M18.1704023,93.851338 C19.2397684,93.851338 19.9963119,93.0679772 19.9963119,91.9942856 C19.9963119,90.9279104 19.2397684,90.151866 18.1704023,90.151866 L17.1884131,90.151866 L17.1884131,93.851338 L18.1704023,93.851338 Z M16.4463767,89.6004704 C16.4463767,89.5279709 16.5047391,89.4626215 16.5772753,89.4626215 L18.2504422,89.4626215 C19.6543082,89.4626215 20.8038809,90.6014962 20.8038809,91.9942856 C20.8038809,93.4017079 19.6543082,94.5405825 18.2504422,94.5405825 L16.5772753,94.5405825 C16.5047391,94.5405825 16.4463767,94.4752332 16.4463767,94.4025674 L16.4463767,89.6004704 Z" id="Fill-13" fill="#FFFFFF"></path>
                    <path d="M21.7706626,89.6003873 C21.7706626,89.5278878 21.8361952,89.4627047 21.9088981,89.4627047 L22.3963076,89.4627047 C22.4763475,89.4627047 22.5345431,89.5278878 22.5345431,89.6003873 L22.5345431,92.6543473 C22.5345431,93.3798416 23.0001084,93.887671 23.7421447,93.887671 C24.4913513,93.887671 24.9640868,93.3869918 24.9640868,92.6689803 L24.9640868,89.6003873 C24.9640868,89.5278878 25.0224492,89.4627047 25.1023224,89.4627047 L25.5897318,89.4627047 C25.6626015,89.4627047 25.7279674,89.5278878 25.7279674,89.6003873 L25.7279674,92.70523 C25.7279674,93.8078549 24.8915507,94.6131652 23.7421447,94.6131652 C22.6000758,94.6131652 21.7706626,93.8078549 21.7706626,92.70523 L21.7706626,89.6003873 Z" id="Fill-15" fill="#FFFFFF"></path>
                    <path d="M29.3136537,89.3901054 C30.0483531,89.3901054 30.579451,89.6367036 31.0740307,90.0647169 C31.1393966,90.1227498 31.1393966,90.2098823 31.0813677,90.2677489 L30.761375,90.5943294 C30.7103495,90.6596788 30.6448169,90.6596788 30.579451,90.5943294 C30.2374473,90.2968485 29.771882,90.1081169 29.320824,90.1081169 C28.2806391,90.1081169 27.4950811,90.9787765 27.4950811,91.9942689 C27.4950811,93.0099277 28.2879761,93.8731045 29.3281609,93.8731045 C29.8590921,93.8731045 30.2301103,93.6627561 30.579451,93.3943748 C30.6448169,93.3434921 30.7103495,93.3508085 30.754038,93.3870583 L31.0887047,93.7134725 C31.1467336,93.7643552 31.1322264,93.8586379 31.0813677,93.9095206 C30.5866212,94.3882504 29.961143,94.6130654 29.3136537,94.6130654 C27.8585955,94.6130654 26.6875121,93.4597241 26.6875121,92.0089019 C26.6875121,90.5579133 27.8585955,89.3901054 29.3136537,89.3901054" id="Fill-17" fill="#FFFFFF"></path>
                    <path d="M32.9284045,90.1445496 L31.7426472,90.1445496 C31.6626073,90.1445496 31.6044116,90.0792002 31.6044116,90.0067007 L31.6044116,89.6004704 C31.6044116,89.5279709 31.6626073,89.4626215 31.7426472,89.4626215 L34.8705388,89.4626215 C34.9507454,89.4626215 35.008941,89.5279709 35.008941,89.6004704 L35.008941,90.0067007 C35.008941,90.0792002 34.9507454,90.1445496 34.8705388,90.1445496 L33.6849481,90.1445496 L33.6849481,94.4025674 C33.6849481,94.4752332 33.6195822,94.5405825 33.5467126,94.5405825 L33.0666401,94.5405825 C32.9939372,94.5405825 32.9284045,94.4752332 32.9284045,94.4025674 L32.9284045,90.1445496 Z" id="Fill-19" fill="#FFFFFF"></path>
                    <path d="M37.9908266,93.9094707 C39.0311782,93.9094707 39.8822689,93.0462938 39.8822689,92.008852 C39.8822689,90.9787266 39.0311782,90.0937666 37.9908266,90.0937666 C36.9579787,90.0937666 36.1067213,90.9787266 36.1067213,92.008852 C36.1067213,93.0462938 36.9579787,93.9094707 37.9908266,93.9094707 M37.9908266,89.3900555 C39.4458848,89.3900555 40.6096312,90.5580297 40.6096312,92.008852 C40.6096312,93.4596742 39.4458848,94.6130156 37.9908266,94.6130156 C36.5359351,94.6130156 35.3793589,93.4596742 35.3793589,92.008852 C35.3793589,90.5580297 36.5359351,89.3900555 37.9908266,89.3900555" id="Fill-21" fill="#FFFFFF"></path>
                    <path d="M41.3437303,93.8078217 L41.5328245,93.5105071 C41.5908534,93.4162244 41.7002412,93.3871248 41.7801144,93.4523079 C42.1221181,93.7351559 42.3839152,93.9529871 42.9440275,93.9529871 C43.4459443,93.9529871 43.765937,93.6481897 43.765937,93.2782092 C43.765937,92.8430457 43.3877486,92.5673479 42.6675565,92.2700333 C41.9255201,91.9580857 41.3437303,91.5734723 41.3437303,90.7320785 C41.3437303,90.1663826 41.7801144,89.3901719 42.9368573,89.3901719 C43.6642197,89.3901719 44.2098248,89.7673025 44.2825277,89.8181852 C44.3407234,89.854435 44.398919,89.9558678 44.3262161,90.0646172 L44.1442922,90.340315 C44.0860965,90.4347639 43.9915494,90.4783301 43.8898321,90.4129808 C43.606024,90.2315656 43.3295529,90.0501505 42.9076761,90.0501505 C42.2967051,90.0501505 42.0855999,90.4347639 42.0855999,90.7031452 C42.0855999,91.1165256 42.4057594,91.3704403 43.0093934,91.6170385 C43.8533139,91.9580857 44.573506,92.3569994 44.573506,93.2421257 C44.573506,93.9965533 43.8970023,94.613132 42.9513645,94.613132 C42.0637557,94.613132 41.5036433,94.1488688 41.3874187,94.0399532 C41.3218861,93.9819204 41.2636904,93.9312039 41.3437303,93.8078217" id="Fill-23" fill="#FFFFFF"></path>
                    <path d="M49.5848192,93.9021709 C50.6251709,93.9021709 51.4762615,93.0463105 51.4762615,92.0088686 C51.4762615,90.9787433 50.6251709,90.0937833 49.5848192,90.0937833 C48.5519714,90.0937833 47.7007139,90.9787433 47.7007139,92.0088686 C47.7007139,93.0463105 48.5519714,93.9021709 49.5848192,93.9021709 M49.5848192,89.3900721 C51.0398775,89.3900721 52.2036239,90.5580464 52.2036239,92.0088686 C52.2036239,93.038994 51.5999899,93.9312704 50.719718,94.366434 L51.5999899,95.7592233 C51.6655225,95.8606562 51.5999899,95.9768882 51.4835985,95.9768882 L50.9159824,95.9768882 C50.8871347,95.9768882 50.8287723,95.9551051 50.7997579,95.9042224 L50.0140331,94.5840989 C49.8757975,94.6057157 49.7158845,94.6130322 49.5848192,94.6130322 C48.1299278,94.6130322 46.9733516,93.4596909 46.9733516,92.0088686 C46.9733516,90.5580464 48.1299278,89.3900721 49.5848192,89.3900721" id="Fill-25" fill="#FFFFFF"></path>
                    <path d="M53.1631019,89.6003873 C53.1631019,89.5278878 53.2286346,89.4627047 53.3013374,89.4627047 L53.7887469,89.4627047 C53.8687868,89.4627047 53.9269825,89.5278878 53.9269825,89.6003873 L53.9269825,92.6543473 C53.9269825,93.3798416 54.3925477,93.887671 55.1345841,93.887671 C55.8837907,93.887671 56.3565262,93.3869918 56.3565262,92.6689803 L56.3565262,89.6003873 C56.3565262,89.5278878 56.4148886,89.4627047 56.4947617,89.4627047 L56.9821712,89.4627047 C57.0550408,89.4627047 57.1204067,89.5278878 57.1204067,89.6003873 L57.1204067,92.70523 C57.1204067,93.8078549 56.28399,94.6131652 55.1345841,94.6131652 C53.9925151,94.6131652 53.1631019,93.8078549 53.1631019,92.70523 L53.1631019,89.6003873 Z" id="Fill-27" fill="#FFFFFF"></path>
                    <path d="M58.3927573,89.6003873 C58.3927573,89.5278878 58.4511197,89.4627047 58.5309928,89.4627047 L61.4407757,89.4627047 C61.5208156,89.4627047 61.5788445,89.5278878 61.5788445,89.6003873 L61.5788445,90.0066175 C61.5788445,90.0792833 61.5208156,90.1444664 61.4407757,90.1444664 L59.1419638,90.1444664 L59.1419638,91.6243883 L61.0844316,91.6243883 C61.1569677,91.6243883 61.2225003,91.6895713 61.2225003,91.7622372 L61.2225003,92.1683011 C61.2225003,92.2482834 61.1569677,92.30615 61.0844316,92.30615 L59.1419638,92.30615 L59.1419638,93.8658878 L61.4407757,93.8658878 C61.5208156,93.8658878 61.5788445,93.9312372 61.5788445,94.0035704 L61.5788445,94.4026505 C61.5788445,94.47515 61.5208156,94.5404994 61.4407757,94.5404994 L58.5309928,94.5404994 C58.4511197,94.5404994 58.3927573,94.47515 58.3927573,94.4026505 L58.3927573,89.6003873 Z" id="Fill-29" fill="#FFFFFF"></path>
                    <path d="M64.3279975,89.6003873 C64.3279975,89.5278878 64.3935301,89.4627047 64.466233,89.4627047 L64.9463055,89.4627047 C65.0263454,89.4627047 65.084541,89.5278878 65.084541,89.6003873 L65.084541,91.6243883 L67.7470341,91.6243883 L67.7470341,89.6003873 C67.7470341,89.5278878 67.8052298,89.4627047 67.8852697,89.4627047 L68.3653422,89.4627047 C68.438045,89.4627047 68.5035777,89.5278878 68.5035777,89.6003873 L68.5035777,94.4026505 C68.5035777,94.47515 68.438045,94.5404994 68.3653422,94.5404994 L67.8852697,94.5404994 C67.8052298,94.5404994 67.7470341,94.47515 67.7470341,94.4026505 L67.7470341,92.30615 L65.084541,92.30615 L65.084541,94.4026505 C65.084541,94.47515 65.0263454,94.5404994 64.9463055,94.5404994 L64.466233,94.5404994 C64.3935301,94.5404994 64.3279975,94.47515 64.3279975,94.4026505 L64.3279975,89.6003873 Z" id="Fill-31" fill="#FFFFFF"></path>
                    <path d="M72.496617,92.8140126 L71.6018379,90.8264277 L71.5654864,90.8264277 L70.6780443,92.8140126 L72.496617,92.8140126 Z M69.2011419,94.3519673 L71.4345879,89.4698881 C71.4564321,89.4263219 71.521798,89.3900721 71.5581494,89.3900721 L71.6310191,89.3900721 C71.6672038,89.3900721 71.7327364,89.4263219 71.7545806,89.4698881 L73.9731859,94.3519673 C74.0168743,94.4460837 73.9588454,94.5405326 73.8496244,94.5405326 L73.3912293,94.5405326 C73.3040192,94.5405326 73.2531605,94.4969664 73.2239793,94.4317833 L72.7729213,93.4379077 L70.394403,93.4379077 L69.9505152,94.4317833 C69.9288377,94.4824998 69.8704753,94.5405326 69.7832652,94.5405326 L69.3248702,94.5405326 C69.2158159,94.5405326 69.1576202,94.4460837 69.2011419,94.3519673 Z" id="Fill-33" fill="#FFFFFF"></path>
                    <path d="M76.7370128,91.9290027 C77.2099151,91.9290027 77.6244549,91.530089 77.6244549,91.0295761 C77.6244549,90.5579965 77.2099151,90.1662329 76.7370128,90.1662329 L75.4422011,90.1662329 L75.4422011,91.9290027 L76.7370128,91.9290027 Z M74.6783205,89.6003707 C74.6783205,89.5280374 74.7366829,89.4626881 74.8165561,89.4626881 L76.7953752,89.4626881 C77.6681434,89.4626881 78.3809985,90.1517663 78.3809985,91.0149431 C78.3809985,91.6824045 77.9372774,92.2336338 77.3044622,92.4875485 L78.3011254,94.3301343 C78.3519841,94.424417 78.3011254,94.5404828 78.1773971,94.5404828 L77.6317919,94.5404828 C77.5519188,94.5404828 77.5082304,94.504233 77.4790492,94.4462001 L76.5260744,92.5528979 L75.4275271,92.5528979 L75.4275271,94.4026339 C75.4275271,94.4752997 75.3621612,94.5404828 75.2894583,94.5404828 L74.8165561,94.5404828 C74.7366829,94.5404828 74.6783205,94.4752997 74.6783205,94.4026339 L74.6783205,89.6003707 Z" id="Fill-35" fill="#FFFFFF"></path>
                    <path d="M80.5265007,88.8896257 L80.4247834,88.6864275 C80.3956022,88.6283946 80.4321203,88.5703617 80.468305,88.5485786 L81.610374,87.8884337 C81.6540624,87.8595004 81.7631168,87.8450337 81.799635,87.9102168 L81.966885,88.2293145 C82.0104066,88.3019804 81.9815589,88.3744799 81.9231965,88.4035795 L80.7010877,88.9258755 C80.6065406,88.9692755 80.5556819,88.9549751 80.5265007,88.8896257 Z M82.1124575,92.8140791 L81.2176784,90.8263279 L81.1813269,90.8263279 L80.2937181,92.8140791 L82.1124575,92.8140791 Z M78.8169824,94.3520338 L81.0504284,89.4697884 C81.0721058,89.4263884 81.1376385,89.3901386 81.1739899,89.3901386 L81.2466928,89.3901386 C81.2830443,89.3901386 81.3485769,89.4263884 81.3704211,89.4697884 L83.5890264,94.3520338 C83.6327148,94.4461502 83.5745192,94.5404329 83.4654649,94.5404329 L83.0070698,94.5404329 C82.9198597,94.5404329 82.869001,94.4970329 82.8398198,94.4316836 L82.3887618,93.4379743 L80.0100768,93.4379743 L79.5663557,94.4316836 C79.5445115,94.4825663 79.4863158,94.5404329 79.398939,94.5404329 L78.9407107,94.5404329 C78.8316564,94.5404329 78.7732939,94.4461502 78.8169824,94.3520338 Z" id="Fill-37" fill="#FFFFFF"></path>
                    <path d="M84.294161,89.5206544 C84.294161,89.4479886 84.3596937,89.390122 84.4323966,89.390122 L84.4905922,89.390122 C84.5632951,89.390122 84.6143205,89.390122 84.7087009,89.4988713 L87.7642231,93.0315611 L87.7785636,93.0315611 L87.7785636,89.6003042 C87.7785636,89.5279709 87.8367593,89.4626215 87.9169659,89.4626215 L88.3825312,89.4626215 C88.4550673,89.4626215 88.5205999,89.5279709 88.5205999,89.6003042 L88.5205999,94.4825496 C88.5205999,94.5548829 88.4550673,94.6130821 88.3825312,94.6130821 L88.3169985,94.6130821 C88.2441289,94.6130821 88.1932702,94.6130821 88.1058933,94.5114829 L85.0433676,90.8698775 L85.0288604,90.8698775 L85.0288604,94.4025674 C85.0288604,94.4752332 84.9708315,94.5404163 84.8906249,94.5404163 L84.4323966,94.5404163 C84.3596937,94.5404163 84.294161,94.4752332 84.294161,94.4025674 L84.294161,89.5206544 Z" id="Fill-39" fill="#FFFFFF"></path>
                    <path d="M92.2297478,90.1445496 L91.0439904,90.1445496 C90.9639505,90.1445496 90.9057549,90.0792002 90.9057549,90.0067007 L90.9057549,89.6004704 C90.9057549,89.5279709 90.9639505,89.4626215 91.0439904,89.4626215 L94.171882,89.4626215 C94.2520886,89.4626215 94.3102843,89.5279709 94.3102843,89.6004704 L94.3102843,90.0067007 C94.3102843,90.0792002 94.2520886,90.1445496 94.171882,90.1445496 L92.9862914,90.1445496 L92.9862914,94.4025674 C92.9862914,94.4752332 92.9209255,94.5405825 92.8480558,94.5405825 L92.3679833,94.5405825 C92.2952804,94.5405825 92.2297478,94.4752332 92.2297478,94.4025674 L92.2297478,90.1445496 Z" id="Fill-41" fill="#FFFFFF"></path>
                    <path d="M95.1097659,89.6003873 C95.1097659,89.5278878 95.1752986,89.4627047 95.2480014,89.4627047 L95.7354109,89.4627047 C95.8154508,89.4627047 95.8736465,89.5278878 95.8736465,89.6003873 L95.8736465,92.6543473 C95.8736465,93.3798416 96.3392117,93.887671 97.0812481,93.887671 C97.8304547,93.887671 98.3031902,93.3869918 98.3031902,92.6689803 L98.3031902,89.6003873 C98.3031902,89.5278878 98.3615526,89.4627047 98.4414257,89.4627047 L98.9288352,89.4627047 C99.0017048,89.4627047 99.0670707,89.5278878 99.0670707,89.6003873 L99.0670707,92.70523 C99.0670707,93.8078549 98.230654,94.6131652 97.0812481,94.6131652 C95.9391791,94.6131652 95.1097659,93.8078549 95.1097659,92.70523 L95.1097659,89.6003873 Z" id="Fill-43" fill="#FFFFFF"></path>
                    <path d="M101.808753,93.8078217 L101.997847,93.5105071 C102.055876,93.4162244 102.165264,93.3871248 102.245137,93.4523079 C102.587141,93.7351559 102.848938,93.9529871 103.409051,93.9529871 C103.910967,93.9529871 104.23096,93.6481897 104.23096,93.2782092 C104.23096,92.8430457 103.852772,92.5673479 103.132579,92.2700333 C102.390543,91.9580857 101.808753,91.5734723 101.808753,90.7320785 C101.808753,90.1663826 102.245137,89.3901719 103.40188,89.3901719 C104.129243,89.3901719 104.674681,89.7673025 104.747551,89.8181852 C104.805746,89.854435 104.863942,89.9558678 104.791239,90.0646172 L104.609315,90.340315 C104.551119,90.4347639 104.456572,90.4783301 104.354855,90.4129808 C104.071047,90.2315656 103.794576,90.0501505 103.372699,90.0501505 C102.761728,90.0501505 102.550623,90.4347639 102.550623,90.7031452 C102.550623,91.1165256 102.870782,91.3704403 103.474416,91.6170385 C104.318337,91.9580857 105.038529,92.3569994 105.038529,93.2421257 C105.038529,93.9965533 104.362025,94.613132 103.416388,94.613132 C102.528779,94.613132 101.968666,94.1488688 101.852442,94.0399532 C101.786909,93.9819204 101.728713,93.9312039 101.808753,93.8078217" id="Fill-45" fill="#FFFFFF"></path>
                    <path d="M105.954535,89.6003873 C105.954535,89.5278878 106.020068,89.4627047 106.092771,89.4627047 L106.58018,89.4627047 C106.66022,89.4627047 106.718416,89.5278878 106.718416,89.6003873 L106.718416,92.6543473 C106.718416,93.3798416 107.183981,93.887671 107.926017,93.887671 C108.675224,93.887671 109.14796,93.3869918 109.14796,92.6689803 L109.14796,89.6003873 C109.14796,89.5278878 109.206322,89.4627047 109.286195,89.4627047 L109.773605,89.4627047 C109.846474,89.4627047 109.91184,89.5278878 109.91184,89.6003873 L109.91184,92.70523 C109.91184,93.8078549 109.075423,94.6131652 107.926017,94.6131652 C106.783949,94.6131652 105.954535,93.8078549 105.954535,92.70523 L105.954535,89.6003873 Z" id="Fill-47" fill="#FFFFFF"></path>
                    <path d="M111.184191,89.6003873 C111.184191,89.5278878 111.242553,89.4627047 111.322426,89.4627047 L114.232209,89.4627047 C114.312249,89.4627047 114.370278,89.5278878 114.370278,89.6003873 L114.370278,90.0066175 C114.370278,90.0792833 114.312249,90.1444664 114.232209,90.1444664 L111.933397,90.1444664 L111.933397,91.6243883 L113.875865,91.6243883 C113.948401,91.6243883 114.014101,91.6895713 114.014101,91.7622372 L114.014101,92.1683011 C114.014101,92.2482834 113.948401,92.30615 113.875865,92.30615 L111.933397,92.30615 L111.933397,93.8658878 L114.232209,93.8658878 C114.312249,93.8658878 114.370278,93.9312372 114.370278,94.0035704 L114.370278,94.4026505 C114.370278,94.47515 114.312249,94.5404994 114.232209,94.5404994 L111.322426,94.5404994 C111.242553,94.5404994 111.184191,94.47515 111.184191,94.4026505 L111.184191,89.6003873 Z" id="Fill-49" fill="#FFFFFF"></path>
                    <path d="M116.464971,88.6864774 C116.392102,88.6429111 116.399439,88.5704116 116.421283,88.5195289 C116.486816,88.3889965 116.704924,87.9102667 117.134305,87.9102667 C117.556182,87.9102667 117.694251,88.3745298 117.9272,88.3745298 C118.094283,88.3745298 118.152646,88.1931147 118.225515,88.0843654 C118.269037,88.0116995 118.319896,87.9682996 118.407106,88.019016 C118.465468,88.0625822 118.552845,88.098832 118.596367,88.1568649 C118.632718,88.2148978 118.610874,88.2729307 118.574522,88.3527467 C118.50182,88.5123787 118.290881,88.8968258 117.890849,88.8968258 C117.519664,88.8968258 117.323232,88.4254125 117.112461,88.4254125 C116.937874,88.4254125 116.843327,88.6282782 116.799638,88.7227271 C116.76312,88.8025431 116.726769,88.8461094 116.632221,88.7952267 L116.464971,88.6864774 Z M115.373761,89.5207209 C115.373761,89.4480551 115.439294,89.3900222 115.511997,89.3900222 L115.570192,89.3900222 C115.642895,89.3900222 115.693921,89.3900222 115.788301,89.4989378 L118.843823,93.0316276 L118.858331,93.0316276 L118.858331,89.6003707 C118.858331,89.5280374 118.916359,89.4626881 118.996566,89.4626881 L119.462131,89.4626881 C119.534667,89.4626881 119.6002,89.5280374 119.6002,89.6003707 L119.6002,94.4824499 C119.6002,94.5549494 119.534667,94.6131486 119.462131,94.6131486 L119.396599,94.6131486 C119.323896,94.6131486 119.27287,94.6131486 119.185493,94.5113832 L116.122968,90.8699441 L116.108461,90.8699441 L116.108461,94.4026339 C116.108461,94.4752997 116.050432,94.5404828 115.970225,94.5404828 L115.511997,94.5404828 C115.439294,94.5404828 115.373761,94.4752997 115.373761,94.4026339 L115.373761,89.5207209 Z" id="Fill-51" fill="#FFFFFF"></path>
                    <path d="M123.222088,93.9094707 C124.262439,93.9094707 125.11353,93.0462938 125.11353,92.008852 C125.11353,90.9787266 124.262439,90.0937666 123.222088,90.0937666 C122.18924,90.0937666 121.337983,90.9787266 121.337983,92.008852 C121.337983,93.0462938 122.18924,93.9094707 123.222088,93.9094707 M123.222088,89.3900555 C124.677146,89.3900555 125.840892,90.5580297 125.840892,92.008852 C125.840892,93.4596742 124.677146,94.6130156 123.222088,94.6130156 C121.767196,94.6130156 120.61062,93.4596742 120.61062,92.008852 C120.61062,90.5580297 121.767196,89.3900555 123.222088,89.3900555" id="Fill-53" fill="#FFFFFF"></path>
                    <g id="Group-57" transform="translate(1.667497, 97.856589)">
                        <mask id="mask-2" fill="white">
                            <use xlink:href="#path-1"></use>
                        </mask>
                        <g id="Clip-56"></g>
                        <path d="M7.46340151,9.82922509 C9.53626752,9.82922509 11.3398327,8.1111855 11.3398327,5.90992649 C11.3398327,3.86962976 9.53626752,2.12481855 7.46340151,2.12481855 L2.24113317,2.12481855 L2.24113317,9.82922509 L7.46340151,9.82922509 Z M0.114406996,0.675160293 C0.114406996,0.406778963 0.32984766,0.165169253 0.625828447,0.165169253 L7.5981353,0.165169253 C10.8284113,0.165169253 13.4665589,2.6886854 13.4665589,5.88315487 C13.4665589,8.35279521 11.8244074,10.4198636 9.48240736,11.3593645 L13.1705781,18.1778133 C13.3588386,18.5268421 13.1705781,18.956352 12.7126833,18.956352 L11.4205396,18.956352 C11.0975453,18.956352 10.9629783,18.821995 10.8284113,18.5536137 L7.32883447,11.6008079 L2.18710626,11.6008079 L2.18710626,18.4461947 C2.18710626,18.7147423 1.94481889,18.956352 1.67568481,18.956352 L0.625828447,18.956352 C0.32984766,18.956352 0.114406996,18.7147423 0.114406996,18.4461947 L0.114406996,0.675160293 Z" id="Fill-55" fill="#FFFFFF" mask="url(#mask-2)"></path>
                    </g>
                    <path d="M19.2788712,98.5317821 C19.2788712,98.2634007 19.4943118,98.021791 19.7902926,98.021791 L30.3967433,98.021791 C30.6928908,98.021791 30.9081648,98.2634007 30.9081648,98.5317821 L30.9081648,99.3103207 C30.9081648,99.578702 30.6928908,99.8203117 30.3967433,99.8203117 L21.3517372,99.8203117 L21.3517372,106.370379 L29.0777529,106.370379 C29.3468869,106.370379 29.5891743,106.611989 29.5891743,106.88037 L29.5891743,107.658909 C29.5891743,107.954228 29.3468869,108.1689 29.0777529,108.1689 L21.3517372,108.1689 L21.3517372,115.014287 L30.3967433,115.014287 C30.6928908,115.014287 30.9081648,115.255896 30.9081648,115.524278 L30.9081648,116.302816 C30.9081648,116.571198 30.6928908,116.812807 30.3967433,116.812807 L19.7902926,116.812807 C19.4943118,116.812807 19.2788712,116.571198 19.2788712,116.302816 L19.2788712,98.5317821 Z" id="Fill-58" fill="#FFFFFF"></path>
                    <g id="Group-62" transform="translate(32.182700, 97.690305)">
                        <mask id="mask-4" fill="white">
                            <use xlink:href="#path-3"></use>
                        </mask>
                        <g id="Clip-61"></g>
                        <path d="M12.9922059,12.7336631 C11.6730487,9.807575 10.380905,6.85471524 9.06191454,3.9286271 L8.84647388,3.9286271 L4.91618252,12.7336631 L12.9922059,12.7336631 Z M0.205168879,18.4247108 L8.38891259,0.358357251 C8.46961947,0.197228683 8.60435326,0.0630380186 8.84647388,0.0630380186 L9.11577471,0.0630380186 C9.35789533,0.0630380186 9.49262912,0.197228683 9.57333599,0.358357251 L17.7030528,18.4247108 C17.8646333,18.7735733 17.6493594,19.1226021 17.2454915,19.1226021 L16.1687884,19.1226021 C15.9265011,19.1226021 15.7649206,18.9614735 15.7110604,18.8272828 L13.7189013,14.3979932 L4.1624737,14.3979932 L2.19732802,18.8272828 C2.14346785,18.9614735 1.9820541,19.1226021 1.73976673,19.1226021 L0.663063664,19.1226021 C0.259195795,19.1226021 0.0437551316,18.7735733 0.205168879,18.4247108 Z" id="Fill-60" fill="#FFFFFF" mask="url(#mask-4)"></path>
                    </g>
                    <path d="M52.6846636,98.5317821 C52.6846636,98.2634007 52.8999375,98.021791 53.196085,98.021791 L54.2459414,98.021791 C54.5152422,98.021791 54.7575296,98.2634007 54.7575296,98.5317821 L54.7575296,115.014287 L62.510392,115.014287 C62.8065395,115.014287 63.0218134,115.255896 63.0218134,115.524278 L63.0218134,116.302816 C63.0218134,116.571198 62.8065395,116.812807 62.510392,116.812807 L53.196085,116.812807 C52.8999375,116.812807 52.6846636,116.571198 52.6846636,116.302816 L52.6846636,98.5317821 Z" id="Fill-63" fill="#FFFFFF"></path>
                    <path d="M65.9821382,98.5317821 C65.9821382,98.2634007 66.2244256,98.021791 66.4935597,98.021791 L67.5702627,98.021791 C67.8397303,98.021791 68.0818509,98.2634007 68.0818509,98.5317821 L68.0818509,116.302816 C68.0818509,116.571198 67.8397303,116.812807 67.5702627,116.812807 L66.4935597,116.812807 C66.2244256,116.812807 65.9821382,116.571198 65.9821382,116.302816 L65.9821382,98.5317821 Z" id="Fill-65" fill="#FFFFFF"></path>
                    <g id="Group-69" transform="translate(73.203136, 97.856589)">
                        <mask id="mask-6" fill="white">
                            <use xlink:href="#path-5"></use>
                        </mask>
                        <g id="Clip-68"></g>
                        <path d="M6.31911478,17.1039721 C10.7339809,17.1039721 13.8296898,13.9632121 13.8296898,9.53392248 C13.8296898,5.13140446 10.7339809,1.99047823 6.31911478,1.99047823 L2.09267588,1.99047823 L2.09267588,17.1039721 L6.31911478,17.1039721 Z M0.0468233268,0.675176921 C0.0468233268,0.406795592 0.26209724,0.165185882 0.53139807,0.165185882 L6.56140215,0.165185882 C11.7568238,0.165185882 16.0101094,4.37980371 16.0101094,9.53392248 C16.0101094,14.7417508 11.7568238,18.9563686 6.56140215,18.9563686 L0.53139807,18.9563686 C0.26209724,18.9563686 0.0468233268,18.7147589 0.0468233268,18.4462113 L0.0468233268,0.675176921 Z" id="Fill-67" fill="#FFFFFF" mask="url(#mask-6)"></path>
                    </g>
                    <g id="Group-72" transform="translate(90.378359, 97.690305)">
                        <mask id="mask-8" fill="white">
                            <use xlink:href="#path-7"></use>
                        </mask>
                        <g id="Clip-71"></g>
                        <path d="M12.9132165,12.7336631 C11.5940594,9.807575 10.3019156,6.85471524 8.98292519,3.9286271 L8.76765128,3.9286271 L4.83719317,12.7336631 L12.9132165,12.7336631 Z M0.126179528,18.4247108 L8.30992324,0.358357251 C8.39063011,0.197228683 8.5253639,0.0630380186 8.76765128,0.0630380186 L9.03678536,0.0630380186 C9.27890598,0.0630380186 9.41363977,0.197228683 9.49434664,0.358357251 L17.6240634,18.4247108 C17.7856439,18.7735733 17.57037,19.1226021 17.1665022,19.1226021 L16.0896323,19.1226021 C15.8475117,19.1226021 15.6859312,18.9614735 15.632071,18.8272828 L13.6399119,14.3979932 L4.08348434,14.3979932 L2.11833867,18.8272828 C2.0644785,18.9614735 1.90306475,19.1226021 1.66077738,19.1226021 L0.583907563,19.1226021 C0.180206443,19.1226021 -0.0352342199,18.7735733 0.126179528,18.4247108 Z" id="Fill-70" fill="#FFFFFF" mask="url(#mask-8)"></path>
                    </g>
                    <g id="Group-75" transform="translate(110.721827, 97.856589)">
                        <mask id="mask-10" fill="white">
                            <use xlink:href="#path-9"></use>
                        </mask>
                        <g id="Clip-74"></g>
                        <path d="M6.35184775,17.1039721 C10.7667139,17.1039721 13.8624228,13.9632121 13.8624228,9.53392248 C13.8624228,5.13140446 10.7667139,1.99047823 6.35184775,1.99047823 L2.12540885,1.99047823 L2.12540885,17.1039721 L6.35184775,17.1039721 Z M0.0795563007,0.675176921 C0.0795563007,0.406795592 0.294996964,0.165185882 0.564131044,0.165185882 L6.59413512,0.165185882 C11.7895568,0.165185882 16.0428424,4.37980371 16.0428424,9.53392248 C16.0428424,14.7417508 11.7895568,18.9563686 6.59413512,18.9563686 L0.564131044,18.9563686 C0.294996964,18.9563686 0.0795563007,18.7147589 0.0795563007,18.4462113 L0.0795563007,0.675176921 Z" id="Fill-73" fill="#FFFFFF" mask="url(#mask-10)"></path>
                    </g>
                    <path d="M2.6242407,4.510253 C2.66459414,4.34879187 2.82650813,4.22807016 2.98825538,4.22807016 L3.31191663,4.22807016 C3.45348715,4.22807016 3.6152344,4.32867158 3.65575459,4.44989215 L7.66024958,15.5629411 L7.76146667,15.5629411 L11.7054315,4.44989215 C11.7457849,4.32867158 11.9076989,4.22807016 12.0491027,4.22807016 L12.3729307,4.22807016 C12.534678,4.22807016 12.6964252,4.34879187 12.7369454,4.510253 L15.3460786,18.0636764 C15.4066087,18.3461919 15.2853817,18.5478936 14.9818971,18.5478936 L14.1729942,18.5478936 C14.0110802,18.5478936 13.8493329,18.4065527 13.8088127,18.2653781 L12.0087493,7.87848858 L11.9278757,7.87848858 L8.20652173,18.5277733 C8.16583479,18.648495 7.98407757,18.7495953 7.86251701,18.7495953 L7.49850233,18.7495953 C7.37710852,18.7495953 7.19518456,18.648495 7.15466437,18.5277733 L3.3926235,7.87848858 L3.31191663,7.87848858 L1.55220662,18.2653781 C1.53202991,18.4065527 1.34993919,18.5478936 1.18819194,18.5478936 L0.379122208,18.5478936 C0.0758044316,18.5478936 -0.0455893788,18.3461919 0.0152742761,18.0636764 L2.6242407,4.510253 Z" id="Fill-76" fill="#FFFFFF"></path>
                    <g id="Group-80" transform="translate(16.341474, 0.081978)">
                        <mask id="mask-12" fill="white">
                            <use xlink:href="#path-11"></use>
                        </mask>
                        <g id="Clip-79"></g>
                        <path d="M4.74933273,2.229893 C4.66845911,2.06843187 4.74933273,1.90713702 4.87072654,1.84660988 L7.9045713,0.152681374 C8.02579836,0.0717013813 8.32928289,0.0314608101 8.43033323,0.21304223 L8.79451466,0.938869061 C8.87538828,1.1003302 8.8348681,1.3020319 8.67312085,1.36272532 L5.41683194,2.71377756 C5.13369088,2.83499812 5.03247379,2.83499812 4.95160016,2.67353699 L4.74933273,2.229893 Z M9.80568508,13.665698 C8.81469138,11.467432 7.84387439,9.248547 6.85271394,7.0501148 L6.69113345,7.0501148 L3.73816231,13.665698 L9.80568508,13.665698 Z M0.19856559,17.9413418 L6.34712873,4.36779806 C6.40782564,4.24674378 6.50904273,4.14597607 6.69113345,4.14597607 L6.89323413,4.14597607 C7.0751581,4.14597607 7.17654194,4.24674378 7.23707209,4.36779806 L13.345115,17.9413418 C13.4665089,18.2035706 13.3047616,18.4659657 13.0012771,18.4659657 L12.1923741,18.4659657 C12.0102834,18.4659657 11.8888896,18.3447452 11.8483694,18.2441438 L10.3517905,14.9161488 L3.17171344,14.9161488 L1.69531125,18.2441438 C1.65479106,18.3447452 1.533564,18.4659657 1.35147329,18.4659657 L0.542403552,18.4659657 C0.239085776,18.4659657 0.0771717794,18.2035706 0.19856559,17.9413418 Z" id="Fill-78" fill="#FFFFFF" mask="url(#mask-12)"></path>
                    </g>
                    <path d="M31.0018281,16.4300423 L31.3051459,16.0467591 C31.5074133,15.7846966 31.6691605,15.6837626 31.9523016,15.9260374 C32.0940389,16.0467591 33.631138,17.3981439 35.4310347,17.3981439 C37.0695176,17.3981439 38.1412182,16.3696814 38.1412182,15.0987778 C38.1412182,13.7071524 36.9277803,12.9003456 34.601955,11.9121236 C32.3770132,10.9644748 31.0421815,10.1170948 31.0421815,7.81806121 C31.0421815,6.44655612 32.1343923,4.22800364 35.350161,4.22800364 C37.3323152,4.22800364 38.8087174,5.25663246 38.8087174,5.25663246 C38.9301112,5.31699331 39.1525553,5.55893559 38.9301112,5.94221872 L38.7278438,6.28509499 C38.5660965,6.56727783 38.3434856,6.56727783 38.0199911,6.38619526 C37.1705679,5.88169158 36.4625486,5.57905588 35.3299843,5.57905588 C33.1862497,5.57905588 32.5389272,6.95056096 32.5389272,7.79794092 C32.5389272,9.22980686 33.5702743,9.85503226 35.2692874,10.5610714 C37.9998144,11.6701813 39.7595244,12.6988101 39.7595244,15.0384169 C39.7595244,17.1360814 37.7570268,18.7495287 35.3906812,18.7495287 C33.004159,18.7495287 31.3860195,17.3579034 31.1232219,17.1159611 C30.9613079,16.9746203 30.718687,16.7932051 31.0018281,16.4300423" id="Fill-81" fill="#FFFFFF"></path>
                    <path d="M52.1176477,17.1562183 C55.4346336,17.1562183 57.7606257,14.7964913 57.7606257,11.4684963 C57.7606257,8.16062154 55.4346336,5.80122706 52.1176477,5.80122706 L48.9422325,5.80122706 L48.9422325,17.1562183 L52.1176477,17.1562183 Z M47.4051334,4.8130051 C47.4051334,4.6113034 47.5668806,4.42972198 47.769148,4.42972198 L52.2997385,4.42972198 C56.2031831,4.42972198 59.3987751,7.59625584 59.3987751,11.4684963 C59.3987751,15.3813098 56.2031831,18.5478437 52.2997385,18.5478437 L47.769148,18.5478437 C47.5668806,18.5478437 47.4051334,18.3662623 47.4051334,18.1645605 L47.4051334,4.8130051 Z" id="Fill-83" fill="#FFFFFF"></path>
                    <path d="M62.4126599,4.81293859 C62.4126599,4.61123688 62.5745739,4.42965546 62.7970181,4.42965546 L70.7658214,4.42965546 C70.9884323,4.42965546 71.1500128,4.61123688 71.1500128,4.81293859 L71.1500128,5.39792342 C71.1500128,5.59945884 70.9884323,5.7807077 70.7658214,5.7807077 L63.9701025,5.7807077 L63.9701025,10.7020298 L69.7746609,10.7020298 C69.9769284,10.7020298 70.1590191,10.8836112 70.1590191,11.0853129 L70.1590191,11.6701314 C70.1590191,11.8919534 69.9769284,12.0534146 69.7746609,12.0534146 L63.9701025,12.0534146 L63.9701025,17.1965586 L70.7658214,17.1965586 C70.9884323,17.1965586 71.1500128,17.3779738 71.1500128,17.5796755 L71.1500128,18.1646603 C71.1500128,18.366362 70.9884323,18.5479434 70.7658214,18.5479434 L62.7970181,18.5479434 C62.5745739,18.5479434 62.4126599,18.366362 62.4126599,18.1646603 L62.4126599,4.81293859 Z" id="Fill-85" fill="#FFFFFF"></path>
                </g>
            </g>
        </g>
    </g>
</svg>