<?xml version="1.0" encoding="UTF-8"?>
<svg width="128px" height="122px" viewBox="0 0 128 122" version="1.1" xmlns="http://www.w3.org/2000/svg" xmlns:xlink="http://www.w3.org/1999/xlink">
    <!-- Generator: Sketch 49 (51002) - http://www.bohemiancoding.com/sketch -->
    <title>logo-white</title>
    <desc>Created with Sketch.</desc>
    <defs>
        <polygon id="path-1" points="0.000433387455 0.196566802 12.5281243 0.196566802 12.5281243 14.5222672 0.000433387455 14.5222672"></polygon>
        <polygon id="path-3" points="0.374583914 0.196676923 14.8158509 0.196676923 14.8158509 14.5222672 0.374583914 14.5222672"></polygon>
        <polygon id="path-5" points="0.0146364192 0.173734953 14.4493983 0.173734953 14.4493983 14.4993252 0.0146364192 14.4993252"></polygon>
        <polygon id="path-7" points="0.450584876 0.196676923 14.1734747 0.196676923 14.1734747 14.5222672 0.450584876 14.5222672"></polygon>
        <polygon id="path-9" points="0.0947572622 0.196566802 8.20116515 0.196566802 8.20116515 14.2366121 0.0947572622 14.2366121"></polygon>
    </defs>
    <g id="Page-4" stroke="none" stroke-width="1" fill="none" fill-rule="evenodd">
        <g id="Home-100" transform="translate(-93.000000, -45.000000)">
            <g id="logo-white" transform="translate(93.000000, 45.000000)">
                <rect id="Rectangle-12" fill="#0069B4" x="0" y="0" width="128" height="122"></rect>
                <g id="logo-corona" transform="translate(14.000000, 82.000000)">
                    <g id="Page-1" transform="translate(0.818230, 0.825911)">
                        <g id="Group-3" transform="translate(0.000000, 0.009801)">
                            <mask id="mask-2" fill="white">
                                <use xlink:href="#path-1"></use>
                            </mask>
                            <g id="Clip-2"></g>
                            <path d="M7.18637342,3.36332955 C8.11985171,3.36332955 9.35147929,3.69809879 10.0952262,4.68809069 L10.2415904,4.89952389 L12.5281243,3.1552 L12.36875,2.92614737 C11.0265362,1.20164534 9.0381515,0.196236437 6.92074952,0.196236437 C3.10010201,0.196236437 0.000433671681,3.41288421 0.000433671681,7.37615547 C-0.000650507521,11.2964794 3.10010201,14.5230381 6.91966534,14.5230381 C9.02188881,14.5230381 11.0590615,13.4923012 12.3459822,11.7677992 L12.5151142,11.5695806 L10.2253277,9.81644696 L10.0822161,10.0565117 C9.50001184,11.0222769 8.15454545,11.3724632 7.18637342,11.3724632 C5.28580728,11.3724632 3.78638744,9.59510283 3.78638744,7.37615547 C3.78638744,5.13628502 5.28580728,3.36332955 7.18637342,3.36332955" id="Fill-1" fill="#FFFFFF" mask="url(#mask-2)"></path>
                        </g>
                        <g id="Group-6" transform="translate(15.178509, 0.009801)">
                            <mask id="mask-4" fill="white">
                                <use xlink:href="#path-3"></use>
                            </mask>
                            <g id="Clip-5"></g>
                            <path d="M7.58871232,11.3729036 C5.70224051,11.3729036 4.16704276,9.54819109 4.16704276,7.37549474 C4.16704276,5.1587498 5.70224051,3.36377004 7.58871232,3.36377004 C9.492531,3.36377004 11.0450756,5.1587498 11.0450756,7.37549474 C11.0450756,9.54819109 9.492531,11.3729036 7.58871232,11.3729036 M7.58871232,0.196676923 C3.62061644,0.196676923 0.374583914,3.41222348 0.374583914,7.37549474 C0.374583914,11.2969198 3.62061644,14.5223773 7.58871232,14.5223773 C11.5784918,14.5223773 14.8158509,11.2969198 14.8158509,7.37549474 C14.8158509,3.41222348 11.579576,0.196676923 7.58871232,0.196676923" id="Fill-4" fill="#FFFFFF" mask="url(#mask-4)"></path>
                        </g>
                        <g id="Group-9" transform="translate(46.619706, 0.032743)">
                            <mask id="mask-6" fill="white">
                                <use xlink:href="#path-5"></use>
                            </mask>
                            <g id="Clip-8"></g>
                            <path d="M7.22768065,11.3499617 C5.31627272,11.3499617 3.78758004,9.52524912 3.78758004,7.35255277 C3.78758004,5.13580783 5.31627272,3.34082807 7.22768065,3.34082807 C9.12607843,3.34082807 10.6970541,5.13580783 10.6970541,7.35255277 C10.6970541,9.52524912 9.12607843,11.3499617 7.22768065,11.3499617 M7.22768065,0.173734953 C3.22814357,0.173734953 0.0146364192,3.38928151 0.0146364192,7.35255277 C0.0146364192,11.2739779 3.22814357,14.4994354 7.22768065,14.4994354 C11.2011974,14.4994354 14.4493983,11.2739779 14.4493983,7.35255277 C14.4493983,3.38928151 11.2011974,0.173734953 7.22768065,0.173734953" id="Fill-7" fill="#FFFFFF" mask="url(#mask-6)"></path>
                        </g>
                        <path d="M71.7627971,0.415708502 C71.6944938,0.431125506 71.9655386,0.349635628 71.9655386,0.349635628 C72.4295673,0.257133603 72.8036092,0.206477733 73.1884928,0.206477733 L73.7956331,0.206477733 C77.0666018,0.469668016 79.3195262,3.08174899 79.3195262,6.7774251 L79.3195262,14.2469636 L75.6745157,14.2469636 L75.6745157,6.86331984 C75.6745157,4.49791093 74.2379782,3.46387045 72.814451,3.46387045 C71.3334622,3.46387045 69.6529844,4.68071255 69.6529844,6.31381377 L69.6529844,14.2469636 L66.0361626,14.2469636 L66.0372468,0.486186235 L66.5099489,0.817651822 C67.1019107,1.17774899 67.7535024,1.37156275 68.4874918,1.37156275 C69.069696,1.37156275 69.759234,1.22069636 70.2449462,0.968518219 C70.2449462,0.968518219 71.3399672,0.529133603 71.7627971,0.415708502" id="Fill-10" fill="#FFFFFF"></path>
                        <g id="Group-14" transform="translate(83.481799, 0.009801)">
                            <mask id="mask-8" fill="white">
                                <use xlink:href="#path-7"></use>
                            </mask>
                            <g id="Clip-13"></g>
                            <path d="M7.35680639,11.3729036 C5.65898176,11.3729036 4.23437029,9.54819109 4.23437029,7.37549474 C4.23437029,5.1587498 5.65898176,3.36377004 7.35680639,3.36377004 C9.12293431,3.36377004 10.5258622,5.1587498 10.5258622,7.37549474 C10.5258622,9.54819109 9.12293431,11.3729036 7.35680639,11.3729036 Z M10.0705069,13.6601263 C10.5518825,13.4387822 11.1048139,13.3165474 11.6403984,13.3165474 C12.6009812,13.3165474 13.4997657,13.6601263 14.1741252,14.2371628 L14.1741252,0.476385425 L13.7014231,0.807851012 C13.1007878,1.16794818 12.4285967,1.36176194 11.7173751,1.36176194 C11.1330026,1.36176194 10.4510538,1.21089555 9.95341558,0.958717409 C9.95341558,0.958717409 9.86234453,0.911365182 9.71814869,0.869519028 C9.60430988,0.824369231 9.01885311,0.564482591 8.84863697,0.496207287 C8.82695339,0.496207287 8.57433964,0.416919838 8.48543694,0.380579757 C8.48543694,0.380579757 7.7785521,0.223106073 7.40993117,0.196676923 L7.06733055,0.196676923 L7.01962666,0.196676923 L7.05215204,0.196676923 L6.99252218,0.196676923 C3.39521559,0.196676923 0.450584876,3.41222348 0.450584876,7.37549474 C0.501541299,11.3784097 3.39521559,14.5223773 6.99252218,14.5223773 C7.92166376,14.5223773 8.78575458,14.2757053 9.58587883,13.9123045 L10.0705069,13.6601263 Z" id="Fill-12" fill="#FFFFFF" mask="url(#mask-8)"></path>
                        </g>
                        <g id="Group-17" transform="translate(34.693734, 0.009801)">
                            <mask id="mask-10" fill="white">
                                <use xlink:href="#path-9"></use>
                            </mask>
                            <g id="Clip-16"></g>
                            <path d="M3.70615818,6.30456356 C3.70615818,5.16260405 4.52579766,4.19463644 5.58612492,4.02504939 C5.7173106,3.9953166 7.27852865,3.71340567 8.20116515,4.94566478 L8.20116515,0.278717409 C8.20116515,0.278717409 7.65799137,0.196126316 7.06169281,0.196126316 C6.20519124,0.196126316 5.32592191,0.416369231 4.52579766,0.808401619 L4.19837554,0.979089879 C3.69640057,1.23677409 3.14455336,1.36231255 2.5634333,1.36231255 C1.80017115,1.36231255 1.15400034,1.16849879 0.558785961,0.786377328 L0.0947572622,0.476936032 L0.0947572622,14.2366121 L3.70615818,14.2366121 L3.70615818,6.30456356 Z" id="Fill-15" fill="#FFFFFF" mask="url(#mask-10)"></path>
                        </g>
                    </g>
                </g>
            </g>
        </g>
    </g>
</svg>